<?xml version="1.0" encoding="UTF-8" standalone="no"?>
<!-- Created with Inkscape (http://www.inkscape.org/) -->

<svg
   xmlns:dc="http://purl.org/dc/elements/1.1/"
   xmlns:cc="http://creativecommons.org/ns#"
   xmlns:rdf="http://www.w3.org/1999/02/22-rdf-syntax-ns#"
   xmlns:svg="http://www.w3.org/2000/svg"
   xmlns="http://www.w3.org/2000/svg"
   xmlns:sodipodi="http://sodipodi.sourceforge.net/DTD/sodipodi-0.dtd"
   xmlns:inkscape="http://www.inkscape.org/namespaces/inkscape"
   version="1.1"
   id="svg4299"
   xml:space="preserve"
   width="322.39716"
   height="648.89465"
   viewBox="0 0 322.39716 648.89465"
   sodipodi:docname="Residual_Calculation_3.svg"
   inkscape:version="0.92.4 (5da689c313, 2019-01-14)"><metadata
     id="metadata4305"><rdf:RDF><cc:Work
         rdf:about=""><dc:format>image/svg+xml</dc:format><dc:type
           rdf:resource="http://purl.org/dc/dcmitype/StillImage" /><dc:title></dc:title></cc:Work></rdf:RDF></metadata><defs
     id="defs4303"><clipPath
       clipPathUnits="userSpaceOnUse"
       id="clipPath4315"><path
         d="M 0,6.1035e-5 H 298.5 V 543.75006 H 0 Z"
         id="path4313"
         inkscape:connector-curvature="0"
         style="clip-rule:evenodd" /></clipPath><clipPath
       clipPathUnits="userSpaceOnUse"
       id="clipPath4329"><path
         d="M 4.448e-6,0 H 298.5 V 543.75 H 4.448e-6 Z"
         id="path4327"
         inkscape:connector-curvature="0"
         style="clip-rule:evenodd" /></clipPath><clipPath
       clipPathUnits="userSpaceOnUse"
       id="clipPath4341"><path
         d="M 4.448e-6,0 H 298.5 V 543.75 H 4.448e-6 Z"
         id="path4339"
         inkscape:connector-curvature="0"
         style="clip-rule:evenodd" /></clipPath><clipPath
       clipPathUnits="userSpaceOnUse"
       id="clipPath4353"><path
         d="M 4.448e-6,0 H 298.5 V 543.75 H 4.448e-6 Z"
         id="path4351"
         inkscape:connector-curvature="0"
         style="clip-rule:evenodd" /></clipPath><clipPath
       clipPathUnits="userSpaceOnUse"
       id="clipPath4365"><path
         d="M 4.448e-6,0 H 298.5 V 543.75 H 4.448e-6 Z"
         id="path4363"
         inkscape:connector-curvature="0"
         style="clip-rule:evenodd" /></clipPath><clipPath
       clipPathUnits="userSpaceOnUse"
       id="clipPath4381"><path
         d="M 4.448e-6,0 H 298.5 V 543.75 H 4.448e-6 Z"
         id="path4379"
         inkscape:connector-curvature="0"
         style="clip-rule:evenodd" /></clipPath><clipPath
       clipPathUnits="userSpaceOnUse"
       id="clipPath4393"><path
         d="M 4.448e-6,0 H 298.5 V 543.75 H 4.448e-6 Z"
         id="path4391"
         inkscape:connector-curvature="0"
         style="clip-rule:evenodd" /></clipPath><clipPath
       clipPathUnits="userSpaceOnUse"
       id="clipPath4405"><path
         d="M 4.448e-6,0 H 298.5 V 543.75 H 4.448e-6 Z"
         id="path4403"
         inkscape:connector-curvature="0"
         style="clip-rule:evenodd" /></clipPath><clipPath
       clipPathUnits="userSpaceOnUse"
       id="clipPath4417"><path
         d="M 4.448e-6,0 H 298.5 V 543.75 H 4.448e-6 Z"
         id="path4415"
         inkscape:connector-curvature="0"
         style="clip-rule:evenodd" /></clipPath><clipPath
       clipPathUnits="userSpaceOnUse"
       id="clipPath4429"><path
         d="M 4.448e-6,0 H 298.5 V 543.75 H 4.448e-6 Z"
         id="path4427"
         inkscape:connector-curvature="0"
         style="clip-rule:evenodd" /></clipPath><clipPath
       clipPathUnits="userSpaceOnUse"
       id="clipPath4445"><path
         d="M 4.448e-6,0 H 298.5 V 543.75 H 4.448e-6 Z"
         id="path4443"
         inkscape:connector-curvature="0"
         style="clip-rule:evenodd" /></clipPath><clipPath
       clipPathUnits="userSpaceOnUse"
       id="clipPath4461"><path
         d="M 4.448e-6,0 H 298.5 V 543.75 H 4.448e-6 Z"
         id="path4459"
         inkscape:connector-curvature="0"
         style="clip-rule:evenodd" /></clipPath><clipPath
       clipPathUnits="userSpaceOnUse"
       id="clipPath4473"><path
         d="M 4.448e-6,0 H 298.5 V 543.75 H 4.448e-6 Z"
         id="path4471"
         inkscape:connector-curvature="0"
         style="clip-rule:evenodd" /></clipPath><clipPath
       clipPathUnits="userSpaceOnUse"
       id="clipPath4489"><path
         d="M 4.448e-6,0 H 298.5 V 543.75 H 4.448e-6 Z"
         id="path4487"
         inkscape:connector-curvature="0"
         style="clip-rule:evenodd" /></clipPath><clipPath
       clipPathUnits="userSpaceOnUse"
       id="clipPath4505"><path
         d="M 4.448e-6,0 H 298.5 V 543.75 H 4.448e-6 Z"
         id="path4503"
         inkscape:connector-curvature="0"
         style="clip-rule:evenodd" /></clipPath><clipPath
       clipPathUnits="userSpaceOnUse"
       id="clipPath4517"><path
         d="M 4.448e-6,0 H 298.5 V 543.75 H 4.448e-6 Z"
         id="path4515"
         inkscape:connector-curvature="0"
         style="clip-rule:evenodd" /></clipPath><clipPath
       clipPathUnits="userSpaceOnUse"
       id="clipPath4529"><path
         d="M 4.448e-6,0 H 298.5 V 543.75 H 4.448e-6 Z"
         id="path4527"
         inkscape:connector-curvature="0"
         style="clip-rule:evenodd" /></clipPath><clipPath
       clipPathUnits="userSpaceOnUse"
       id="clipPath4541"><path
         d="M 4.448e-6,0 H 298.5 V 543.75 H 4.448e-6 Z"
         id="path4539"
         inkscape:connector-curvature="0"
         style="clip-rule:evenodd" /></clipPath><clipPath
       clipPathUnits="userSpaceOnUse"
       id="clipPath4569"><path
         d="M 4.448e-6,0 H 298.5 V 543.75 H 4.448e-6 Z"
         id="path4567"
         inkscape:connector-curvature="0"
         style="clip-rule:evenodd" /></clipPath><clipPath
       clipPathUnits="userSpaceOnUse"
       id="clipPath4585"><path
         d="M 4.448e-6,0 H 298.5 V 543.75 H 4.448e-6 Z"
         id="path4583"
         inkscape:connector-curvature="0"
         style="clip-rule:evenodd" /></clipPath><clipPath
       clipPathUnits="userSpaceOnUse"
       id="clipPath4597"><path
         d="M 4.448e-6,0 H 298.5 V 543.75 H 4.448e-6 Z"
         id="path4595"
         inkscape:connector-curvature="0"
         style="clip-rule:evenodd" /></clipPath><clipPath
       clipPathUnits="userSpaceOnUse"
       id="clipPath4609"><path
         d="M 4.448e-6,0 H 298.5 V 543.75 H 4.448e-6 Z"
         id="path4607"
         inkscape:connector-curvature="0"
         style="clip-rule:evenodd" /></clipPath><clipPath
       clipPathUnits="userSpaceOnUse"
       id="clipPath4625"><path
         d="M 4.448e-6,0 H 298.5 V 543.75 H 4.448e-6 Z"
         id="path4623"
         inkscape:connector-curvature="0"
         style="clip-rule:evenodd" /></clipPath><clipPath
       clipPathUnits="userSpaceOnUse"
       id="clipPath4637"><path
         d="M 4.448e-6,0 H 298.5 V 543.75 H 4.448e-6 Z"
         id="path4635"
         inkscape:connector-curvature="0"
         style="clip-rule:evenodd" /></clipPath><clipPath
       clipPathUnits="userSpaceOnUse"
       id="clipPath4653"><path
         d="M 4.448e-6,0 H 298.5 V 543.75 H 4.448e-6 Z"
         id="path4651"
         inkscape:connector-curvature="0"
         style="clip-rule:evenodd" /></clipPath><clipPath
       clipPathUnits="userSpaceOnUse"
       id="clipPath4665"><path
         d="M 4.448e-6,0 H 298.5 V 543.75 H 4.448e-6 Z"
         id="path4663"
         inkscape:connector-curvature="0"
         style="clip-rule:evenodd" /></clipPath><clipPath
       clipPathUnits="userSpaceOnUse"
       id="clipPath4677"><path
         d="M 4.448e-6,0 H 298.5 V 543.75 H 4.448e-6 Z"
         id="path4675"
         inkscape:connector-curvature="0"
         style="clip-rule:evenodd" /></clipPath><clipPath
       clipPathUnits="userSpaceOnUse"
       id="clipPath4689"><path
         d="M 4.448e-6,0 H 298.5 V 543.75 H 4.448e-6 Z"
         id="path4687"
         inkscape:connector-curvature="0"
         style="clip-rule:evenodd" /></clipPath><clipPath
       clipPathUnits="userSpaceOnUse"
       id="clipPath4701"><path
         d="M 4.448e-6,0 H 298.5 V 543.75 H 4.448e-6 Z"
         id="path4699"
         inkscape:connector-curvature="0"
         style="clip-rule:evenodd" /></clipPath><linearGradient
       x1="123.43"
       y1="160.57001"
       x2="158.28"
       y2="100.21"
       gradientUnits="userSpaceOnUse"
       spreadMethod="pad"
       id="linearGradient4735"><stop
         style="stop-opacity:1;stop-color:#feffff"
         offset="0"
         id="stop4721" /><stop
         style="stop-opacity:1;stop-color:#feffff"
         offset="0.22941"
         id="stop4723" /><stop
         style="stop-opacity:1;stop-color:#f4f5fa"
         offset="0.38039"
         id="stop4725" /><stop
         style="stop-opacity:1;stop-color:#e9ebf5"
         offset="0.5"
         id="stop4727" /><stop
         style="stop-opacity:1;stop-color:#f4f5fa"
         offset="0.61961"
         id="stop4729" /><stop
         style="stop-opacity:1;stop-color:#feffff"
         offset="0.77059"
         id="stop4731" /><stop
         style="stop-opacity:1;stop-color:#feffff"
         offset="1"
         id="stop4733" /></linearGradient><clipPath
       clipPathUnits="userSpaceOnUse"
       id="clipPath4747"><path
         d="M 4.448e-6,0 H 298.5 V 543.75 H 4.448e-6 Z"
         id="path4745"
         inkscape:connector-curvature="0"
         style="clip-rule:evenodd" /></clipPath><clipPath
       clipPathUnits="userSpaceOnUse"
       id="clipPath4759"><path
         d="M 4.448e-6,0 H 298.5 V 543.75 H 4.448e-6 Z"
         id="path4757"
         inkscape:connector-curvature="0"
         style="clip-rule:evenodd" /></clipPath><clipPath
       clipPathUnits="userSpaceOnUse"
       id="clipPath4779"><path
         d="M 4.448e-6,0 H 298.5 V 543.75 H 4.448e-6 Z"
         id="path4777"
         inkscape:connector-curvature="0"
         style="clip-rule:evenodd" /></clipPath><clipPath
       clipPathUnits="userSpaceOnUse"
       id="clipPath4791"><path
         d="M 4.448e-6,0 H 298.5 V 543.75 H 4.448e-6 Z"
         id="path4789"
         inkscape:connector-curvature="0"
         style="clip-rule:evenodd" /></clipPath><clipPath
       clipPathUnits="userSpaceOnUse"
       id="clipPath4803"><path
         d="M 4.448e-6,0 H 298.5 V 543.75 H 4.448e-6 Z"
         id="path4801"
         inkscape:connector-curvature="0"
         style="clip-rule:evenodd" /></clipPath></defs><sodipodi:namedview
     pagecolor="#ffffff"
     bordercolor="#666666"
     borderopacity="1"
     objecttolerance="10"
     gridtolerance="10"
     guidetolerance="10"
     inkscape:pageopacity="0"
     inkscape:pageshadow="2"
     inkscape:window-width="640"
     inkscape:window-height="480"
     id="namedview4301"
     showgrid="false"
     inkscape:zoom="0.32551724"
     inkscape:cx="161.17717"
     inkscape:cy="303.44172"
     inkscape:window-x="2857"
     inkscape:window-y="355"
     inkscape:window-maximized="0"
     inkscape:current-layer="g4307" /><g
     id="g4307"
     inkscape:groupmode="layer"
     inkscape:label="Residual_Calculation"
     transform="matrix(1.3333333,0,0,-1.3333333,-37.822827,686.36665)"><g
       id="g4309"
       transform="translate(-679.68752,163.58581)"><g
         id="g4311"
         clip-path="url(#clipPath4315)"><path
           d="m 0,-0.61743 h 299.14 v 544.37 H 0 Z"
           style="fill:none;stroke:#c8c8c8;stroke-width:0.25;stroke-linecap:square;stroke-linejoin:miter;stroke-miterlimit:10;stroke-dasharray:none;stroke-opacity:1"
           id="path4317"
           inkscape:connector-curvature="0" /></g></g><path
       d="m 46.813,469.3 h 35.433 c 9.785,0 17.717,10.15 17.717,22.68 0,12.52 -7.932,22.67 -17.717,22.67 H 46.813 c -9.785,0 -17.717,-10.15 -17.717,-22.67 0,-12.53 7.932,-22.68 17.717,-22.68 z"
       style="fill:#538135;fill-opacity:1;fill-rule:evenodd;stroke:none"
       id="path4319"
       inkscape:connector-curvature="0" /><path
       d="m 46.813,469.3 h 35.433 c 9.785,0 17.717,10.15 17.717,22.68 0,12.52 -7.932,22.67 -17.717,22.67 H 46.813 c -9.785,0 -17.717,-10.15 -17.717,-22.67 0,-12.53 7.932,-22.68 17.717,-22.68 z"
       style="fill:none;stroke:#c8c8c8;stroke-width:0.25;stroke-linecap:square;stroke-linejoin:miter;stroke-miterlimit:10;stroke-dasharray:none;stroke-opacity:1"
       id="path4321"
       inkscape:connector-curvature="0" /><g
       id="g4323"><g
         id="g4325"
         clip-path="url(#clipPath4329)"><text
           transform="matrix(1,0,0,-1,49.15,504)"
           style="font-variant:normal;font-weight:normal;font-size:8.27499962px;font-family:Calibri;-inkscape-font-specification:Calibri;writing-mode:lr-tb;fill:#feffff;fill-opacity:1;fill-rule:nonzero;stroke:none"
           id="text4333"><tspan
             x="0 3.7734001 9.0362997 10.5589 15.07705 19.5952 21.1178 25.63595 27.911575"
             y="0"
             sodipodi:role="line"
             id="tspan4331">3D Points</tspan></text>
</g></g><g
       id="g4335"><g
         id="g4337"
         clip-path="url(#clipPath4341)"><text
           transform="matrix(1,0,0,-1,34.5,494.38)"
           style="font-variant:normal;font-weight:normal;font-size:8.25px;font-family:Calibri;-inkscape-font-specification:Calibri;writing-mode:lr-tb;fill:#feffff;fill-opacity:1;fill-rule:nonzero;stroke:none"
           id="text4345"><tspan
             x="0 2.25225 4.4962502 8.25 11.9955 15.74925 17.25075 19.494749 22.497749 26.98575 31.473749 33.726002 38.214001 39.7155 44.203499 47.957249 50.952 54.70575 57.708752"
             y="0"
             sodipodi:role="line"
             id="tspan4343">(local coordinates)</tspan></text>
</g></g><g
       id="g4347"><g
         id="g4349"
         clip-path="url(#clipPath4353)"><text
           transform="matrix(1,0,0,-1,33.4,484.77)"
           style="font-variant:normal;font-weight:normal;font-size:8.27499962px;font-family:'Courier New';-inkscape-font-specification:CourierNewPSMT;writing-mode:lr-tb;fill:#feffff;fill-opacity:1;fill-rule:nonzero;stroke:none"
           id="text4357"><tspan
             x="0 4.5264249 9.7893248 14.31575 19.57865 24.105076 28.6315 33.894402 38.420826 43.683723 48.210152 52.736576 57.999474"
             y="0"
             sodipodi:role="line"
             id="tspan4355">checkerboard_</tspan></text>
</g></g><g
       id="g4359"><g
         id="g4361"
         clip-path="url(#clipPath4365)"><text
           transform="matrix(1,0,0,-1,50.25,475.05)"
           style="font-variant:normal;font-weight:normal;font-size:8.27499962px;font-family:'Courier New';-inkscape-font-specification:CourierNewPSMT;writing-mode:lr-tb;fill:#feffff;fill-opacity:1;fill-rule:nonzero;stroke:none"
           id="text4369"><tspan
             x="0 4.5264249 9.7893248 14.31575 19.57865 24.105076"
             y="0"
             sodipodi:role="line"
             id="tspan4367">points</tspan></text>
</g></g><path
       d="m 114.14,410.86 h 70.866 v 42.52 H 114.14 Z"
       style="fill:#c55a11;fill-opacity:1;fill-rule:evenodd;stroke:none"
       id="path4371"
       inkscape:connector-curvature="0" /><path
       d="m 114.14,410.86 h 70.866 v 42.52 H 114.14 Z"
       style="fill:none;stroke:#833c0b;stroke-width:0.25;stroke-linecap:square;stroke-linejoin:miter;stroke-miterlimit:10;stroke-dasharray:none;stroke-opacity:1"
       id="path4373"
       inkscape:connector-curvature="0" /><g
       id="g4375"><g
         id="g4377"
         clip-path="url(#clipPath4381)"><text
           transform="matrix(1,0,0,-1,127.15,439.25)"
           style="font-variant:normal;font-weight:normal;font-size:8.27499962px;font-family:Calibri;-inkscape-font-specification:Calibri;writing-mode:lr-tb;fill:#feffff;fill-opacity:1;fill-rule:nonzero;stroke:none"
           id="text4385"><tspan
             x="0 4.4933252 8.2419004 12.735225 15.73905 19.504175 23.2362 26.23175 30.725075 34.473652 38.222225 41.217773 45.711102"
             y="0"
             sodipodi:role="line"
             id="tspan4383">Checkerboard </tspan></text>
</g></g><g
       id="g4387"><g
         id="g4389"
         clip-path="url(#clipPath4393)"><text
           transform="matrix(1,0,0,-1,134.7,429.63)"
           style="font-variant:normal;font-weight:normal;font-size:8.25px;font-family:Calibri;-inkscape-font-specification:Calibri;writing-mode:lr-tb;fill:#feffff;fill-opacity:1;fill-rule:nonzero;stroke:none"
           id="text4397"><tspan
             x="0 3.7537501 7.4992499 9.7515001 12.74625 14.99025 18.743999 21.747 23.990999 26.993999 30.7395"
             y="0"
             sodipodi:role="line"
             id="tspan4395">extrinsics </tspan></text>
</g></g><g
       id="g4399"><g
         id="g4401"
         clip-path="url(#clipPath4405)"><text
           transform="matrix(1,0,0,-1,129.15,419.92)"
           style="font-variant:normal;font-weight:normal;font-size:8.27499962px;font-family:'Courier New';-inkscape-font-specification:CourierNewPSMT;writing-mode:lr-tb;fill:#feffff;fill-opacity:1;fill-rule:nonzero;stroke:none"
           id="text4409"><tspan
             x="0 4.5015998 9.7396746 14.241275"
             y="0"
             sodipodi:role="line"
             id="tspan4407">rvec</tspan></text>
</g></g><g
       id="g4411"><g
         id="g4413"
         clip-path="url(#clipPath4417)"><text
           transform="matrix(1,0,0,-1,148.4,419.92)"
           style="font-variant:normal;font-weight:normal;font-size:8.27499962px;font-family:Calibri;-inkscape-font-specification:Calibri;writing-mode:lr-tb;fill:#feffff;fill-opacity:1;fill-rule:nonzero;stroke:none"
           id="text4421"><tspan
             x="0"
             y="0"
             id="tspan4419">/</tspan></text>
</g></g><g
       id="g4423"><g
         id="g4425"
         clip-path="url(#clipPath4429)"><text
           transform="matrix(1,0,0,-1,151.5,419.92)"
           style="font-variant:normal;font-weight:normal;font-size:8.27499962px;font-family:'Courier New';-inkscape-font-specification:CourierNewPSMT;writing-mode:lr-tb;fill:#feffff;fill-opacity:1;fill-rule:nonzero;stroke:none"
           id="text4433"><tspan
             x="0 4.5015998 9.7396746 14.241275"
             y="0"
             sodipodi:role="line"
             id="tspan4431">tvec</tspan></text>
</g></g><path
       d="M 29.096,432.12 64.53,453.38 99.963,432.12 64.53,410.86 Z"
       style="fill:#3d64ac;fill-opacity:1;fill-rule:evenodd;stroke:none"
       id="path4435"
       inkscape:connector-curvature="0" /><path
       d="M 29.096,432.12 64.53,453.38 99.963,432.12 64.53,410.86 Z"
       style="fill:none;stroke:#31528f;stroke-width:0.75;stroke-linecap:square;stroke-linejoin:miter;stroke-miterlimit:10;stroke-dasharray:none;stroke-opacity:1"
       id="path4437"
       inkscape:connector-curvature="0" /><g
       id="g4439"><g
         id="g4441"
         clip-path="url(#clipPath4445)"><text
           transform="matrix(1,0,0,-1,39.4,429.55)"
           style="font-variant:normal;font-weight:normal;font-size:8.25px;font-family:Calibri;-inkscape-font-specification:Calibri;writing-mode:lr-tb;fill:#feffff;fill-opacity:1;fill-rule:nonzero;stroke:none"
           id="text4449"><tspan
             x="0 3.7537501 6.7484999 10.50225 14.99025 17.99325 20.245501 24.7335 26.98575 33.750751 37.504501 40.499249 42.000751 46.48875"
             y="0"
             sodipodi:role="line"
             id="tspan4447">Transformation</tspan></text>
</g></g><path
       d="m 43.27,358.09 h 42.519 c 7.828,0 14.174,6.35 14.174,14.18 0,7.82 -6.346,14.17 -14.174,14.17 H 43.27 c -7.828,0 -14.174,-6.35 -14.174,-14.17 0,-7.83 6.346,-14.18 14.174,-14.18 z"
       style="fill:#3d64ac;fill-opacity:1;fill-rule:evenodd;stroke:none"
       id="path4451"
       inkscape:connector-curvature="0" /><path
       d="m 43.27,358.09 h 42.519 c 7.828,0 14.174,6.35 14.174,14.18 0,7.82 -6.346,14.17 -14.174,14.17 H 43.27 c -7.828,0 -14.174,-6.35 -14.174,-14.17 0,-7.83 6.346,-14.18 14.174,-14.18 z"
       style="fill:none;stroke:#31528f;stroke-width:0.75;stroke-linecap:square;stroke-linejoin:miter;stroke-miterlimit:10;stroke-dasharray:none;stroke-opacity:1"
       id="path4453"
       inkscape:connector-curvature="0" /><g
       id="g4455"><g
         id="g4457"
         clip-path="url(#clipPath4461)"><text
           transform="matrix(1,0,0,-1,49.15,374.42)"
           style="font-variant:normal;font-weight:normal;font-size:8.25px;font-family:Calibri;-inkscape-font-specification:Calibri;writing-mode:lr-tb;fill:#feffff;fill-opacity:1;fill-rule:nonzero;stroke:none"
           id="text4465"><tspan
             x="0 3.7785001 9.0419998 10.56825 15.081 19.59375 21.120001 25.63275 27.90975"
             y="0"
             sodipodi:role="line"
             id="tspan4463">3D Points</tspan></text>
</g></g><g
       id="g4467"><g
         id="g4469"
         clip-path="url(#clipPath4473)"><text
           transform="matrix(1,0,0,-1,32.2,364.83)"
           style="font-variant:normal;font-weight:normal;font-size:8.27499962px;font-family:Calibri;-inkscape-font-specification:Calibri;writing-mode:lr-tb;fill:#feffff;fill-opacity:1;fill-rule:nonzero;stroke:none"
           id="text4477"><tspan
             x="0 2.2507999 5.9993749 8.2419004 11.990475 16.483801 20.232374 21.73015 23.972675 26.9765 31.469826 35.96315 38.213951 42.707275 44.205051 48.698376 52.446949 55.442501 59.191074 62.194901"
             y="0"
             sodipodi:role="line"
             id="tspan4475">(global coordinates)</tspan></text>
</g></g><path
       d="M 29.096,313.34 64.53,334.6 99.963,313.34 64.53,292.08 Z"
       style="fill:#3d64ac;fill-opacity:1;fill-rule:evenodd;stroke:none"
       id="path4479"
       inkscape:connector-curvature="0" /><path
       d="M 29.096,313.34 64.53,334.6 99.963,313.34 64.53,292.08 Z"
       style="fill:none;stroke:#31528f;stroke-width:0.75;stroke-linecap:square;stroke-linejoin:miter;stroke-miterlimit:10;stroke-dasharray:none;stroke-opacity:1"
       id="path4481"
       inkscape:connector-curvature="0" /><g
       id="g4483"><g
         id="g4485"
         clip-path="url(#clipPath4489)"><text
           transform="matrix(1,0,0,-1,41.625,310.63)"
           style="font-variant:normal;font-weight:normal;font-size:8.27499962px;font-family:Calibri;-inkscape-font-specification:Calibri;writing-mode:lr-tb;fill:#feffff;fill-opacity:1;fill-rule:nonzero;stroke:none"
           id="text4493"><tspan
             x="0 5.2711749 9.7893248 12.06495 18.8339 22.6073 24.1299 26.397249 29.4259 33.199299 36.219673 37.742275 42.260426"
             y="0"
             sodipodi:role="line"
             id="tspan4491">Normalization</tspan></text>
</g></g><path
       d="m 46.813,222.3 h 35.433 c 9.785,0 17.717,10.16 17.717,22.68 0,12.52 -7.932,22.68 -17.717,22.68 H 46.813 c -9.785,0 -17.717,-10.16 -17.717,-22.68 0,-12.52 7.932,-22.68 17.717,-22.68 z"
       style="fill:#3d64ac;fill-opacity:1;fill-rule:evenodd;stroke:none"
       id="path4495"
       inkscape:connector-curvature="0" /><path
       d="m 46.813,222.3 h 35.433 c 9.785,0 17.717,10.16 17.717,22.68 0,12.52 -7.932,22.68 -17.717,22.68 H 46.813 c -9.785,0 -17.717,-10.16 -17.717,-22.68 0,-12.52 7.932,-22.68 17.717,-22.68 z"
       style="fill:none;stroke:#31528f;stroke-width:0.75;stroke-linecap:square;stroke-linejoin:miter;stroke-miterlimit:10;stroke-dasharray:none;stroke-opacity:1"
       id="path4497"
       inkscape:connector-curvature="0" /><g
       id="g4499"><g
         id="g4501"
         clip-path="url(#clipPath4505)"><text
           transform="matrix(1,0,0,-1,35.325,256.65)"
           style="font-variant:normal;font-weight:normal;font-size:8.25px;font-family:Calibri;-inkscape-font-specification:Calibri;writing-mode:lr-tb;fill:#feffff;fill-opacity:1;fill-rule:nonzero;stroke:none"
           id="text4509"><tspan
             x="0 4.4797502 8.25 11.98725 14.9985 16.5 19.494749 21.747 26.235001 32.2575 34.501499 37.504501 41.258251 48.023251 51.777 54.771751 58.525501"
             y="0"
             sodipodi:role="line"
             id="tspan4507">Rays from camera </tspan></text>
</g></g><g
       id="g4511"><g
         id="g4513"
         clip-path="url(#clipPath4517)"><text
           transform="matrix(1,0,0,-1,54.15,247.05)"
           style="font-variant:normal;font-weight:normal;font-size:8.27499962px;font-family:Calibri;-inkscape-font-specification:Calibri;writing-mode:lr-tb;fill:#feffff;fill-opacity:1;fill-rule:nonzero;stroke:none"
           id="text4521"><tspan
             x="0 3.765125 7.5385251 11.311925 14.3323 18.1057"
             y="0"
             sodipodi:role="line"
             id="tspan4519">center</tspan></text>
</g></g><g
       id="g4523"><g
         id="g4525"
         clip-path="url(#clipPath4529)"><text
           transform="matrix(1,0,0,-1,33.4,237.43)"
           style="font-variant:normal;font-weight:normal;font-size:8.25px;font-family:'Courier New';-inkscape-font-specification:CourierNewPSMT;writing-mode:lr-tb;fill:#feffff;fill-opacity:1;fill-rule:nonzero;stroke:none"
           id="text4533"><tspan
             x="0 4.5209999 9.7845001 14.3055 19.569 24.09 28.611 33.8745 38.3955 43.659 48.18 52.701 57.9645"
             y="0"
             sodipodi:role="line"
             id="tspan4531">forward_proje</tspan></text>
</g></g><g
       id="g4535"><g
         id="g4537"
         clip-path="url(#clipPath4541)"><text
           transform="matrix(1,0,0,-1,43.025,227.7)"
           style="font-variant:normal;font-weight:normal;font-size:8.25px;font-family:'Courier New';-inkscape-font-specification:CourierNewPSMT;writing-mode:lr-tb;fill:#feffff;fill-opacity:1;fill-rule:nonzero;stroke:none"
           id="text4545"><tspan
             x="0 4.5209999 9.7845001 14.3055 19.569 24.09 28.611 33.8745 38.3955"
             y="0"
             sodipodi:role="line"
             id="tspan4543">cted_rays</tspan></text>
</g></g><path
       d="m 64.53,469.3 v -9.76"
       style="fill:none;stroke:#4672c4;stroke-width:1;stroke-linecap:round;stroke-linejoin:round;stroke-miterlimit:10;stroke-dasharray:none;stroke-opacity:1"
       id="path4547"
       inkscape:connector-curvature="0" /><path
       d="m 68.05,460.42 -3.52,-7.04 -3.52,7.04 z"
       style="fill:#4672c4;fill-opacity:1;fill-rule:evenodd;stroke:none"
       id="path4549"
       inkscape:connector-curvature="0" /><path
       d="M 64.53,410.86 V 392.6"
       style="fill:none;stroke:#4672c4;stroke-width:1;stroke-linecap:round;stroke-linejoin:round;stroke-miterlimit:10;stroke-dasharray:none;stroke-opacity:1"
       id="path4551"
       inkscape:connector-curvature="0" /><path
       d="m 68.05,393.48 -3.52,-7.04 -3.52,7.04 z"
       style="fill:#4672c4;fill-opacity:1;fill-rule:evenodd;stroke:none"
       id="path4553"
       inkscape:connector-curvature="0" /><path
       d="m 64.53,358.56 v -17.8"
       style="fill:none;stroke:#4672c4;stroke-width:1;stroke-linecap:round;stroke-linejoin:round;stroke-miterlimit:10;stroke-dasharray:none;stroke-opacity:1"
       id="path4555"
       inkscape:connector-curvature="0" /><path
       d="m 68.05,341.64 -3.52,-7.04 -3.52,7.04 z"
       style="fill:#4672c4;fill-opacity:1;fill-rule:evenodd;stroke:none"
       id="path4557"
       inkscape:connector-curvature="0" /><path
       d="m 128.31,28.479 h 42.52 c 7.83,0 14.17,6.346 14.17,14.173 0,7.828 -6.34,14.173 -14.17,14.173 h -42.52 c -7.83,0 -14.17,-6.345 -14.17,-14.173 0,-7.827 6.34,-14.173 14.17,-14.173 z"
       style="fill:#c55a11;fill-opacity:1;fill-rule:evenodd;stroke:none"
       id="path4559"
       inkscape:connector-curvature="0" /><path
       d="m 128.31,28.479 h 42.52 c 7.83,0 14.17,6.346 14.17,14.173 0,7.828 -6.34,14.173 -14.17,14.173 h -42.52 c -7.83,0 -14.17,-6.345 -14.17,-14.173 0,-7.827 6.34,-14.173 14.17,-14.173 z"
       style="fill:none;stroke:#833c0b;stroke-width:0.75;stroke-linecap:square;stroke-linejoin:miter;stroke-miterlimit:2;stroke-dasharray:none;stroke-opacity:1"
       id="path4561"
       inkscape:connector-curvature="0" /><g
       id="g4563"><g
         id="g4565"
         clip-path="url(#clipPath4569)"><text
           transform="matrix(1,0,0,-1,130.83,39.55)"
           style="font-variant:normal;font-weight:normal;font-size:8.25px;font-family:Calibri;-inkscape-font-specification:Calibri;writing-mode:lr-tb;fill:#feffff;fill-opacity:1;fill-rule:nonzero;stroke:none"
           id="text4573"><tspan
             x="0 3.7537501 8.9925003 10.494 14.97375 18.743999 22.4895 23.990999 28.479 32.23275 35.9865"
             y="0"
             sodipodi:role="line"
             id="tspan4571">2D Residual</tspan></text>
</g></g><path
       d="m 216.18,98.289 h 36.85 c 9.4,0 17.01,7.611 17.01,17.011 0,9.39 -7.61,17 -17.01,17 h -36.85 c -9.39,0 -17,-7.61 -17,-17 0,-9.4 7.61,-17.011 17,-17.011 z"
       style="fill:#538135;fill-opacity:1;fill-rule:evenodd;stroke:none"
       id="path4575"
       inkscape:connector-curvature="0" /><path
       d="m 216.18,98.289 h 36.85 c 9.4,0 17.01,7.611 17.01,17.011 0,9.39 -7.61,17 -17.01,17 h -36.85 c -9.39,0 -17,-7.61 -17,-17 0,-9.4 7.61,-17.011 17,-17.011 z"
       style="fill:none;stroke:#c8c8c8;stroke-width:0.25;stroke-linecap:square;stroke-linejoin:miter;stroke-miterlimit:2;stroke-dasharray:none;stroke-opacity:1"
       id="path4577"
       inkscape:connector-curvature="0" /><g
       id="g4579"><g
         id="g4581"
         clip-path="url(#clipPath4585)"><text
           transform="matrix(1,0,0,-1,219.65,121.98)"
           style="font-variant:normal;font-weight:normal;font-size:8.25px;font-family:Calibri;-inkscape-font-specification:Calibri;writing-mode:lr-tb;fill:#feffff;fill-opacity:1;fill-rule:nonzero;stroke:none"
           id="text4589"><tspan
             x="0 3.7785001 9.0419998 10.56825 15.081 19.59375 21.120001 25.63275 27.90975 30.9375"
             y="0"
             sodipodi:role="line"
             id="tspan4587">2D Points </tspan></text>
</g></g><g
       id="g4591"><g
         id="g4593"
         clip-path="url(#clipPath4597)"><text
           transform="matrix(1,0,0,-1,207.33,112.37)"
           style="font-variant:normal;font-weight:normal;font-size:8.27499962px;font-family:Calibri;-inkscape-font-specification:Calibri;writing-mode:lr-tb;fill:#feffff;fill-opacity:1;fill-rule:nonzero;stroke:none"
           id="text4601"><tspan
             x="0 4.4933252 5.9910998 9.7313995 13.479975 14.97775 17.220276 20.2241 24.717424 29.210751 31.46155 35.954876 37.452648 41.945976 45.69455 48.690102 52.438675"
             y="0"
             sodipodi:role="line"
             id="tspan4599">pixel coordinates</tspan></text>
</g></g><g
       id="g4603"><g
         id="g4605"
         clip-path="url(#clipPath4609)"><text
           transform="matrix(1,0,0,-1,213.53,102.65)"
           style="font-variant:normal;font-weight:normal;font-size:8.25px;font-family:'Courier New';-inkscape-font-specification:CourierNewPSMT;writing-mode:lr-tb;fill:#feffff;fill-opacity:1;fill-rule:nonzero;stroke:none"
           id="text4613"><tspan
             x="0 4.5209999 9.7845001 14.3055 19.569 24.09 28.611 33.8745 38.3955"
             y="0"
             sodipodi:role="line"
             id="tspan4611">points_2D</tspan></text>
</g></g><path
       d="M 29.096,177.55 64.53,198.81 99.963,177.55 64.53,156.29 Z"
       style="fill:#3d64ac;fill-opacity:1;fill-rule:evenodd;stroke:none"
       id="path4615"
       inkscape:connector-curvature="0" /><path
       d="M 29.096,177.55 64.53,198.81 99.963,177.55 64.53,156.29 Z"
       style="fill:none;stroke:#31528f;stroke-width:0.75;stroke-linecap:square;stroke-linejoin:miter;stroke-miterlimit:2;stroke-dasharray:none;stroke-opacity:1"
       id="path4617"
       inkscape:connector-curvature="0" /><g
       id="g4619"><g
         id="g4621"
         clip-path="url(#clipPath4625)"><text
           transform="matrix(1,0,0,-1,51.05,179.45)"
           style="font-variant:normal;font-weight:normal;font-size:8.27499962px;font-family:Calibri;-inkscape-font-specification:Calibri;writing-mode:lr-tb;fill:#feffff;fill-opacity:1;fill-rule:nonzero;stroke:none"
           id="text4629"><tspan
             x="0 3.748575 8.2419004 10.4927 16.483801 20.232374 23.227924"
             y="0"
             sodipodi:role="line"
             id="tspan4627">Forward</tspan></text>
</g></g><g
       id="g4631"><g
         id="g4633"
         clip-path="url(#clipPath4637)"><text
           transform="matrix(1,0,0,-1,47.975,169.83)"
           style="font-variant:normal;font-weight:normal;font-size:8.25px;font-family:Calibri;-inkscape-font-specification:Calibri;writing-mode:lr-tb;fill:#feffff;fill-opacity:1;fill-rule:nonzero;stroke:none"
           id="text4641"><tspan
             x="0 4.4879999 6.7402501 11.22825 12.72975 17.217751 20.220751 23.2155 24.716999 29.205"
             y="0"
             sodipodi:role="line"
             id="tspan4639">Projection</tspan></text>
</g></g><path
       d="m 114.14,156.29 h 70.866 v 42.52 H 114.14 Z"
       style="fill:#c55a11;fill-opacity:1;fill-rule:evenodd;stroke:none"
       id="path4643"
       inkscape:connector-curvature="0" /><path
       d="m 114.14,156.29 h 70.866 v 42.52 H 114.14 Z"
       style="fill:none;stroke:#833c0b;stroke-width:0.25;stroke-linecap:square;stroke-linejoin:miter;stroke-miterlimit:2;stroke-dasharray:none;stroke-opacity:1"
       id="path4645"
       inkscape:connector-curvature="0" /><g
       id="g4647"><g
         id="g4649"
         clip-path="url(#clipPath4653)"><text
           transform="matrix(1,0,0,-1,124.05,184.25)"
           style="font-variant:normal;font-weight:normal;font-size:8.25px;font-family:Calibri;-inkscape-font-specification:Calibri;writing-mode:lr-tb;fill:#feffff;fill-opacity:1;fill-rule:nonzero;stroke:none"
           id="text4657"><tspan
             x="0"
             y="0"
             id="tspan4655">B</tspan></text>
</g></g><g
       id="g4659"><g
         id="g4661"
         clip-path="url(#clipPath4665)"><text
           transform="matrix(1,0,0,-1,128.4,184.25)"
           style="font-variant:normal;font-weight:normal;font-size:8.25px;font-family:Calibri;-inkscape-font-specification:Calibri;writing-mode:lr-tb;fill:#feffff;fill-opacity:1;fill-rule:nonzero;stroke:none"
           id="text4669"><tspan
             x="0"
             y="0"
             id="tspan4667">-</tspan></text>
</g></g><g
       id="g4671"><g
         id="g4673"
         clip-path="url(#clipPath4677)"><text
           transform="matrix(1,0,0,-1,130.85,184.25)"
           style="font-variant:normal;font-weight:normal;font-size:8.25px;font-family:Calibri;-inkscape-font-specification:Calibri;writing-mode:lr-tb;fill:#feffff;fill-opacity:1;fill-rule:nonzero;stroke:none"
           id="text4681"><tspan
             x="0 3.7867501 8.2912502 9.7927504 11.29425 15.807 19.585501 21.85425 24.882 29.394751 33.173248 36.192749 39.21225 42.990749 45.259499"
             y="0"
             sodipodi:role="line"
             id="tspan4679">Spline control </tspan></text>
</g></g><g
       id="g4683"><g
         id="g4685"
         clip-path="url(#clipPath4689)"><text
           transform="matrix(1,0,0,-1,139.77,174.65)"
           style="font-variant:normal;font-weight:normal;font-size:8.27499962px;font-family:Calibri;-inkscape-font-specification:Calibri;writing-mode:lr-tb;fill:#feffff;fill-opacity:1;fill-rule:nonzero;stroke:none"
           id="text4693"><tspan
             x="0 4.5181499 8.2915497 10.534075 14.307475 17.32785"
             y="0"
             sodipodi:role="line"
             id="tspan4691">points</tspan></text>
</g></g><g
       id="g4695"><g
         id="g4697"
         clip-path="url(#clipPath4701)"><text
           transform="matrix(1,0,0,-1,123.47,165.02)"
           style="font-variant:normal;font-weight:normal;font-size:8.25px;font-family:'Courier New';-inkscape-font-specification:CourierNewPSMT;writing-mode:lr-tb;fill:#feffff;fill-opacity:1;fill-rule:nonzero;stroke:none"
           id="text4705"><tspan
             x="0 4.4962502 9.7349997 14.23125 19.469999 23.966249 28.4625 33.701248 38.197498 43.436249 47.932499"
             y="0"
             sodipodi:role="line"
             id="tspan4703">spline_grid</tspan></text>
</g></g><path
       d="M 64.53,292.08 V 273.82"
       style="fill:none;stroke:#4672c4;stroke-width:1;stroke-linecap:round;stroke-linejoin:round;stroke-miterlimit:2;stroke-dasharray:none;stroke-opacity:1"
       id="path4707"
       inkscape:connector-curvature="0" /><path
       d="m 68.05,274.7 -3.52,-7.04 -3.52,7.04 z"
       style="fill:#4672c4;fill-opacity:1;fill-rule:evenodd;stroke:none"
       id="path4709"
       inkscape:connector-curvature="0" /><path
       d="m 114.14,432.12 h -8.02"
       style="fill:none;stroke:#70ad47;stroke-width:1;stroke-linecap:round;stroke-linejoin:round;stroke-miterlimit:2;stroke-dasharray:none;stroke-opacity:1"
       id="path4711"
       inkscape:connector-curvature="0" /><path
       d="m 107,428.6 -7.037,3.52 7.037,3.52 z"
       style="fill:#70ad47;fill-opacity:1;fill-rule:evenodd;stroke:none"
       id="path4713"
       inkscape:connector-curvature="0" /><path
       d="m 64.53,222.77 v -17.8"
       style="fill:none;stroke:#4672c4;stroke-width:1;stroke-linecap:round;stroke-linejoin:round;stroke-miterlimit:2;stroke-dasharray:none;stroke-opacity:1"
       id="path4715"
       inkscape:connector-curvature="0" /><path
       d="m 68.05,205.85 -3.52,-7.04 -3.52,7.04 z"
       style="fill:#4672c4;fill-opacity:1;fill-rule:evenodd;stroke:none"
       id="path4717"
       inkscape:connector-curvature="0" /><g
       id="g4719"><path
         d="m 136.81,115.3 c 0,7.04 5.71,12.75 12.76,12.75 7.04,0 12.75,-5.71 12.75,-12.75 0,-7.05 -5.71,-12.76 -12.75,-12.76 -7.05,0 -12.76,5.71 -12.76,12.76 z"
         style="fill:url(#linearGradient4735);fill-opacity:1;fill-rule:evenodd;stroke:none"
         id="path4737"
         inkscape:connector-curvature="0" /></g><path
       d="m 136.81,115.3 c 0,7.04 5.71,12.75 12.76,12.75 7.04,0 12.75,-5.71 12.75,-12.75 0,-7.05 -5.71,-12.76 -12.75,-12.76 -7.05,0 -12.76,5.71 -12.76,12.76 z"
       style="fill:none;stroke:#3d64ac;stroke-width:0.75;stroke-linecap:square;stroke-linejoin:miter;stroke-miterlimit:2;stroke-dasharray:none;stroke-opacity:1"
       id="path4739"
       inkscape:connector-curvature="0" /><g
       id="g4741"><g
         id="g4743"
         clip-path="url(#clipPath4747)"><text
           transform="matrix(1,0,0,-1,146.45,110.5)"
           style="font-variant:normal;font-weight:normal;font-size:14.27499962px;font-family:Calibri;-inkscape-font-specification:Calibri;writing-mode:lr-tb;fill:#3d64ac;fill-opacity:1;fill-rule:nonzero;stroke:none"
           id="text4751"><tspan
             x="0"
             y="0"
             id="tspan4749">รท</tspan></text>
</g></g><g
       id="g4753"><g
         id="g4755"
         clip-path="url(#clipPath4759)" /></g><path
       d="m 199.18,115.3 h -30.7"
       style="fill:none;stroke:#4672c4;stroke-width:1;stroke-linecap:round;stroke-linejoin:round;stroke-miterlimit:2;stroke-dasharray:none;stroke-opacity:1"
       id="path4761"
       inkscape:connector-curvature="0" /><path
       d="m 169.36,111.78 -7.04,3.52 7.04,3.52 z"
       style="fill:#4672c4;fill-opacity:1;fill-rule:evenodd;stroke:none"
       id="path4763"
       inkscape:connector-curvature="0" /><path
       d="M 149.57,102.54 V 62.985"
       style="fill:none;stroke:#4672c4;stroke-width:1;stroke-linecap:round;stroke-linejoin:round;stroke-miterlimit:2;stroke-dasharray:none;stroke-opacity:1"
       id="path4765"
       inkscape:connector-curvature="0" /><path
       d="m 153.09,63.865 -3.52,-7.039 -3.52,7.039 z"
       style="fill:#4672c4;fill-opacity:1;fill-rule:evenodd;stroke:none"
       id="path4767"
       inkscape:connector-curvature="0" /><path
       d="m 46.104,98.318 h 36.851 c 9.393,0 17.008,7.612 17.008,17.012 0,9.39 -7.615,17 -17.008,17 H 46.104 c -9.393,0 -17.008,-7.61 -17.008,-17 0,-9.4 7.615,-17.012 17.008,-17.012 z"
       style="fill:#3d64ac;fill-opacity:1;fill-rule:evenodd;stroke:none"
       id="path4769"
       inkscape:connector-curvature="0" /><path
       d="m 46.104,98.318 h 36.851 c 9.393,0 17.008,7.612 17.008,17.012 0,9.39 -7.615,17 -17.008,17 H 46.104 c -9.393,0 -17.008,-7.61 -17.008,-17 0,-9.4 7.615,-17.012 17.008,-17.012 z"
       style="fill:none;stroke:#31528f;stroke-width:0.75;stroke-linecap:square;stroke-linejoin:miter;stroke-miterlimit:2;stroke-dasharray:none;stroke-opacity:1"
       id="path4771"
       inkscape:connector-curvature="0" /><g
       id="g4773"><g
         id="g4775"
         clip-path="url(#clipPath4779)"><text
           transform="matrix(1,0,0,-1,36.85,122.02)"
           style="font-variant:normal;font-weight:normal;font-size:8.27499962px;font-family:Calibri;-inkscape-font-specification:Calibri;writing-mode:lr-tb;fill:#feffff;fill-opacity:1;fill-rule:nonzero;stroke:none"
           id="text4783"><tspan
             x="0 4.5181499 6.0159249 9.7810497 13.55445 15.052225 17.29475 20.3234 24.841551 29.359699 31.6105 36.128651 37.626427 42.144573 45.917976 48.938351 52.71175 55.740398"
             y="0"
             sodipodi:role="line"
             id="tspan4781">Pixel coordinates </tspan></text>
</g></g><g
       id="g4785"><g
         id="g4787"
         clip-path="url(#clipPath4791)"><text
           transform="matrix(1,0,0,-1,33.375,112.4)"
           style="font-variant:normal;font-weight:normal;font-size:8.25px;font-family:Calibri;-inkscape-font-specification:Calibri;writing-mode:lr-tb;fill:#feffff;fill-opacity:1;fill-rule:nonzero;stroke:none"
           id="text4795"><tspan
             x="0 2.25225 5.2470002 9.7349997 15.73275 17.976749 20.97975 24.7335 31.498501 35.252251 38.247002 42.000751 47.998501 52.4865 56.974499 60.728249"
             y="0"
             sodipodi:role="line"
             id="tspan4793">from cameramodel</tspan></text>
</g></g><g
       id="g4797"><g
         id="g4799"
         clip-path="url(#clipPath4803)"><text
           transform="matrix(1,0,0,-1,35.825,102.67)"
           style="font-variant:normal;font-weight:normal;font-size:8.25px;font-family:'Courier New';-inkscape-font-specification:CourierNewPSMT;writing-mode:lr-tb;fill:#feffff;fill-opacity:1;fill-rule:nonzero;stroke:none"
           id="text4807"><tspan
             x="0 4.4962502 9.7349997 14.23125 19.469999 23.966249 28.4625 33.701248 38.197498 43.436249 47.932499 52.428749"
             y="0"
             sodipodi:role="line"
             id="tspan4805">model_points</tspan></text>
</g></g><path
       d="m 99.963,115.33 h 21.257 v -0.03 h 9.43"
       style="fill:none;stroke:#4672c4;stroke-width:1;stroke-linecap:round;stroke-linejoin:round;stroke-miterlimit:2;stroke-dasharray:none;stroke-opacity:1"
       id="path4809"
       inkscape:connector-curvature="0" /><path
       d="m 129.77,118.82 7.04,-3.52 -7.04,-3.52 z"
       style="fill:#4672c4;fill-opacity:1;fill-rule:evenodd;stroke:none"
       id="path4811"
       inkscape:connector-curvature="0" /><path
       d="m 64.53,156.29 v -17.8"
       style="fill:none;stroke:#4672c4;stroke-width:1;stroke-linecap:round;stroke-linejoin:round;stroke-miterlimit:2;stroke-dasharray:none;stroke-opacity:1"
       id="path4813"
       inkscape:connector-curvature="0" /><path
       d="m 68.05,139.37 -3.52,-7.04 -3.52,7.04 z"
       style="fill:#4672c4;fill-opacity:1;fill-rule:evenodd;stroke:none"
       id="path4815"
       inkscape:connector-curvature="0" /><path
       d="m 114.14,177.55 h -8.02"
       style="fill:none;stroke:#70ad47;stroke-width:1;stroke-linecap:round;stroke-linejoin:round;stroke-miterlimit:2;stroke-dasharray:none;stroke-opacity:1"
       id="path4817"
       inkscape:connector-curvature="0" /><path
       d="m 107,174.03 -7.037,3.52 7.037,3.52 z"
       style="fill:#70ad47;fill-opacity:1;fill-rule:evenodd;stroke:none"
       id="path4819"
       inkscape:connector-curvature="0" /></g></svg>