<?xml version="1.0" encoding="UTF-8" standalone="no"?>
<!-- Created with Inkscape (http://www.inkscape.org/) -->

<svg
   xmlns:dc="http://purl.org/dc/elements/1.1/"
   xmlns:cc="http://creativecommons.org/ns#"
   xmlns:rdf="http://www.w3.org/1999/02/22-rdf-syntax-ns#"
   xmlns:svg="http://www.w3.org/2000/svg"
   xmlns="http://www.w3.org/2000/svg"
   xmlns:sodipodi="http://sodipodi.sourceforge.net/DTD/sodipodi-0.dtd"
   xmlns:inkscape="http://www.inkscape.org/namespaces/inkscape"
   version="1.1"
   id="svg110"
   xml:space="preserve"
   width="323.20227"
   height="473.10266"
   viewBox="0 0 323.20227 473.10266"
   sodipodi:docname="Residual_Calculation_2.svg"
   inkscape:version="0.92.4 (5da689c313, 2019-01-14)"><metadata
     id="metadata116"><rdf:RDF><cc:Work
         rdf:about=""><dc:format>image/svg+xml</dc:format><dc:type
           rdf:resource="http://purl.org/dc/dcmitype/StillImage" /><dc:title></dc:title></cc:Work></rdf:RDF></metadata><defs
     id="defs114"><clipPath
       clipPathUnits="userSpaceOnUse"
       id="clipPath126"><path
         d="M 0,6.1035e-5 H 298.5 V 412.50006 H 0 Z"
         id="path124"
         inkscape:connector-curvature="0"
         style="clip-rule:evenodd" /></clipPath><clipPath
       clipPathUnits="userSpaceOnUse"
       id="clipPath140"><path
         d="M 4.448e-6,0 H 298.5 V 412.5 H 4.448e-6 Z"
         id="path138"
         inkscape:connector-curvature="0"
         style="clip-rule:evenodd" /></clipPath><clipPath
       clipPathUnits="userSpaceOnUse"
       id="clipPath152"><path
         d="M 4.448e-6,0 H 298.5 V 412.5 H 4.448e-6 Z"
         id="path150"
         inkscape:connector-curvature="0"
         style="clip-rule:evenodd" /></clipPath><clipPath
       clipPathUnits="userSpaceOnUse"
       id="clipPath168"><path
         d="M 4.448e-6,0 H 298.5 V 412.5 H 4.448e-6 Z"
         id="path166"
         inkscape:connector-curvature="0"
         style="clip-rule:evenodd" /></clipPath><clipPath
       clipPathUnits="userSpaceOnUse"
       id="clipPath180"><path
         d="M 4.448e-6,0 H 298.5 V 412.5 H 4.448e-6 Z"
         id="path178"
         inkscape:connector-curvature="0"
         style="clip-rule:evenodd" /></clipPath><clipPath
       clipPathUnits="userSpaceOnUse"
       id="clipPath192"><path
         d="M 4.448e-6,0 H 298.5 V 412.5 H 4.448e-6 Z"
         id="path190"
         inkscape:connector-curvature="0"
         style="clip-rule:evenodd" /></clipPath><clipPath
       clipPathUnits="userSpaceOnUse"
       id="clipPath204"><path
         d="M 4.448e-6,0 H 298.5 V 412.5 H 4.448e-6 Z"
         id="path202"
         inkscape:connector-curvature="0"
         style="clip-rule:evenodd" /></clipPath><clipPath
       clipPathUnits="userSpaceOnUse"
       id="clipPath216"><path
         d="M 4.448e-6,0 H 298.5 V 412.5 H 4.448e-6 Z"
         id="path214"
         inkscape:connector-curvature="0"
         style="clip-rule:evenodd" /></clipPath><clipPath
       clipPathUnits="userSpaceOnUse"
       id="clipPath232"><path
         d="M 4.448e-6,0 H 298.5 V 412.5 H 4.448e-6 Z"
         id="path230"
         inkscape:connector-curvature="0"
         style="clip-rule:evenodd" /></clipPath><clipPath
       clipPathUnits="userSpaceOnUse"
       id="clipPath248"><path
         d="M 4.448e-6,0 H 298.5 V 412.5 H 4.448e-6 Z"
         id="path246"
         inkscape:connector-curvature="0"
         style="clip-rule:evenodd" /></clipPath><clipPath
       clipPathUnits="userSpaceOnUse"
       id="clipPath260"><path
         d="M 4.448e-6,0 H 298.5 V 412.5 H 4.448e-6 Z"
         id="path258"
         inkscape:connector-curvature="0"
         style="clip-rule:evenodd" /></clipPath><clipPath
       clipPathUnits="userSpaceOnUse"
       id="clipPath276"><path
         d="M 4.448e-6,0 H 298.5 V 412.5 H 4.448e-6 Z"
         id="path274"
         inkscape:connector-curvature="0"
         style="clip-rule:evenodd" /></clipPath><clipPath
       clipPathUnits="userSpaceOnUse"
       id="clipPath292"><path
         d="M 4.448e-6,0 H 298.5 V 412.5 H 4.448e-6 Z"
         id="path290"
         inkscape:connector-curvature="0"
         style="clip-rule:evenodd" /></clipPath><clipPath
       clipPathUnits="userSpaceOnUse"
       id="clipPath304"><path
         d="M 4.448e-6,0 H 298.5 V 412.5 H 4.448e-6 Z"
         id="path302"
         inkscape:connector-curvature="0"
         style="clip-rule:evenodd" /></clipPath><clipPath
       clipPathUnits="userSpaceOnUse"
       id="clipPath316"><path
         d="M 4.448e-6,0 H 298.5 V 412.5 H 4.448e-6 Z"
         id="path314"
         inkscape:connector-curvature="0"
         style="clip-rule:evenodd" /></clipPath><clipPath
       clipPathUnits="userSpaceOnUse"
       id="clipPath328"><path
         d="M 4.448e-6,0 H 298.5 V 412.5 H 4.448e-6 Z"
         id="path326"
         inkscape:connector-curvature="0"
         style="clip-rule:evenodd" /></clipPath><clipPath
       clipPathUnits="userSpaceOnUse"
       id="clipPath356"><path
         d="M 4.448e-6,0 H 298.5 V 412.5 H 4.448e-6 Z"
         id="path354"
         inkscape:connector-curvature="0"
         style="clip-rule:evenodd" /></clipPath><clipPath
       clipPathUnits="userSpaceOnUse"
       id="clipPath372"><path
         d="M 4.448e-6,0 H 298.5 V 412.5 H 4.448e-6 Z"
         id="path370"
         inkscape:connector-curvature="0"
         style="clip-rule:evenodd" /></clipPath><clipPath
       clipPathUnits="userSpaceOnUse"
       id="clipPath384"><path
         d="M 4.448e-6,0 H 298.5 V 412.5 H 4.448e-6 Z"
         id="path382"
         inkscape:connector-curvature="0"
         style="clip-rule:evenodd" /></clipPath><clipPath
       clipPathUnits="userSpaceOnUse"
       id="clipPath396"><path
         d="M 4.448e-6,0 H 298.5 V 412.5 H 4.448e-6 Z"
         id="path394"
         inkscape:connector-curvature="0"
         style="clip-rule:evenodd" /></clipPath><clipPath
       clipPathUnits="userSpaceOnUse"
       id="clipPath412"><path
         d="M 4.448e-6,0 H 298.5 V 412.5 H 4.448e-6 Z"
         id="path410"
         inkscape:connector-curvature="0"
         style="clip-rule:evenodd" /></clipPath><clipPath
       clipPathUnits="userSpaceOnUse"
       id="clipPath424"><path
         d="M 4.448e-6,0 H 298.5 V 412.5 H 4.448e-6 Z"
         id="path422"
         inkscape:connector-curvature="0"
         style="clip-rule:evenodd" /></clipPath><clipPath
       clipPathUnits="userSpaceOnUse"
       id="clipPath440"><path
         d="M 4.448e-6,0 H 298.5 V 412.5 H 4.448e-6 Z"
         id="path438"
         inkscape:connector-curvature="0"
         style="clip-rule:evenodd" /></clipPath><clipPath
       clipPathUnits="userSpaceOnUse"
       id="clipPath452"><path
         d="M 4.448e-6,0 H 298.5 V 412.5 H 4.448e-6 Z"
         id="path450"
         inkscape:connector-curvature="0"
         style="clip-rule:evenodd" /></clipPath><clipPath
       clipPathUnits="userSpaceOnUse"
       id="clipPath468"><path
         d="M 4.448e-6,0 H 298.5 V 412.5 H 4.448e-6 Z"
         id="path466"
         inkscape:connector-curvature="0"
         style="clip-rule:evenodd" /></clipPath><clipPath
       clipPathUnits="userSpaceOnUse"
       id="clipPath480"><path
         d="M 4.448e-6,0 H 298.5 V 412.5 H 4.448e-6 Z"
         id="path478"
         inkscape:connector-curvature="0"
         style="clip-rule:evenodd" /></clipPath><clipPath
       clipPathUnits="userSpaceOnUse"
       id="clipPath492"><path
         d="M 4.448e-6,0 H 298.5 V 412.5 H 4.448e-6 Z"
         id="path490"
         inkscape:connector-curvature="0"
         style="clip-rule:evenodd" /></clipPath><clipPath
       clipPathUnits="userSpaceOnUse"
       id="clipPath504"><path
         d="M 4.448e-6,0 H 298.5 V 412.5 H 4.448e-6 Z"
         id="path502"
         inkscape:connector-curvature="0"
         style="clip-rule:evenodd" /></clipPath><clipPath
       clipPathUnits="userSpaceOnUse"
       id="clipPath516"><path
         d="M 4.448e-6,0 H 298.5 V 412.5 H 4.448e-6 Z"
         id="path514"
         inkscape:connector-curvature="0"
         style="clip-rule:evenodd" /></clipPath><linearGradient
       x1="123.43"
       y1="142.92"
       x2="158.28"
       y2="82.563004"
       gradientUnits="userSpaceOnUse"
       spreadMethod="pad"
       id="linearGradient558"><stop
         style="stop-opacity:1;stop-color:#feffff"
         offset="0"
         id="stop544" /><stop
         style="stop-opacity:1;stop-color:#feffff"
         offset="0.22941"
         id="stop546" /><stop
         style="stop-opacity:1;stop-color:#f4f5fa"
         offset="0.38039"
         id="stop548" /><stop
         style="stop-opacity:1;stop-color:#e9ebf5"
         offset="0.5"
         id="stop550" /><stop
         style="stop-opacity:1;stop-color:#f4f5fa"
         offset="0.61961"
         id="stop552" /><stop
         style="stop-opacity:1;stop-color:#feffff"
         offset="0.77059"
         id="stop554" /><stop
         style="stop-opacity:1;stop-color:#feffff"
         offset="1"
         id="stop556" /></linearGradient><clipPath
       clipPathUnits="userSpaceOnUse"
       id="clipPath570"><path
         d="M 4.448e-6,0 H 298.5 V 412.5 H 4.448e-6 Z"
         id="path568"
         inkscape:connector-curvature="0"
         style="clip-rule:evenodd" /></clipPath><clipPath
       clipPathUnits="userSpaceOnUse"
       id="clipPath582"><path
         d="M 4.448e-6,0 H 298.5 V 412.5 H 4.448e-6 Z"
         id="path580"
         inkscape:connector-curvature="0"
         style="clip-rule:evenodd" /></clipPath></defs><sodipodi:namedview
     pagecolor="#ffffff"
     bordercolor="#666666"
     borderopacity="1"
     objecttolerance="10"
     gridtolerance="10"
     guidetolerance="10"
     inkscape:pageopacity="0"
     inkscape:pageshadow="2"
     inkscape:window-width="1920"
     inkscape:window-height="1017"
     id="namedview112"
     showgrid="false"
     inkscape:zoom="0.42909091"
     inkscape:cx="-1564.9425"
     inkscape:cy="236.736"
     inkscape:window-x="1912"
     inkscape:window-y="-8"
     inkscape:window-maximized="1"
     inkscape:current-layer="g118" /><g
     id="g118"
     inkscape:groupmode="layer"
     inkscape:label="Residual_Calculation"
     transform="matrix(1.3333333,0,0,-1.3333333,-37.822827,511.36665)"><g
       id="g120"
       transform="translate(-1085.4343,-90.889833)"><g
         id="g122"
         clip-path="url(#clipPath126)"><path
           d="M 0,-0.023621 H 299.14 V 412.49638 H 0 Z"
           style="fill:none;stroke:#c8c8c8;stroke-width:0.25;stroke-linecap:square;stroke-linejoin:miter;stroke-miterlimit:10;stroke-dasharray:none;stroke-opacity:1"
           id="path128"
           inkscape:connector-curvature="0" /></g></g><path
       d="m 43.27,355.06 h 42.519 c 7.828,0 14.174,6.34 14.174,14.17 0,7.83 -6.346,14.17 -14.174,14.17 H 43.27 c -7.828,0 -14.174,-6.34 -14.174,-14.17 0,-7.83 6.346,-14.17 14.174,-14.17 z"
       style="fill:#538135;fill-opacity:1;fill-rule:evenodd;stroke:none"
       id="path130"
       inkscape:connector-curvature="0" /><path
       d="m 43.27,355.06 h 42.519 c 7.828,0 14.174,6.34 14.174,14.17 0,7.83 -6.346,14.17 -14.174,14.17 H 43.27 c -7.828,0 -14.174,-6.34 -14.174,-14.17 0,-7.83 6.346,-14.17 14.174,-14.17 z"
       style="fill:none;stroke:#c8c8c8;stroke-width:0.25;stroke-linecap:square;stroke-linejoin:miter;stroke-miterlimit:10;stroke-dasharray:none;stroke-opacity:1"
       id="path132"
       inkscape:connector-curvature="0" /><g
       id="g134"><g
         id="g136"
         clip-path="url(#clipPath140)"><text
           transform="matrix(1,0,0,-1,49.15,371.55)"
           style="font-variant:normal;font-weight:normal;font-size:8.25px;font-family:Calibri;-inkscape-font-specification:Calibri;writing-mode:lr-tb;fill:#feffff;fill-opacity:1;fill-rule:nonzero;stroke:none"
           id="text144"><tspan
             x="0 3.7785001 9.0419998 10.56825 15.081 19.59375 21.120001 25.63275 27.90975"
             y="0"
             sodipodi:role="line"
             id="tspan142">3D Points</tspan></text>
</g></g><g
       id="g146"><g
         id="g148"
         clip-path="url(#clipPath152)"><text
           transform="matrix(1,0,0,-1,34.5,361.92)"
           style="font-variant:normal;font-weight:normal;font-size:8.25px;font-family:Calibri;-inkscape-font-specification:Calibri;writing-mode:lr-tb;fill:#feffff;fill-opacity:1;fill-rule:nonzero;stroke:none"
           id="text156"><tspan
             x="0 2.25225 4.4962502 8.25 11.9955 15.74925 17.25075 19.494749 22.497749 26.98575 31.473749 33.726002 38.214001 39.7155 44.203499 47.957249 50.952 54.70575 57.708752"
             y="0"
             sodipodi:role="line"
             id="tspan154">(local coordinates)</tspan></text>
</g></g><path
       d="m 114.14,280.08 h 70.866 V 322.6 H 114.14 Z"
       style="fill:#c55a11;fill-opacity:1;fill-rule:evenodd;stroke:none"
       id="path158"
       inkscape:connector-curvature="0" /><path
       d="m 114.14,280.08 h 70.866 V 322.6 H 114.14 Z"
       style="fill:none;stroke:#833c0b;stroke-width:0.25;stroke-linecap:square;stroke-linejoin:miter;stroke-miterlimit:10;stroke-dasharray:none;stroke-opacity:1"
       id="path160"
       inkscape:connector-curvature="0" /><g
       id="g162"><g
         id="g164"
         clip-path="url(#clipPath168)"><text
           transform="matrix(1,0,0,-1,127.15,308.42)"
           style="font-variant:normal;font-weight:normal;font-size:8.27499962px;font-family:Calibri;-inkscape-font-specification:Calibri;writing-mode:lr-tb;fill:#feffff;fill-opacity:1;fill-rule:nonzero;stroke:none"
           id="text172"><tspan
             x="0 4.4933252 8.2419004 12.735225 15.73905 19.504175 23.2362 26.23175 30.725075 34.473652 38.222225 41.217773 45.711102"
             y="0"
             sodipodi:role="line"
             id="tspan170">Checkerboard </tspan></text>
</g></g><g
       id="g174"><g
         id="g176"
         clip-path="url(#clipPath180)"><text
           transform="matrix(1,0,0,-1,134.7,298.8)"
           style="font-variant:normal;font-weight:normal;font-size:8.27499962px;font-family:Calibri;-inkscape-font-specification:Calibri;writing-mode:lr-tb;fill:#feffff;fill-opacity:1;fill-rule:nonzero;stroke:none"
           id="text184"><tspan
             x="0 3.748575 7.4888749 9.7396746 12.735225 14.97775 18.726324 21.73015 23.972675 26.9765 30.716801"
             y="0"
             sodipodi:role="line"
             id="tspan182">extrinsics </tspan></text>
</g></g><g
       id="g186"><g
         id="g188"
         clip-path="url(#clipPath192)"><text
           transform="matrix(1,0,0,-1,129.15,289.08)"
           style="font-variant:normal;font-weight:normal;font-size:8.27499962px;font-family:'Courier New';-inkscape-font-specification:CourierNewPSMT;writing-mode:lr-tb;fill:#feffff;fill-opacity:1;fill-rule:nonzero;stroke:none"
           id="text196"><tspan
             x="0 4.5015998 9.7396746 14.241275"
             y="0"
             sodipodi:role="line"
             id="tspan194">rvec</tspan></text>
</g></g><g
       id="g198"><g
         id="g200"
         clip-path="url(#clipPath204)"><text
           transform="matrix(1,0,0,-1,148.4,289.08)"
           style="font-variant:normal;font-weight:normal;font-size:8.27499962px;font-family:Calibri;-inkscape-font-specification:Calibri;writing-mode:lr-tb;fill:#feffff;fill-opacity:1;fill-rule:nonzero;stroke:none"
           id="text208"><tspan
             x="0"
             y="0"
             id="tspan206">/</tspan></text>
</g></g><g
       id="g210"><g
         id="g212"
         clip-path="url(#clipPath216)"><text
           transform="matrix(1,0,0,-1,151.5,289.08)"
           style="font-variant:normal;font-weight:normal;font-size:8.27499962px;font-family:'Courier New';-inkscape-font-specification:CourierNewPSMT;writing-mode:lr-tb;fill:#feffff;fill-opacity:1;fill-rule:nonzero;stroke:none"
           id="text220"><tspan
             x="0 4.5015998 9.7396746 14.241275"
             y="0"
             sodipodi:role="line"
             id="tspan218">tvec</tspan></text>
</g></g><path
       d="M 29.096,301.34 64.53,322.6 99.963,301.34 64.53,280.08 Z"
       style="fill:#3d64ac;fill-opacity:1;fill-rule:evenodd;stroke:none"
       id="path222"
       inkscape:connector-curvature="0" /><path
       d="M 29.096,301.34 64.53,322.6 99.963,301.34 64.53,280.08 Z"
       style="fill:none;stroke:#31528f;stroke-width:0.75;stroke-linecap:square;stroke-linejoin:miter;stroke-miterlimit:10;stroke-dasharray:none;stroke-opacity:1"
       id="path224"
       inkscape:connector-curvature="0" /><g
       id="g226"><g
         id="g228"
         clip-path="url(#clipPath232)"><text
           transform="matrix(1,0,0,-1,39.4,298.73)"
           style="font-variant:normal;font-weight:normal;font-size:8.27499962px;font-family:Calibri;-inkscape-font-specification:Calibri;writing-mode:lr-tb;fill:#feffff;fill-opacity:1;fill-rule:nonzero;stroke:none"
           id="text236"><tspan
             x="0 3.748575 6.7441249 10.4927 14.986025 17.989849 20.24065 24.733974 26.984776 33.753723 37.5023 40.497849 41.995625 46.488949"
             y="0"
             sodipodi:role="line"
             id="tspan234">Transformation</tspan></text>
</g></g><path
       d="m 43.27,219.27 h 42.519 c 7.828,0 14.174,6.34 14.174,14.17 0,7.83 -6.346,14.17 -14.174,14.17 H 43.27 c -7.828,0 -14.174,-6.34 -14.174,-14.17 0,-7.83 6.346,-14.17 14.174,-14.17 z"
       style="fill:#3d64ac;fill-opacity:1;fill-rule:evenodd;stroke:none"
       id="path238"
       inkscape:connector-curvature="0" /><path
       d="m 43.27,219.27 h 42.519 c 7.828,0 14.174,6.34 14.174,14.17 0,7.83 -6.346,14.17 -14.174,14.17 H 43.27 c -7.828,0 -14.174,-6.34 -14.174,-14.17 0,-7.83 6.346,-14.17 14.174,-14.17 z"
       style="fill:none;stroke:#31528f;stroke-width:0.75;stroke-linecap:square;stroke-linejoin:miter;stroke-miterlimit:10;stroke-dasharray:none;stroke-opacity:1"
       id="path240"
       inkscape:connector-curvature="0" /><g
       id="g242"><g
         id="g244"
         clip-path="url(#clipPath248)"><text
           transform="matrix(1,0,0,-1,49.15,235.52)"
           style="font-variant:normal;font-weight:normal;font-size:8.27499962px;font-family:Calibri;-inkscape-font-specification:Calibri;writing-mode:lr-tb;fill:#feffff;fill-opacity:1;fill-rule:nonzero;stroke:none"
           id="text252"><tspan
             x="0 3.7734001 9.0362997 10.5589 15.07705 19.5952 21.1178 25.63595 27.911575"
             y="0"
             sodipodi:role="line"
             id="tspan250">3D Points</tspan></text>
</g></g><g
       id="g254"><g
         id="g256"
         clip-path="url(#clipPath260)"><text
           transform="matrix(1,0,0,-1,32.2,225.9)"
           style="font-variant:normal;font-weight:normal;font-size:8.27499962px;font-family:Calibri;-inkscape-font-specification:Calibri;writing-mode:lr-tb;fill:#feffff;fill-opacity:1;fill-rule:nonzero;stroke:none"
           id="text264"><tspan
             x="0 2.2507999 5.9993749 8.2419004 11.990475 16.483801 20.232374 21.73015 23.972675 26.9765 31.469826 35.96315 38.213951 42.707275 44.205051 48.698376 52.446949 55.442501 59.191074 62.194901"
             y="0"
             sodipodi:role="line"
             id="tspan262">(global coordinates)</tspan></text>
</g></g><path
       d="M 29.096,165.55 64.53,186.81 99.963,165.55 64.53,144.29 Z"
       style="fill:#3d64ac;fill-opacity:1;fill-rule:evenodd;stroke:none"
       id="path266"
       inkscape:connector-curvature="0" /><path
       d="M 29.096,165.55 64.53,186.81 99.963,165.55 64.53,144.29 Z"
       style="fill:none;stroke:#31528f;stroke-width:0.75;stroke-linecap:square;stroke-linejoin:miter;stroke-miterlimit:10;stroke-dasharray:none;stroke-opacity:1"
       id="path268"
       inkscape:connector-curvature="0" /><g
       id="g270"><g
         id="g272"
         clip-path="url(#clipPath276)"><text
           transform="matrix(1,0,0,-1,41.625,162.68)"
           style="font-variant:normal;font-weight:normal;font-size:8.25px;font-family:Calibri;-inkscape-font-specification:Calibri;writing-mode:lr-tb;fill:#feffff;fill-opacity:1;fill-rule:nonzero;stroke:none"
           id="text280"><tspan
             x="0 5.27175 9.7845001 12.0615 18.8265 22.605 24.13125 26.4 29.42775 33.206249 36.22575 37.751999 42.264751"
             y="0"
             sodipodi:role="line"
             id="tspan278">Normalization</tspan></text>
</g></g><path
       d="m 46.813,74.976 h 35.433 c 9.785,0 17.717,10.153 17.717,22.677 0,12.527 -7.932,22.677 -17.717,22.677 H 46.813 c -9.785,0 -17.717,-10.15 -17.717,-22.677 0,-12.524 7.932,-22.677 17.717,-22.677 z"
       style="fill:#3d64ac;fill-opacity:1;fill-rule:evenodd;stroke:none"
       id="path282"
       inkscape:connector-curvature="0" /><path
       d="m 46.813,74.976 h 35.433 c 9.785,0 17.717,10.153 17.717,22.677 0,12.527 -7.932,22.677 -17.717,22.677 H 46.813 c -9.785,0 -17.717,-10.15 -17.717,-22.677 0,-12.524 7.932,-22.677 17.717,-22.677 z"
       style="fill:none;stroke:#31528f;stroke-width:0.75;stroke-linecap:square;stroke-linejoin:miter;stroke-miterlimit:10;stroke-dasharray:none;stroke-opacity:1"
       id="path284"
       inkscape:connector-curvature="0" /><g
       id="g286"><g
         id="g288"
         clip-path="url(#clipPath292)"><text
           transform="matrix(1,0,0,-1,35.325,109.17)"
           style="font-variant:normal;font-weight:normal;font-size:8.27499962px;font-family:Calibri;-inkscape-font-specification:Calibri;writing-mode:lr-tb;fill:#feffff;fill-opacity:1;fill-rule:nonzero;stroke:none"
           id="text296"><tspan
             x="0 4.4933252 8.2501755 11.99875 15.002575 16.500351 19.495899 21.7467 26.240025 32.264225 34.506748 37.510574 41.259151 48.028099 51.776676 54.772224 58.520802"
             y="0"
             sodipodi:role="line"
             id="tspan294">Rays from camera </tspan></text>
</g></g><g
       id="g298"><g
         id="g300"
         clip-path="url(#clipPath304)"><text
           transform="matrix(1,0,0,-1,54.15,99.55)"
           style="font-variant:normal;font-weight:normal;font-size:8.27499962px;font-family:Calibri;-inkscape-font-specification:Calibri;writing-mode:lr-tb;fill:#feffff;fill-opacity:1;fill-rule:nonzero;stroke:none"
           id="text308"><tspan
             x="0 3.765125 7.5385251 11.311925 14.3323 18.1057"
             y="0"
             sodipodi:role="line"
             id="tspan306">center</tspan></text>
</g></g><g
       id="g310"><g
         id="g312"
         clip-path="url(#clipPath316)"><text
           transform="matrix(1,0,0,-1,33.4,89.925)"
           style="font-variant:normal;font-weight:normal;font-size:8.25px;font-family:'Courier New';-inkscape-font-specification:CourierNewPSMT;writing-mode:lr-tb;fill:#feffff;fill-opacity:1;fill-rule:nonzero;stroke:none"
           id="text320"><tspan
             x="0 4.5209999 9.7845001 14.3055 19.569 24.09 28.611 33.8745 38.3955 43.659 48.18 52.701 57.9645"
             y="0"
             sodipodi:role="line"
             id="tspan318">forward_proje</tspan></text>
</g></g><g
       id="g322"><g
         id="g324"
         clip-path="url(#clipPath328)"><text
           transform="matrix(1,0,0,-1,43.025,80.2)"
           style="font-variant:normal;font-weight:normal;font-size:8.25px;font-family:'Courier New';-inkscape-font-specification:CourierNewPSMT;writing-mode:lr-tb;fill:#feffff;fill-opacity:1;fill-rule:nonzero;stroke:none"
           id="text332"><tspan
             x="0 4.5209999 9.7845001 14.3055 19.569 24.09 28.611 33.8745 38.3955"
             y="0"
             sodipodi:role="line"
             id="tspan330">cted_rays</tspan></text>
</g></g><path
       d="m 64.53,355.06 v -26.3"
       style="fill:none;stroke:#4672c4;stroke-width:1;stroke-linecap:round;stroke-linejoin:round;stroke-miterlimit:10;stroke-dasharray:none;stroke-opacity:1"
       id="path334"
       inkscape:connector-curvature="0" /><path
       d="m 68.05,329.64 -3.52,-7.04 -3.52,7.04 z"
       style="fill:#4672c4;fill-opacity:1;fill-rule:evenodd;stroke:none"
       id="path336"
       inkscape:connector-curvature="0" /><path
       d="M 64.53,280.08 V 253.77"
       style="fill:none;stroke:#4672c4;stroke-width:1;stroke-linecap:round;stroke-linejoin:round;stroke-miterlimit:10;stroke-dasharray:none;stroke-opacity:1"
       id="path338"
       inkscape:connector-curvature="0" /><path
       d="m 68.05,254.65 -3.52,-7.04 -3.52,7.04 z"
       style="fill:#4672c4;fill-opacity:1;fill-rule:evenodd;stroke:none"
       id="path340"
       inkscape:connector-curvature="0" /><path
       d="m 64.53,219.27 v -26.3"
       style="fill:none;stroke:#4672c4;stroke-width:1;stroke-linecap:round;stroke-linejoin:round;stroke-miterlimit:10;stroke-dasharray:none;stroke-opacity:1"
       id="path342"
       inkscape:connector-curvature="0" /><path
       d="m 68.05,193.85 -3.52,-7.04 -3.52,7.04 z"
       style="fill:#4672c4;fill-opacity:1;fill-rule:evenodd;stroke:none"
       id="path344"
       inkscape:connector-curvature="0" /><path
       d="m 128.31,29.073 h 42.52 c 7.83,0 14.17,6.345 14.17,14.173 0,7.828 -6.34,14.173 -14.17,14.173 h -42.52 c -7.83,0 -14.17,-6.345 -14.17,-14.173 0,-7.828 6.34,-14.173 14.17,-14.173 z"
       style="fill:#c55a11;fill-opacity:1;fill-rule:evenodd;stroke:none"
       id="path346"
       inkscape:connector-curvature="0" /><path
       d="m 128.31,29.073 h 42.52 c 7.83,0 14.17,6.345 14.17,14.173 0,7.828 -6.34,14.173 -14.17,14.173 h -42.52 c -7.83,0 -14.17,-6.345 -14.17,-14.173 0,-7.828 6.34,-14.173 14.17,-14.173 z"
       style="fill:none;stroke:#833c0b;stroke-width:0.75;stroke-linecap:square;stroke-linejoin:miter;stroke-miterlimit:2;stroke-dasharray:none;stroke-opacity:1"
       id="path348"
       inkscape:connector-curvature="0" /><g
       id="g350"><g
         id="g352"
         clip-path="url(#clipPath356)"><text
           transform="matrix(1,0,0,-1,130.83,40.15)"
           style="font-variant:normal;font-weight:normal;font-size:8.25px;font-family:Calibri;-inkscape-font-specification:Calibri;writing-mode:lr-tb;fill:#feffff;fill-opacity:1;fill-rule:nonzero;stroke:none"
           id="text360"><tspan
             x="0 3.7537501 8.9925003 10.494 14.97375 18.743999 22.4895 23.990999 28.479 32.23275 35.9865"
             y="0"
             sodipodi:role="line"
             id="tspan358">3D Residual</tspan></text>
</g></g><path
       d="m 216.18,80.645 h 36.85 c 9.4,0 17.01,7.615 17.01,17.008 0,9.397 -7.61,17.007 -17.01,17.007 h -36.85 c -9.39,0 -17,-7.61 -17,-17.007 0,-9.393 7.61,-17.008 17,-17.008 z"
       style="fill:#3d64ac;fill-opacity:1;fill-rule:evenodd;stroke:none"
       id="path362"
       inkscape:connector-curvature="0" /><path
       d="m 216.18,80.645 h 36.85 c 9.4,0 17.01,7.615 17.01,17.008 0,9.397 -7.61,17.007 -17.01,17.007 h -36.85 c -9.39,0 -17,-7.61 -17,-17.007 0,-9.393 7.61,-17.008 17,-17.008 z"
       style="fill:none;stroke:#31528f;stroke-width:0.75;stroke-linecap:square;stroke-linejoin:miter;stroke-miterlimit:2;stroke-dasharray:none;stroke-opacity:1"
       id="path364"
       inkscape:connector-curvature="0" /><g
       id="g366"><g
         id="g368"
         clip-path="url(#clipPath372)"><text
           transform="matrix(1,0,0,-1,218.85,104.35)"
           style="font-variant:normal;font-weight:normal;font-size:8.25px;font-family:Calibri;-inkscape-font-specification:Calibri;writing-mode:lr-tb;fill:#feffff;fill-opacity:1;fill-rule:nonzero;stroke:none"
           id="text376"><tspan
             x="0 4.5127501 8.2912502 12.0615 15.08925 16.615499 19.635 21.912001 26.424749 32.44725"
             y="0"
             sodipodi:role="line"
             id="tspan374">Rays from </tspan></text>
</g></g><g
       id="g378"><g
         id="g380"
         clip-path="url(#clipPath384)"><text
           transform="matrix(1,0,0,-1,212.8,94.75)"
           style="font-variant:normal;font-weight:normal;font-size:8.27499962px;font-family:Calibri;-inkscape-font-specification:Calibri;writing-mode:lr-tb;fill:#feffff;fill-opacity:1;fill-rule:nonzero;stroke:none"
           id="text388"><tspan
             x="0 4.5181499 8.2667246 12.784875 15.035675 18.031225 21.7798 23.277575 30.791275 34.539848 39.057999 42.806576"
             y="0"
             sodipodi:role="line"
             id="tspan386">CentralModel</tspan></text>
</g></g><g
       id="g390"><g
         id="g392"
         clip-path="url(#clipPath396)"><text
           transform="matrix(1,0,0,-1,211.13,85.025)"
           style="font-variant:normal;font-weight:normal;font-size:8.27499962px;font-family:'Courier New';-inkscape-font-specification:CourierNewPSMT;writing-mode:lr-tb;fill:#feffff;fill-opacity:1;fill-rule:nonzero;stroke:none"
           id="text400"><tspan
             x="0 4.5264249 9.7893248 14.31575 19.57865 24.105076 28.6315 33.894402 38.420826 43.683723"
             y="0"
             sodipodi:role="line"
             id="tspan398">model_rays</tspan></text>
</g></g><path
       d="m 213.35,219.27 h 42.52 c 7.83,0 14.17,6.34 14.17,14.17 0,7.83 -6.34,14.17 -14.17,14.17 h -42.52 c -7.83,0 -14.17,-6.34 -14.17,-14.17 0,-7.83 6.34,-14.17 14.17,-14.17 z"
       style="fill:#538135;fill-opacity:1;fill-rule:evenodd;stroke:none"
       id="path402"
       inkscape:connector-curvature="0" /><path
       d="m 213.35,219.27 h 42.52 c 7.83,0 14.17,6.34 14.17,14.17 0,7.83 -6.34,14.17 -14.17,14.17 h -42.52 c -7.83,0 -14.17,-6.34 -14.17,-14.17 0,-7.83 6.34,-14.17 14.17,-14.17 z"
       style="fill:none;stroke:#c8c8c8;stroke-width:0.25;stroke-linecap:square;stroke-linejoin:miter;stroke-miterlimit:2;stroke-dasharray:none;stroke-opacity:1"
       id="path404"
       inkscape:connector-curvature="0" /><g
       id="g406"><g
         id="g408"
         clip-path="url(#clipPath412)"><text
           transform="matrix(1,0,0,-1,207.15,235.52)"
           style="font-variant:normal;font-weight:normal;font-size:8.27499962px;font-family:Calibri;-inkscape-font-specification:Calibri;writing-mode:lr-tb;fill:#feffff;fill-opacity:1;fill-rule:nonzero;stroke:none"
           id="text416"><tspan
             x="0 3.748575 8.9866505 10.484425 14.97775 19.471075 20.968849 25.462175 27.712975 30.716801 32.959324 34.4571 38.950424 40.4482 44.941525 46.439301 50.1796 53.928177 56.1707"
             y="0"
             sodipodi:role="line"
             id="tspan414">2D Points in pixel </tspan></text>
</g></g><g
       id="g418"><g
         id="g420"
         clip-path="url(#clipPath424)"><text
           transform="matrix(1,0,0,-1,215.9,225.9)"
           style="font-variant:normal;font-weight:normal;font-size:8.27499962px;font-family:Calibri;-inkscape-font-specification:Calibri;writing-mode:lr-tb;fill:#feffff;fill-opacity:1;fill-rule:nonzero;stroke:none"
           id="text428"><tspan
             x="0 3.765125 7.5385251 12.056675 14.307475 18.825624 21.06815 24.841551 28.61495 31.635324 35.408726"
             y="0"
             sodipodi:role="line"
             id="tspan426">coordinates</tspan></text>
</g></g><path
       d="m 199.18,165.55 35.43,21.26 35.43,-21.26 -35.43,-21.26 z"
       style="fill:#3d64ac;fill-opacity:1;fill-rule:evenodd;stroke:none"
       id="path430"
       inkscape:connector-curvature="0" /><path
       d="m 199.18,165.55 35.43,21.26 35.43,-21.26 -35.43,-21.26 z"
       style="fill:none;stroke:#31528f;stroke-width:0.75;stroke-linecap:square;stroke-linejoin:miter;stroke-miterlimit:2;stroke-dasharray:none;stroke-opacity:1"
       id="path432"
       inkscape:connector-curvature="0" /><g
       id="g434"><g
         id="g436"
         clip-path="url(#clipPath440)"><text
           transform="matrix(1,0,0,-1,219.28,167.5)"
           style="font-variant:normal;font-weight:normal;font-size:8.27499962px;font-family:Calibri;-inkscape-font-specification:Calibri;writing-mode:lr-tb;fill:#feffff;fill-opacity:1;fill-rule:nonzero;stroke:none"
           id="text444"><tspan
             x="0 4.5015998 8.2749996 11.278825 15.04395 21.043325 24.791901 27.787451 31.536024"
             y="0"
             sodipodi:role="line"
             id="tspan442">Backward </tspan></text>
</g></g><g
       id="g446"><g
         id="g448"
         clip-path="url(#clipPath452)"><text
           transform="matrix(1,0,0,-1,218.42,157.88)"
           style="font-variant:normal;font-weight:normal;font-size:8.25px;font-family:Calibri;-inkscape-font-specification:Calibri;writing-mode:lr-tb;fill:#feffff;fill-opacity:1;fill-rule:nonzero;stroke:none"
           id="text456"><tspan
             x="0 4.5127501 6.7897501 11.3025 13.57125 17.349751 20.377501 23.396999 24.92325 29.436001"
             y="0"
             sodipodi:role="line"
             id="tspan454">projection</tspan></text>
</g></g><path
       d="m 114.14,144.29 h 70.866 v 42.52 H 114.14 Z"
       style="fill:#c55a11;fill-opacity:1;fill-rule:evenodd;stroke:none"
       id="path458"
       inkscape:connector-curvature="0" /><path
       d="m 114.14,144.29 h 70.866 v 42.52 H 114.14 Z"
       style="fill:none;stroke:#833c0b;stroke-width:0.25;stroke-linecap:square;stroke-linejoin:miter;stroke-miterlimit:2;stroke-dasharray:none;stroke-opacity:1"
       id="path460"
       inkscape:connector-curvature="0" /><g
       id="g462"><g
         id="g464"
         clip-path="url(#clipPath468)"><text
           transform="matrix(1,0,0,-1,124.05,172.3)"
           style="font-variant:normal;font-weight:normal;font-size:8.25px;font-family:Calibri;-inkscape-font-specification:Calibri;writing-mode:lr-tb;fill:#feffff;fill-opacity:1;fill-rule:nonzero;stroke:none"
           id="text472"><tspan
             x="0"
             y="0"
             id="tspan470">B</tspan></text>
</g></g><g
       id="g474"><g
         id="g476"
         clip-path="url(#clipPath480)"><text
           transform="matrix(1,0,0,-1,128.4,172.3)"
           style="font-variant:normal;font-weight:normal;font-size:8.25px;font-family:Calibri;-inkscape-font-specification:Calibri;writing-mode:lr-tb;fill:#feffff;fill-opacity:1;fill-rule:nonzero;stroke:none"
           id="text484"><tspan
             x="0"
             y="0"
             id="tspan482">-</tspan></text>
</g></g><g
       id="g486"><g
         id="g488"
         clip-path="url(#clipPath492)"><text
           transform="matrix(1,0,0,-1,130.85,172.3)"
           style="font-variant:normal;font-weight:normal;font-size:8.25px;font-family:Calibri;-inkscape-font-specification:Calibri;writing-mode:lr-tb;fill:#feffff;fill-opacity:1;fill-rule:nonzero;stroke:none"
           id="text496"><tspan
             x="0 3.7867501 8.2912502 9.7927504 11.29425 15.807 19.585501 21.85425 24.882 29.394751 33.173248 36.192749 39.21225 42.990749 45.259499"
             y="0"
             sodipodi:role="line"
             id="tspan494">Spline control </tspan></text>
</g></g><g
       id="g498"><g
         id="g500"
         clip-path="url(#clipPath504)"><text
           transform="matrix(1,0,0,-1,139.77,162.68)"
           style="font-variant:normal;font-weight:normal;font-size:8.25px;font-family:Calibri;-inkscape-font-specification:Calibri;writing-mode:lr-tb;fill:#feffff;fill-opacity:1;fill-rule:nonzero;stroke:none"
           id="text508"><tspan
             x="0 4.5127501 8.2912502 10.53525 14.31375 17.33325"
             y="0"
             sodipodi:role="line"
             id="tspan506">points</tspan></text>
</g></g><g
       id="g510"><g
         id="g512"
         clip-path="url(#clipPath516)"><text
           transform="matrix(1,0,0,-1,123.47,153.07)"
           style="font-variant:normal;font-weight:normal;font-size:8.27499962px;font-family:'Courier New';-inkscape-font-specification:CourierNewPSMT;writing-mode:lr-tb;fill:#feffff;fill-opacity:1;fill-rule:nonzero;stroke:none"
           id="text520"><tspan
             x="0 4.5015998 9.7396746 14.241275 19.479349 23.980949 28.48255 33.720627 38.222225 43.4603 47.961899"
             y="0"
             sodipodi:role="line"
             id="tspan518">spline_grid</tspan></text>
</g></g><path
       d="m 234.61,219.27 v -26.3"
       style="fill:none;stroke:#4672c4;stroke-width:1;stroke-linecap:round;stroke-linejoin:round;stroke-miterlimit:2;stroke-dasharray:none;stroke-opacity:1"
       id="path522"
       inkscape:connector-curvature="0" /><path
       d="m 238.13,193.85 -3.52,-7.04 -3.52,7.04 z"
       style="fill:#4672c4;fill-opacity:1;fill-rule:evenodd;stroke:none"
       id="path524"
       inkscape:connector-curvature="0" /><path
       d="M 234.61,144.29 V 120.82"
       style="fill:none;stroke:#4672c4;stroke-width:1;stroke-linecap:round;stroke-linejoin:round;stroke-miterlimit:2;stroke-dasharray:none;stroke-opacity:1"
       id="path526"
       inkscape:connector-curvature="0" /><path
       d="m 238.13,121.7 -3.52,-7.04 -3.52,7.04 z"
       style="fill:#4672c4;fill-opacity:1;fill-rule:evenodd;stroke:none"
       id="path528"
       inkscape:connector-curvature="0" /><path
       d="m 64.53,144.29 v -17.8"
       style="fill:none;stroke:#4672c4;stroke-width:1;stroke-linecap:round;stroke-linejoin:round;stroke-miterlimit:2;stroke-dasharray:none;stroke-opacity:1"
       id="path530"
       inkscape:connector-curvature="0" /><path
       d="m 68.05,127.37 -3.52,-7.04 -3.52,7.04 z"
       style="fill:#4672c4;fill-opacity:1;fill-rule:evenodd;stroke:none"
       id="path532"
       inkscape:connector-curvature="0" /><path
       d="m 185,165.55 h 8.02"
       style="fill:none;stroke:#4672c4;stroke-width:1;stroke-linecap:round;stroke-linejoin:round;stroke-miterlimit:2;stroke-dasharray:none;stroke-opacity:1"
       id="path534"
       inkscape:connector-curvature="0" /><path
       d="m 192.14,169.07 7.04,-3.52 -7.04,-3.52 z"
       style="fill:#4672c4;fill-opacity:1;fill-rule:evenodd;stroke:none"
       id="path536"
       inkscape:connector-curvature="0" /><path
       d="m 114.14,301.34 h -8.02"
       style="fill:none;stroke:#4672c4;stroke-width:1;stroke-linecap:round;stroke-linejoin:round;stroke-miterlimit:2;stroke-dasharray:none;stroke-opacity:1"
       id="path538"
       inkscape:connector-curvature="0" /><path
       d="m 107,297.82 -7.037,3.52 7.037,3.52 z"
       style="fill:#4672c4;fill-opacity:1;fill-rule:evenodd;stroke:none"
       id="path540"
       inkscape:connector-curvature="0" /><g
       id="g542"><path
         d="m 136.81,97.653 c 0,7.047 5.71,12.757 12.76,12.757 7.04,0 12.75,-5.71 12.75,-12.757 0,-7.045 -5.71,-12.756 -12.75,-12.756 -7.05,0 -12.76,5.711 -12.76,12.756 z"
         style="fill:url(#linearGradient558);fill-opacity:1;fill-rule:evenodd;stroke:none"
         id="path560"
         inkscape:connector-curvature="0" /></g><path
       d="m 136.81,97.653 c 0,7.047 5.71,12.757 12.76,12.757 7.04,0 12.75,-5.71 12.75,-12.757 0,-7.045 -5.71,-12.756 -12.75,-12.756 -7.05,0 -12.76,5.711 -12.76,12.756 z"
       style="fill:none;stroke:#3d64ac;stroke-width:0.75;stroke-linecap:square;stroke-linejoin:miter;stroke-miterlimit:2;stroke-dasharray:none;stroke-opacity:1"
       id="path562"
       inkscape:connector-curvature="0" /><g
       id="g564"><g
         id="g566"
         clip-path="url(#clipPath570)"><text
           transform="matrix(1,0,0,-1,146.45,92.875)"
           style="font-variant:normal;font-weight:normal;font-size:14.30000019px;font-family:Calibri;-inkscape-font-specification:Calibri;writing-mode:lr-tb;fill:#3d64ac;fill-opacity:1;fill-rule:nonzero;stroke:none"
           id="text574"><tspan
             x="0"
             y="0"
             id="tspan572">รท</tspan></text>
</g></g><g
       id="g576"><g
         id="g578"
         clip-path="url(#clipPath582)" /></g><path
       d="M 99.963,97.653 H 130.65"
       style="fill:none;stroke:#4672c4;stroke-width:1;stroke-linecap:round;stroke-linejoin:round;stroke-miterlimit:2;stroke-dasharray:none;stroke-opacity:1"
       id="path584"
       inkscape:connector-curvature="0" /><path
       d="m 129.77,101.17 7.04,-3.517 -7.04,-3.52 z"
       style="fill:#4672c4;fill-opacity:1;fill-rule:evenodd;stroke:none"
       id="path586"
       inkscape:connector-curvature="0" /><path
       d="m 199.18,97.653 h -30.7"
       style="fill:none;stroke:#4672c4;stroke-width:1;stroke-linecap:round;stroke-linejoin:round;stroke-miterlimit:2;stroke-dasharray:none;stroke-opacity:1"
       id="path588"
       inkscape:connector-curvature="0" /><path
       d="m 169.36,94.133 -7.04,3.52 7.04,3.517 z"
       style="fill:#4672c4;fill-opacity:1;fill-rule:evenodd;stroke:none"
       id="path590"
       inkscape:connector-curvature="0" /><path
       d="M 149.57,84.897 V 63.579"
       style="fill:none;stroke:#4672c4;stroke-width:1;stroke-linecap:round;stroke-linejoin:round;stroke-miterlimit:2;stroke-dasharray:none;stroke-opacity:1"
       id="path592"
       inkscape:connector-curvature="0" /><path
       d="m 153.09,64.459 -3.52,-7.04 -3.52,7.04 z"
       style="fill:#4672c4;fill-opacity:1;fill-rule:evenodd;stroke:none"
       id="path594"
       inkscape:connector-curvature="0" /></g></svg>