<?xml version="1.0" encoding="UTF-8" standalone="no"?>
<!-- Created with Inkscape (http://www.inkscape.org/) -->

<svg
   xmlns:dc="http://purl.org/dc/elements/1.1/"
   xmlns:cc="http://creativecommons.org/ns#"
   xmlns:rdf="http://www.w3.org/1999/02/22-rdf-syntax-ns#"
   xmlns:svg="http://www.w3.org/2000/svg"
   xmlns="http://www.w3.org/2000/svg"
   xmlns:sodipodi="http://sodipodi.sourceforge.net/DTD/sodipodi-0.dtd"
   xmlns:inkscape="http://www.inkscape.org/namespaces/inkscape"
   version="1.1"
   id="svg10"
   xml:space="preserve"
   width="339.64355"
   height="414.51999"
   viewBox="0 0 339.64355 414.51999"
   sodipodi:docname="Residual_Calculation_2.svg"
   inkscape:version="0.92.4 (5da689c313, 2019-01-14)"><metadata
     id="metadata16"><rdf:RDF><cc:Work
         rdf:about=""><dc:format>image/svg+xml</dc:format><dc:type
           rdf:resource="http://purl.org/dc/dcmitype/StillImage" /><dc:title></dc:title></cc:Work></rdf:RDF></metadata><defs
     id="defs14"><clipPath
       clipPathUnits="userSpaceOnUse"
       id="clipPath26"><path
         d="M 0,3.0518e-5 H 311.25 V 367.50003 H 0 Z"
         id="path24"
         inkscape:connector-curvature="0"
         style="clip-rule:evenodd" /></clipPath><clipPath
       clipPathUnits="userSpaceOnUse"
       id="clipPath40"><path
         d="M 4.638e-6,0 H 311.25 V 367.5 H 4.638e-6 Z"
         id="path38"
         inkscape:connector-curvature="0"
         style="clip-rule:evenodd" /></clipPath><clipPath
       clipPathUnits="userSpaceOnUse"
       id="clipPath52"><path
         d="M 4.638e-6,0 H 311.25 V 367.5 H 4.638e-6 Z"
         id="path50"
         inkscape:connector-curvature="0"
         style="clip-rule:evenodd" /></clipPath><clipPath
       clipPathUnits="userSpaceOnUse"
       id="clipPath68"><path
         d="M 4.638e-6,0 H 311.25 V 367.5 H 4.638e-6 Z"
         id="path66"
         inkscape:connector-curvature="0"
         style="clip-rule:evenodd" /></clipPath><clipPath
       clipPathUnits="userSpaceOnUse"
       id="clipPath80"><path
         d="M 4.638e-6,0 H 311.25 V 367.5 H 4.638e-6 Z"
         id="path78"
         inkscape:connector-curvature="0"
         style="clip-rule:evenodd" /></clipPath><clipPath
       clipPathUnits="userSpaceOnUse"
       id="clipPath96"><path
         d="M 4.638e-6,0 H 311.25 V 367.5 H 4.638e-6 Z"
         id="path94"
         inkscape:connector-curvature="0"
         style="clip-rule:evenodd" /></clipPath><clipPath
       clipPathUnits="userSpaceOnUse"
       id="clipPath112"><path
         d="M 4.638e-6,0 H 311.25 V 367.5 H 4.638e-6 Z"
         id="path110"
         inkscape:connector-curvature="0"
         style="clip-rule:evenodd" /></clipPath><clipPath
       clipPathUnits="userSpaceOnUse"
       id="clipPath124"><path
         d="M 4.638e-6,0 H 311.25 V 367.5 H 4.638e-6 Z"
         id="path122"
         inkscape:connector-curvature="0"
         style="clip-rule:evenodd" /></clipPath><clipPath
       clipPathUnits="userSpaceOnUse"
       id="clipPath140"><path
         d="M 4.638e-6,0 H 311.25 V 367.5 H 4.638e-6 Z"
         id="path138"
         inkscape:connector-curvature="0"
         style="clip-rule:evenodd" /></clipPath><clipPath
       clipPathUnits="userSpaceOnUse"
       id="clipPath156"><path
         d="M 4.638e-6,0 H 311.25 V 367.5 H 4.638e-6 Z"
         id="path154"
         inkscape:connector-curvature="0"
         style="clip-rule:evenodd" /></clipPath><clipPath
       clipPathUnits="userSpaceOnUse"
       id="clipPath168"><path
         d="M 4.638e-6,0 H 311.25 V 367.5 H 4.638e-6 Z"
         id="path166"
         inkscape:connector-curvature="0"
         style="clip-rule:evenodd" /></clipPath><clipPath
       clipPathUnits="userSpaceOnUse"
       id="clipPath196"><path
         d="M 4.638e-6,0 H 311.25 V 367.5 H 4.638e-6 Z"
         id="path194"
         inkscape:connector-curvature="0"
         style="clip-rule:evenodd" /></clipPath><clipPath
       clipPathUnits="userSpaceOnUse"
       id="clipPath212"><path
         d="M 4.638e-6,0 H 311.25 V 367.5 H 4.638e-6 Z"
         id="path210"
         inkscape:connector-curvature="0"
         style="clip-rule:evenodd" /></clipPath><clipPath
       clipPathUnits="userSpaceOnUse"
       id="clipPath224"><path
         d="M 4.638e-6,0 H 311.25 V 367.5 H 4.638e-6 Z"
         id="path222"
         inkscape:connector-curvature="0"
         style="clip-rule:evenodd" /></clipPath><clipPath
       clipPathUnits="userSpaceOnUse"
       id="clipPath240"><path
         d="M 4.638e-6,0 H 311.25 V 367.5 H 4.638e-6 Z"
         id="path238"
         inkscape:connector-curvature="0"
         style="clip-rule:evenodd" /></clipPath><clipPath
       clipPathUnits="userSpaceOnUse"
       id="clipPath252"><path
         d="M 4.638e-6,0 H 311.25 V 367.5 H 4.638e-6 Z"
         id="path250"
         inkscape:connector-curvature="0"
         style="clip-rule:evenodd" /></clipPath><clipPath
       clipPathUnits="userSpaceOnUse"
       id="clipPath268"><path
         d="M 4.638e-6,0 H 311.25 V 367.5 H 4.638e-6 Z"
         id="path266"
         inkscape:connector-curvature="0"
         style="clip-rule:evenodd" /></clipPath><clipPath
       clipPathUnits="userSpaceOnUse"
       id="clipPath280"><path
         d="M 4.638e-6,0 H 311.25 V 367.5 H 4.638e-6 Z"
         id="path278"
         inkscape:connector-curvature="0"
         style="clip-rule:evenodd" /></clipPath><clipPath
       clipPathUnits="userSpaceOnUse"
       id="clipPath296"><path
         d="M 4.638e-6,0 H 311.25 V 367.5 H 4.638e-6 Z"
         id="path294"
         inkscape:connector-curvature="0"
         style="clip-rule:evenodd" /></clipPath><clipPath
       clipPathUnits="userSpaceOnUse"
       id="clipPath308"><path
         d="M 4.638e-6,0 H 311.25 V 367.5 H 4.638e-6 Z"
         id="path306"
         inkscape:connector-curvature="0"
         style="clip-rule:evenodd" /></clipPath><clipPath
       clipPathUnits="userSpaceOnUse"
       id="clipPath320"><path
         d="M 4.638e-6,0 H 311.25 V 367.5 H 4.638e-6 Z"
         id="path318"
         inkscape:connector-curvature="0"
         style="clip-rule:evenodd" /></clipPath><clipPath
       clipPathUnits="userSpaceOnUse"
       id="clipPath332"><path
         d="M 4.638e-6,0 H 311.25 V 367.5 H 4.638e-6 Z"
         id="path330"
         inkscape:connector-curvature="0"
         style="clip-rule:evenodd" /></clipPath><clipPath
       clipPathUnits="userSpaceOnUse"
       id="clipPath368"><path
         d="M 4.638e-6,0 H 311.25 V 367.5 H 4.638e-6 Z"
         id="path366"
         inkscape:connector-curvature="0"
         style="clip-rule:evenodd" /></clipPath></defs><sodipodi:namedview
     pagecolor="#ffffff"
     bordercolor="#666666"
     borderopacity="1"
     objecttolerance="10"
     gridtolerance="10"
     guidetolerance="10"
     inkscape:pageopacity="0"
     inkscape:pageshadow="2"
     inkscape:window-width="1920"
     inkscape:window-height="1017"
     id="namedview12"
     showgrid="false"
     inkscape:zoom="1.7306122"
     inkscape:cx="169.37182"
     inkscape:cy="207.48667"
     inkscape:window-x="1912"
     inkscape:window-y="-8"
     inkscape:window-maximized="1"
     inkscape:current-layer="g18" /><g
     id="g18"
     inkscape:groupmode="layer"
     inkscape:label="Residual_Calculation"
     transform="matrix(1.3333333,0,0,-1.3333333,-38.12818,452.03332)"><path
       d="m 43.498,310.56 h 42.52 c 7.828,0 14.172,6.34 14.172,14.17 0,7.83 -6.344,14.17 -14.172,14.17 h -42.52 c -7.827,0 -14.173,-6.34 -14.173,-14.17 0,-7.83 6.346,-14.17 14.173,-14.17 z"
       style="fill:#538135;fill-opacity:1;fill-rule:evenodd;stroke:none"
       id="path30"
       inkscape:connector-curvature="0" /><path
       d="m 43.498,310.56 h 42.52 c 7.828,0 14.172,6.34 14.172,14.17 0,7.83 -6.344,14.17 -14.172,14.17 h -42.52 c -7.827,0 -14.173,-6.34 -14.173,-14.17 0,-7.83 6.346,-14.17 14.173,-14.17 z"
       style="fill:none;stroke:#c8c8c8;stroke-width:0.25;stroke-linecap:square;stroke-linejoin:miter;stroke-miterlimit:10;stroke-dasharray:none;stroke-opacity:1"
       id="path32"
       inkscape:connector-curvature="0" /><g
       id="g34"><g
         id="g36"
         clip-path="url(#clipPath40)"><text
           transform="matrix(1,0,0,-1,49.375,327.05)"
           style="font-variant:normal;font-weight:normal;font-size:8.27499962px;font-family:Calibri;-inkscape-font-specification:Calibri;writing-mode:lr-tb;fill:#feffff;fill-opacity:1;fill-rule:nonzero;stroke:none"
           id="text44"><tspan
             x="0 3.7734001 9.0362997 10.5589 15.07705 19.5952 21.1178 25.63595 27.911575"
             y="0"
             sodipodi:role="line"
             id="tspan42">3D Points</tspan></text>
</g></g><g
       id="g46"><g
         id="g48"
         clip-path="url(#clipPath52)"><text
           transform="matrix(1,0,0,-1,34.725,317.42)"
           style="font-variant:normal;font-weight:normal;font-size:8.27499962px;font-family:Calibri;-inkscape-font-specification:Calibri;writing-mode:lr-tb;fill:#feffff;fill-opacity:1;fill-rule:nonzero;stroke:none"
           id="text56"><tspan
             x="0 2.2507999 4.4933252 8.2419004 11.9822 15.730775 17.22855 19.471075 22.474899 26.968225 31.46155 33.712349 38.205673 39.703449 44.196774 47.945351 50.940899 54.689476 57.693298"
             y="0"
             sodipodi:role="line"
             id="tspan54">(local coordinates)</tspan></text>
</g></g><path
       d="m 122.87,245.36 h 70.866 v 42.52 H 122.87 Z"
       style="fill:#c55a11;fill-opacity:1;fill-rule:evenodd;stroke:none"
       id="path58"
       inkscape:connector-curvature="0" /><path
       d="m 122.87,245.36 h 70.866 v 42.52 H 122.87 Z"
       style="fill:none;stroke:#833c0b;stroke-width:0.25;stroke-linecap:square;stroke-linejoin:miter;stroke-miterlimit:10;stroke-dasharray:none;stroke-opacity:1"
       id="path60"
       inkscape:connector-curvature="0" /><g
       id="g62"><g
         id="g64"
         clip-path="url(#clipPath68)"><text
           transform="matrix(1,0,0,-1,135.88,268.83)"
           style="font-variant:normal;font-weight:normal;font-size:8.27499962px;font-family:Calibri;-inkscape-font-specification:Calibri;writing-mode:lr-tb;fill:#feffff;fill-opacity:1;fill-rule:nonzero;stroke:none"
           id="text72"><tspan
             x="0 4.5181499 8.2915497 12.8097 15.83835 19.603476 23.385151 26.405525 30.923676 34.697075 38.470474 41.490849 46.008999"
             y="0"
             sodipodi:role="line"
             id="tspan70">Checkerboard </tspan></text>
</g></g><g
       id="g74"><g
         id="g76"
         clip-path="url(#clipPath80)"><text
           transform="matrix(1,0,0,-1,143.43,259.2)"
           style="font-variant:normal;font-weight:normal;font-size:8.27499962px;font-family:Calibri;-inkscape-font-specification:Calibri;writing-mode:lr-tb;fill:#feffff;fill-opacity:1;fill-rule:nonzero;stroke:none"
           id="text84"><tspan
             x="0 3.7734001 7.5385251 9.7893248 12.784875 15.0274 18.8008 21.804625 24.04715 27.050976 30.816099"
             y="0"
             sodipodi:role="line"
             id="tspan82">extrinsics </tspan></text>
</g></g><path
       d="M 29.325,266.62 64.758,287.88 100.19,266.62 64.758,245.36 Z"
       style="fill:#3d64ac;fill-opacity:1;fill-rule:evenodd;stroke:none"
       id="path86"
       inkscape:connector-curvature="0" /><path
       d="M 29.325,266.62 64.758,287.88 100.19,266.62 64.758,245.36 Z"
       style="fill:none;stroke:#31528f;stroke-width:0.75;stroke-linecap:square;stroke-linejoin:miter;stroke-miterlimit:10;stroke-dasharray:none;stroke-opacity:1"
       id="path88"
       inkscape:connector-curvature="0" /><g
       id="g90"><g
         id="g92"
         clip-path="url(#clipPath96)"><text
           transform="matrix(1,0,0,-1,39.625,264)"
           style="font-variant:normal;font-weight:normal;font-size:8.25px;font-family:Calibri;-inkscape-font-specification:Calibri;writing-mode:lr-tb;fill:#feffff;fill-opacity:1;fill-rule:nonzero;stroke:none"
           id="text100"><tspan
             x="0 3.7537501 6.7484999 10.50225 14.99025 17.99325 20.245501 24.7335 26.98575 33.750751 37.504501 40.499249 42.000751 46.48875"
             y="0"
             sodipodi:role="line"
             id="tspan98">Transformation</tspan></text>
</g></g><path
       d="m 43.498,194.34 h 42.52 c 7.828,0 14.172,6.34 14.172,14.17 0,7.83 -6.344,14.17 -14.172,14.17 h -42.52 c -7.827,0 -14.173,-6.34 -14.173,-14.17 0,-7.83 6.346,-14.17 14.173,-14.17 z"
       style="fill:#3d64ac;fill-opacity:1;fill-rule:evenodd;stroke:none"
       id="path102"
       inkscape:connector-curvature="0" /><path
       d="m 43.498,194.34 h 42.52 c 7.828,0 14.172,6.34 14.172,14.17 0,7.83 -6.344,14.17 -14.172,14.17 h -42.52 c -7.827,0 -14.173,-6.34 -14.173,-14.17 0,-7.83 6.346,-14.17 14.173,-14.17 z"
       style="fill:none;stroke:#31528f;stroke-width:0.75;stroke-linecap:square;stroke-linejoin:miter;stroke-miterlimit:10;stroke-dasharray:none;stroke-opacity:1"
       id="path104"
       inkscape:connector-curvature="0" /><g
       id="g106"><g
         id="g108"
         clip-path="url(#clipPath112)"><text
           transform="matrix(1,0,0,-1,49.375,210.6)"
           style="font-variant:normal;font-weight:normal;font-size:8.27499962px;font-family:Calibri;-inkscape-font-specification:Calibri;writing-mode:lr-tb;fill:#feffff;fill-opacity:1;fill-rule:nonzero;stroke:none"
           id="text116"><tspan
             x="0 3.7734001 9.0362997 10.5589 15.07705 19.5952 21.1178 25.63595 27.911575"
             y="0"
             sodipodi:role="line"
             id="tspan114">3D Points</tspan></text>
</g></g><g
       id="g118"><g
         id="g120"
         clip-path="url(#clipPath124)"><text
           transform="matrix(1,0,0,-1,32.425,200.98)"
           style="font-variant:normal;font-weight:normal;font-size:8.27499962px;font-family:Calibri;-inkscape-font-specification:Calibri;writing-mode:lr-tb;fill:#feffff;fill-opacity:1;fill-rule:nonzero;stroke:none"
           id="text128"><tspan
             x="0 2.2507999 5.9993749 8.2419004 11.990475 16.483801 20.232374 21.73015 23.972675 26.9765 31.469826 35.96315 38.213951 42.707275 44.205051 48.698376 52.446949 55.442501 59.191074 62.194901"
             y="0"
             sodipodi:role="line"
             id="tspan126">(global coordinates)</tspan></text>
</g></g><path
       d="M 29.325,150.4 64.758,171.66 100.19,150.4 64.758,129.14 Z"
       style="fill:#3d64ac;fill-opacity:1;fill-rule:evenodd;stroke:none"
       id="path130"
       inkscape:connector-curvature="0" /><path
       d="M 29.325,150.4 64.758,171.66 100.19,150.4 64.758,129.14 Z"
       style="fill:none;stroke:#31528f;stroke-width:0.75;stroke-linecap:square;stroke-linejoin:miter;stroke-miterlimit:10;stroke-dasharray:none;stroke-opacity:1"
       id="path132"
       inkscape:connector-curvature="0" /><g
       id="g134"><g
         id="g136"
         clip-path="url(#clipPath140)"><text
           transform="matrix(1,0,0,-1,41.85,147.55)"
           style="font-variant:normal;font-weight:normal;font-size:8.27499962px;font-family:Calibri;-inkscape-font-specification:Calibri;writing-mode:lr-tb;fill:#feffff;fill-opacity:1;fill-rule:nonzero;stroke:none"
           id="text144"><tspan
             x="0 5.2711749 9.7893248 12.06495 18.8339 22.6073 24.1299 26.397249 29.4259 33.199299 36.219673 37.742275 42.260426"
             y="0"
             sodipodi:role="line"
             id="tspan142">Normalization</tspan></text>
</g></g><path
       d="m 43.498,78.116 h 42.52 c 7.828,0 14.172,6.346 14.172,14.173 0,7.831 -6.344,14.171 -14.172,14.171 h -42.52 c -7.827,0 -14.173,-6.34 -14.173,-14.171 0,-7.827 6.346,-14.173 14.173,-14.173 z"
       style="fill:#3d64ac;fill-opacity:1;fill-rule:evenodd;stroke:none"
       id="path146"
       inkscape:connector-curvature="0" /><path
       d="m 43.498,78.116 h 42.52 c 7.828,0 14.172,6.346 14.172,14.173 0,7.831 -6.344,14.171 -14.172,14.171 h -42.52 c -7.827,0 -14.173,-6.34 -14.173,-14.171 0,-7.827 6.346,-14.173 14.173,-14.173 z"
       style="fill:none;stroke:#31528f;stroke-width:0.75;stroke-linecap:square;stroke-linejoin:miter;stroke-miterlimit:10;stroke-dasharray:none;stroke-opacity:1"
       id="path148"
       inkscape:connector-curvature="0" /><g
       id="g150"><g
         id="g152"
         clip-path="url(#clipPath156)"><text
           transform="matrix(1,0,0,-1,32.425,94.125)"
           style="font-variant:normal;font-weight:normal;font-size:8.25px;font-family:Calibri;-inkscape-font-specification:Calibri;writing-mode:lr-tb;fill:#feffff;fill-opacity:1;fill-rule:nonzero;stroke:none"
           id="text160"><tspan
             x="0 4.5127501 8.2912502 12.0615 15.08925 16.59075 19.61025 21.862499 26.37525 32.397751 34.64175 38.42025 42.190498 44.442749 47.46225 49.706249 53.484749 56.512501 58.7565 61.784248 64.811996"
             y="0"
             sodipodi:role="line"
             id="tspan158">Rays from extrinsics </tspan></text>
</g></g><g
       id="g162"><g
         id="g164"
         clip-path="url(#clipPath168)"><text
           transform="matrix(1,0,0,-1,47.475,84.525)"
           style="font-variant:normal;font-weight:normal;font-size:8.27499962px;font-family:Calibri;-inkscape-font-specification:Calibri;writing-mode:lr-tb;fill:#feffff;fill-opacity:1;fill-rule:nonzero;stroke:none"
           id="text172"><tspan
             x="0 3.7734001 6.8020501 9.8224249 11.3202 18.089149 21.862551 24.882925 26.380699 30.898849"
             y="0"
             sodipodi:role="line"
             id="tspan170">estimation</tspan></text>
</g></g><path
       d="M 64.758,310.56 V 294.04"
       style="fill:none;stroke:#4672c4;stroke-width:1;stroke-linecap:round;stroke-linejoin:round;stroke-miterlimit:10;stroke-dasharray:none;stroke-opacity:1"
       id="path174"
       inkscape:connector-curvature="0" /><path
       d="m 68.278,294.92 -3.52,-7.04 -3.52,7.04 z"
       style="fill:#4672c4;fill-opacity:1;fill-rule:evenodd;stroke:none"
       id="path176"
       inkscape:connector-curvature="0" /><path
       d="M 64.758,245.36 V 228.84"
       style="fill:none;stroke:#4672c4;stroke-width:1;stroke-linecap:round;stroke-linejoin:round;stroke-miterlimit:10;stroke-dasharray:none;stroke-opacity:1"
       id="path178"
       inkscape:connector-curvature="0" /><path
       d="m 68.278,229.72 -3.52,-7.04 -3.52,7.04 z"
       style="fill:#4672c4;fill-opacity:1;fill-rule:evenodd;stroke:none"
       id="path180"
       inkscape:connector-curvature="0" /><path
       d="M 64.758,194.34 V 177.82"
       style="fill:none;stroke:#4672c4;stroke-width:1;stroke-linecap:round;stroke-linejoin:round;stroke-miterlimit:10;stroke-dasharray:none;stroke-opacity:1"
       id="path182"
       inkscape:connector-curvature="0" /><path
       d="m 68.278,178.7 -3.52,-7.04 -3.52,7.04 z"
       style="fill:#4672c4;fill-opacity:1;fill-rule:evenodd;stroke:none"
       id="path184"
       inkscape:connector-curvature="0" /><path
       d="m 114.36,28.51 h 42.52 c 7.83,0 14.18,6.345 14.18,14.173 0,7.828 -6.35,14.173 -14.18,14.173 h -42.52 c -7.82,0 -14.17,-6.345 -14.17,-14.173 0,-7.828 6.35,-14.173 14.17,-14.173 z"
       style="fill:#c55a11;fill-opacity:1;fill-rule:evenodd;stroke:none"
       id="path186"
       inkscape:connector-curvature="0" /><path
       d="m 114.36,28.51 h 42.52 c 7.83,0 14.18,6.345 14.18,14.173 0,7.828 -6.35,14.173 -14.18,14.173 h -42.52 c -7.82,0 -14.17,-6.345 -14.17,-14.173 0,-7.828 6.35,-14.173 14.17,-14.173 z"
       style="fill:none;stroke:#833c0b;stroke-width:0.75;stroke-linecap:square;stroke-linejoin:miter;stroke-miterlimit:2;stroke-dasharray:none;stroke-opacity:1"
       id="path188"
       inkscape:connector-curvature="0" /><g
       id="g190"><g
         id="g192"
         clip-path="url(#clipPath196)"><text
           transform="matrix(1,0,0,-1,116.82,39.625)"
           style="font-variant:normal;font-weight:normal;font-size:8.27499962px;font-family:Calibri;-inkscape-font-specification:Calibri;writing-mode:lr-tb;fill:#feffff;fill-opacity:1;fill-rule:nonzero;stroke:none"
           id="text200"><tspan
             x="0 3.7734001 9.0362997 10.534075 15.052225 18.825624 22.59075 24.088526 28.606674 32.380074 36.153477"
             y="0"
             sodipodi:role="line"
             id="tspan198">3D Residual</tspan></text>
</g></g><path
       d="m 225.91,78.116 h 42.52 c 7.83,0 14.17,6.346 14.17,14.173 0,7.831 -6.34,14.171 -14.17,14.171 h -42.52 c -7.83,0 -14.18,-6.34 -14.18,-14.171 0,-7.827 6.35,-14.173 14.18,-14.173 z"
       style="fill:#3d64ac;fill-opacity:1;fill-rule:evenodd;stroke:none"
       id="path202"
       inkscape:connector-curvature="0" /><path
       d="m 225.91,78.116 h 42.52 c 7.83,0 14.17,6.346 14.17,14.173 0,7.831 -6.34,14.171 -14.17,14.171 h -42.52 c -7.83,0 -14.18,-6.34 -14.18,-14.171 0,-7.827 6.35,-14.173 14.18,-14.173 z"
       style="fill:none;stroke:#31528f;stroke-width:0.75;stroke-linecap:square;stroke-linejoin:miter;stroke-miterlimit:2;stroke-dasharray:none;stroke-opacity:1"
       id="path204"
       inkscape:connector-curvature="0" /><g
       id="g206"><g
         id="g208"
         clip-path="url(#clipPath212)"><text
           transform="matrix(1,0,0,-1,218.4,94.125)"
           style="font-variant:normal;font-weight:normal;font-size:8.25px;font-family:Calibri;-inkscape-font-specification:Calibri;writing-mode:lr-tb;fill:#feffff;fill-opacity:1;fill-rule:nonzero;stroke:none"
           id="text216"><tspan
             x="0 4.4797502 8.25 11.98725 14.9985 16.5 19.494749 21.747 26.235001 32.23275 34.476749 37.479752 41.233501 47.973751 51.727501 54.722252 58.476002"
             y="0"
             sodipodi:role="line"
             id="tspan214">Rays from camera </tspan></text>
</g></g><g
       id="g218"><g
         id="g220"
         clip-path="url(#clipPath224)"><text
           transform="matrix(1,0,0,-1,237.43,84.525)"
           style="font-variant:normal;font-weight:normal;font-size:8.27499962px;font-family:Calibri;-inkscape-font-specification:Calibri;writing-mode:lr-tb;fill:#feffff;fill-opacity:1;fill-rule:nonzero;stroke:none"
           id="text228"><tspan
             x="0 6.7441249 10.4927 14.986025 18.7346"
             y="0"
             sodipodi:role="line"
             id="tspan226">model</tspan></text>
</g></g><path
       d="m 225.91,194.34 h 42.52 c 7.83,0 14.17,6.34 14.17,14.17 0,7.83 -6.34,14.17 -14.17,14.17 h -42.52 c -7.83,0 -14.18,-6.34 -14.18,-14.17 0,-7.83 6.35,-14.17 14.18,-14.17 z"
       style="fill:#538135;fill-opacity:1;fill-rule:evenodd;stroke:none"
       id="path230"
       inkscape:connector-curvature="0" /><path
       d="m 225.91,194.34 h 42.52 c 7.83,0 14.17,6.34 14.17,14.17 0,7.83 -6.34,14.17 -14.17,14.17 h -42.52 c -7.83,0 -14.18,-6.34 -14.18,-14.17 0,-7.83 6.35,-14.17 14.18,-14.17 z"
       style="fill:none;stroke:#c8c8c8;stroke-width:0.25;stroke-linecap:square;stroke-linejoin:miter;stroke-miterlimit:2;stroke-dasharray:none;stroke-opacity:1"
       id="path232"
       inkscape:connector-curvature="0" /><g
       id="g234"><g
         id="g236"
         clip-path="url(#clipPath240)"><text
           transform="matrix(1,0,0,-1,232.23,210.6)"
           style="font-variant:normal;font-weight:normal;font-size:8.27499962px;font-family:Calibri;-inkscape-font-specification:Calibri;writing-mode:lr-tb;fill:#feffff;fill-opacity:1;fill-rule:nonzero;stroke:none"
           id="text244"><tspan
             x="0 3.7734001 9.0362997 10.534075 15.052225 19.570375 21.06815 25.5863 27.837099 30.865749"
             y="0"
             sodipodi:role="line"
             id="tspan242">2D Points </tspan></text>
</g></g><g
       id="g246"><g
         id="g248"
         clip-path="url(#clipPath252)"><text
           transform="matrix(1,0,0,-1,217.45,200.98)"
           style="font-variant:normal;font-weight:normal;font-size:8.27499962px;font-family:Calibri;-inkscape-font-specification:Calibri;writing-mode:lr-tb;fill:#feffff;fill-opacity:1;fill-rule:nonzero;stroke:none"
           id="text256"><tspan
             x="0 2.275625 6.7937751 8.3163748 12.0815 15.8549 18.12225 19.64485 23.409975 27.183374 31.701525 34.721901 38.4953 40.76265 44.536049 48.309448 51.329826 55.103226 58.131874"
             y="0"
             sodipodi:role="line"
             id="tspan254">(pixel coordinates)</tspan></text>
</g></g><path
       d="m 211.73,150.4 35.44,21.26 35.43,-21.26 -35.43,-21.26 z"
       style="fill:#3d64ac;fill-opacity:1;fill-rule:evenodd;stroke:none"
       id="path258"
       inkscape:connector-curvature="0" /><path
       d="m 211.73,150.4 35.44,21.26 35.43,-21.26 -35.43,-21.26 z"
       style="fill:none;stroke:#31528f;stroke-width:0.75;stroke-linecap:square;stroke-linejoin:miter;stroke-miterlimit:2;stroke-dasharray:none;stroke-opacity:1"
       id="path260"
       inkscape:connector-curvature="0" /><g
       id="g262"><g
         id="g264"
         clip-path="url(#clipPath268)"><text
           transform="matrix(1,0,0,-1,231.85,152.38)"
           style="font-variant:normal;font-weight:normal;font-size:8.27499962px;font-family:Calibri;-inkscape-font-specification:Calibri;writing-mode:lr-tb;fill:#feffff;fill-opacity:1;fill-rule:nonzero;stroke:none"
           id="text272"><tspan
             x="0 4.5015998 8.2501755 11.254 15.019125 20.993675 24.74225 27.737801 31.486376"
             y="0"
             sodipodi:role="line"
             id="tspan270">Backward </tspan></text>
</g></g><g
       id="g274"><g
         id="g276"
         clip-path="url(#clipPath280)"><text
           transform="matrix(1,0,0,-1,231,142.75)"
           style="font-variant:normal;font-weight:normal;font-size:8.27499962px;font-family:Calibri;-inkscape-font-specification:Calibri;writing-mode:lr-tb;fill:#feffff;fill-opacity:1;fill-rule:nonzero;stroke:none"
           id="text284"><tspan
             x="0 4.5181499 6.76895 11.2871 13.529625 17.303024 20.331675 23.352051 24.849825 29.367975"
             y="0"
             sodipodi:role="line"
             id="tspan282">projection</tspan></text>
</g></g><path
       d="m 118.19,129.14 h 70.866 v 42.52 H 118.19 Z"
       style="fill:#c55a11;fill-opacity:1;fill-rule:evenodd;stroke:none"
       id="path286"
       inkscape:connector-curvature="0" /><path
       d="m 118.19,129.14 h 70.866 v 42.52 H 118.19 Z"
       style="fill:none;stroke:#833c0b;stroke-width:0.25;stroke-linecap:square;stroke-linejoin:miter;stroke-miterlimit:2;stroke-dasharray:none;stroke-opacity:1"
       id="path288"
       inkscape:connector-curvature="0" /><g
       id="g290"><g
         id="g292"
         clip-path="url(#clipPath296)"><text
           transform="matrix(1,0,0,-1,128.1,152.43)"
           style="font-variant:normal;font-weight:normal;font-size:8.25px;font-family:Calibri;-inkscape-font-specification:Calibri;writing-mode:lr-tb;fill:#feffff;fill-opacity:1;fill-rule:nonzero;stroke:none"
           id="text300"><tspan
             x="0"
             y="0"
             id="tspan298">B</tspan></text>
</g></g><g
       id="g302"><g
         id="g304"
         clip-path="url(#clipPath308)"><text
           transform="matrix(1,0,0,-1,132.45,152.43)"
           style="font-variant:normal;font-weight:normal;font-size:8.25px;font-family:Calibri;-inkscape-font-specification:Calibri;writing-mode:lr-tb;fill:#feffff;fill-opacity:1;fill-rule:nonzero;stroke:none"
           id="text312"><tspan
             x="0"
             y="0"
             id="tspan310">-</tspan></text>
</g></g><g
       id="g314"><g
         id="g316"
         clip-path="url(#clipPath320)"><text
           transform="matrix(1,0,0,-1,134.9,152.43)"
           style="font-variant:normal;font-weight:normal;font-size:8.25px;font-family:Calibri;-inkscape-font-specification:Calibri;writing-mode:lr-tb;fill:#feffff;fill-opacity:1;fill-rule:nonzero;stroke:none"
           id="text324"><tspan
             x="0 3.7867501 8.2912502 9.8175001 11.34375 15.8565 19.635 21.903749 24.931499 29.44425 33.222752 36.242249 39.261749 43.040249 45.308998"
             y="0"
             sodipodi:role="line"
             id="tspan322">Spline control </tspan></text>
</g></g><g
       id="g326"><g
         id="g328"
         clip-path="url(#clipPath332)"><text
           transform="matrix(1,0,0,-1,143.83,142.7)"
           style="font-variant:normal;font-weight:normal;font-size:8.25px;font-family:Calibri;-inkscape-font-specification:Calibri;writing-mode:lr-tb;fill:#feffff;fill-opacity:1;fill-rule:nonzero;stroke:none"
           id="text336"><tspan
             x="0 4.5127501 8.2912502 10.56 14.3385 17.358"
             y="0"
             sodipodi:role="line"
             id="tspan334">points</tspan></text>
</g></g><path
       d="M 247.17,194.34 V 177.82"
       style="fill:none;stroke:#4672c4;stroke-width:1;stroke-linecap:round;stroke-linejoin:round;stroke-miterlimit:2;stroke-dasharray:none;stroke-opacity:1"
       id="path338"
       inkscape:connector-curvature="0" /><path
       d="m 250.69,178.7 -3.52,-7.04 -3.52,7.04 z"
       style="fill:#4672c4;fill-opacity:1;fill-rule:evenodd;stroke:none"
       id="path340"
       inkscape:connector-curvature="0" /><path
       d="M 247.17,129.14 V 112.62"
       style="fill:none;stroke:#4672c4;stroke-width:1;stroke-linecap:round;stroke-linejoin:round;stroke-miterlimit:2;stroke-dasharray:none;stroke-opacity:1"
       id="path342"
       inkscape:connector-curvature="0" /><path
       d="m 250.69,113.5 -3.52,-7.04 -3.52,7.04 z"
       style="fill:#4672c4;fill-opacity:1;fill-rule:evenodd;stroke:none"
       id="path344"
       inkscape:connector-curvature="0" /><path
       d="M 64.758,129.14 V 112.62"
       style="fill:none;stroke:#4672c4;stroke-width:1;stroke-linecap:round;stroke-linejoin:round;stroke-miterlimit:2;stroke-dasharray:none;stroke-opacity:1"
       id="path346"
       inkscape:connector-curvature="0" /><path
       d="m 68.278,113.5 -3.52,-7.04 -3.52,7.04 z"
       style="fill:#4672c4;fill-opacity:1;fill-rule:evenodd;stroke:none"
       id="path348"
       inkscape:connector-curvature="0" /><path
       d="m 189.06,150.4 h 16.51"
       style="fill:none;stroke:#4672c4;stroke-width:1;stroke-linecap:round;stroke-linejoin:round;stroke-miterlimit:2;stroke-dasharray:none;stroke-opacity:1"
       id="path350"
       inkscape:connector-curvature="0" /><path
       d="m 204.69,153.92 7.04,-3.52 -7.04,-3.52 z"
       style="fill:#4672c4;fill-opacity:1;fill-rule:evenodd;stroke:none"
       id="path352"
       inkscape:connector-curvature="0" /><path
       d="M 122.87,266.62 H 106.35"
       style="fill:none;stroke:#4672c4;stroke-width:1;stroke-linecap:round;stroke-linejoin:round;stroke-miterlimit:2;stroke-dasharray:none;stroke-opacity:1"
       id="path354"
       inkscape:connector-curvature="0" /><path
       d="m 107.23,263.1 -7.04,3.52 7.04,3.52 z"
       style="fill:#4672c4;fill-opacity:1;fill-rule:evenodd;stroke:none"
       id="path356"
       inkscape:connector-curvature="0" /><path
       d="m 122.87,92.289 c 0,7.045 5.71,12.761 12.75,12.761 7.05,0 12.76,-5.716 12.76,-12.761 0,-7.044 -5.71,-12.756 -12.76,-12.756 -7.04,0 -12.75,5.712 -12.75,12.756 z"
       style="fill:#4672c4;fill-opacity:1;fill-rule:evenodd;stroke:none"
       id="path358"
       inkscape:connector-curvature="0" /><path
       d="m 122.87,92.289 c 0,7.045 5.71,12.761 12.75,12.761 7.05,0 12.76,-5.716 12.76,-12.761 0,-7.044 -5.71,-12.756 -12.76,-12.756 -7.04,0 -12.75,5.712 -12.75,12.756 z"
       style="fill:none;stroke:#c8c8c8;stroke-width:0.25;stroke-linecap:square;stroke-linejoin:miter;stroke-miterlimit:2;stroke-dasharray:none;stroke-opacity:1"
       id="path360"
       inkscape:connector-curvature="0" /><g
       id="g362"><g
         id="g364"
         clip-path="url(#clipPath368)"><text
           transform="matrix(1,0,0,-1,130.43,80.9)"
           style="font-variant:normal;font-weight:normal;font-size:36.07500076px;font-family:Calibri;-inkscape-font-specification:Calibri;writing-mode:lr-tb;fill:#feffff;fill-opacity:1;fill-rule:nonzero;stroke:none"
           id="text372"><tspan
             x="0"
             y="0"
             id="tspan370">-</tspan></text>
</g></g><path
       d="m 100.19,92.289 h 16.52"
       style="fill:none;stroke:#4672c4;stroke-width:1;stroke-linecap:round;stroke-linejoin:round;stroke-miterlimit:2;stroke-dasharray:none;stroke-opacity:1"
       id="path374"
       inkscape:connector-curvature="0" /><path
       d="m 115.83,95.809 7.04,-3.52 -7.04,-3.52 z"
       style="fill:#4672c4;fill-opacity:1;fill-rule:evenodd;stroke:none"
       id="path376"
       inkscape:connector-curvature="0" /><path
       d="M 211.73,92.289 H 154.54"
       style="fill:none;stroke:#4672c4;stroke-width:1;stroke-linecap:round;stroke-linejoin:round;stroke-miterlimit:2;stroke-dasharray:none;stroke-opacity:1"
       id="path378"
       inkscape:connector-curvature="0" /><path
       d="m 155.42,88.769 -7.04,3.52 7.04,3.52 z"
       style="fill:#4672c4;fill-opacity:1;fill-rule:evenodd;stroke:none"
       id="path380"
       inkscape:connector-curvature="0" /><path
       d="M 135.62,79.533 V 63.016"
       style="fill:none;stroke:#4672c4;stroke-width:1;stroke-linecap:round;stroke-linejoin:round;stroke-miterlimit:2;stroke-dasharray:none;stroke-opacity:1"
       id="path382"
       inkscape:connector-curvature="0" /><path
       d="m 139.14,63.896 -3.52,-7.04 -3.52,7.04 z"
       style="fill:#4672c4;fill-opacity:1;fill-rule:evenodd;stroke:none"
       id="path384"
       inkscape:connector-curvature="0" /></g></svg>