<?xml version="1.0" encoding="UTF-8" standalone="no"?>
<!-- Created with Inkscape (http://www.inkscape.org/) -->

<svg
   xmlns:dc="http://purl.org/dc/elements/1.1/"
   xmlns:cc="http://creativecommons.org/ns#"
   xmlns:rdf="http://www.w3.org/1999/02/22-rdf-syntax-ns#"
   xmlns:svg="http://www.w3.org/2000/svg"
   xmlns="http://www.w3.org/2000/svg"
   xmlns:sodipodi="http://sodipodi.sourceforge.net/DTD/sodipodi-0.dtd"
   xmlns:inkscape="http://www.inkscape.org/namespaces/inkscape"
   version="1.1"
   id="svg10"
   xml:space="preserve"
   width="97.33564"
   height="214.256"
   viewBox="0 0 97.33564 214.256"
   sodipodi:docname="Residual_Calculation_1.svg"
   inkscape:version="0.92.4 (5da689c313, 2019-01-14)"><metadata
     id="metadata16"><rdf:RDF><cc:Work
         rdf:about=""><dc:format>image/svg+xml</dc:format><dc:type
           rdf:resource="http://purl.org/dc/dcmitype/StillImage" /><dc:title></dc:title></cc:Work></rdf:RDF></metadata><defs
     id="defs14"><clipPath
       clipPathUnits="userSpaceOnUse"
       id="clipPath26"><path
         d="M 0,3.0518e-5 H 129 V 217.50003 H 0 Z"
         id="path24"
         inkscape:connector-curvature="0"
         style="clip-rule:evenodd" /></clipPath><clipPath
       clipPathUnits="userSpaceOnUse"
       id="clipPath40"><path
         d="M 1.922e-6,0 H 129 V 217.5 H 1.922e-6 Z"
         id="path38"
         inkscape:connector-curvature="0"
         style="clip-rule:evenodd" /></clipPath><clipPath
       clipPathUnits="userSpaceOnUse"
       id="clipPath56"><path
         d="M 1.922e-6,0 H 129 V 217.5 H 1.922e-6 Z"
         id="path54"
         inkscape:connector-curvature="0"
         style="clip-rule:evenodd" /></clipPath><clipPath
       clipPathUnits="userSpaceOnUse"
       id="clipPath72"><path
         d="M 1.922e-6,0 H 129 V 217.5 H 1.922e-6 Z"
         id="path70"
         inkscape:connector-curvature="0"
         style="clip-rule:evenodd" /></clipPath><clipPath
       clipPathUnits="userSpaceOnUse"
       id="clipPath88"><path
         d="M 1.922e-6,0 H 129 V 217.5 H 1.922e-6 Z"
         id="path86"
         inkscape:connector-curvature="0"
         style="clip-rule:evenodd" /></clipPath><clipPath
       clipPathUnits="userSpaceOnUse"
       id="clipPath104"><path
         d="M 1.922e-6,0 H 129 V 217.5 H 1.922e-6 Z"
         id="path102"
         inkscape:connector-curvature="0"
         style="clip-rule:evenodd" /></clipPath></defs><sodipodi:namedview
     pagecolor="#ffffff"
     bordercolor="#666666"
     borderopacity="1"
     objecttolerance="10"
     gridtolerance="10"
     guidetolerance="10"
     inkscape:pageopacity="0"
     inkscape:pageshadow="2"
     inkscape:window-width="505"
     inkscape:window-height="405"
     id="namedview12"
     showgrid="false"
     inkscape:zoom="2.9241379"
     inkscape:cx="48.705334"
     inkscape:cy="78.770584"
     inkscape:window-x="1912"
     inkscape:window-y="0"
     inkscape:window-maximized="0"
     inkscape:current-layer="g18" /><g
     id="g18"
     inkscape:groupmode="layer"
     inkscape:label="Residual_Calculation"
     transform="matrix(1.3333333,0,0,-1.3333333,-37.294666,252.03999)"><g
       id="g20"><g
         id="g22"
         clip-path="url(#clipPath26)"><path
           d="m 0,-0.38319 h 129.06 v 217.88 H 0 Z"
           style="fill:none;stroke:#c8c8c8;stroke-width:0.25;stroke-linecap:square;stroke-linejoin:miter;stroke-miterlimit:10;stroke-dasharray:none;stroke-opacity:1"
           id="path28"
           inkscape:connector-curvature="0" /></g></g><path
       d="m 29.096,163.36 h 70.866 v 25.545 H 29.096 Z"
       style="fill:#c55a11;fill-opacity:1;fill-rule:evenodd;stroke:none"
       id="path30"
       inkscape:connector-curvature="0" /><path
       d="m 29.096,163.36 h 70.866 v 25.545 H 29.096 Z"
       style="fill:none;stroke:#833c0b;stroke-width:0.25;stroke-linecap:square;stroke-linejoin:miter;stroke-miterlimit:10;stroke-dasharray:none;stroke-opacity:1"
       id="path32"
       inkscape:connector-curvature="0" /><g
       id="g34"><g
         id="g36"
         clip-path="url(#clipPath40)"><text
           transform="matrix(1,0,0,-1,46.025,173.58)"
           style="font-variant:normal;font-weight:normal;font-size:8.27499962px;font-family:Calibri;-inkscape-font-specification:Calibri;writing-mode:lr-tb;fill:#feffff;fill-opacity:1;fill-rule:nonzero;stroke:none"
           id="text44"><tspan
             x="0 4.5181499 8.2915497 10.567175 14.340575 21.13435 24.907749 27.928125 31.701525 34.721901"
             y="0"
             sodipodi:role="line"
             id="tspan42">Parameters</tspan></text>
</g></g><path
       d="m 42.52,129.7 h 42.519 c 7.828,0 14.174,6.34 14.174,14.17 0,7.83 -6.346,14.17 -14.174,14.17 H 42.52 c -7.828,0 -14.174,-6.34 -14.174,-14.17 0,-7.83 6.346,-14.17 14.174,-14.17 z"
       style="fill:#c55a11;fill-opacity:1;fill-rule:evenodd;stroke:none"
       id="path46"
       inkscape:connector-curvature="0" /><path
       d="m 42.52,129.7 h 42.519 c 7.828,0 14.174,6.34 14.174,14.17 0,7.83 -6.346,14.17 -14.174,14.17 H 42.52 c -7.828,0 -14.174,-6.34 -14.174,-14.17 0,-7.83 6.346,-14.17 14.174,-14.17 z"
       style="fill:none;stroke:#833c0b;stroke-width:0.75;stroke-linecap:square;stroke-linejoin:miter;stroke-miterlimit:10;stroke-dasharray:none;stroke-opacity:1"
       id="path48"
       inkscape:connector-curvature="0" /><g
       id="g50"><g
         id="g52"
         clip-path="url(#clipPath56)"><text
           transform="matrix(1,0,0,-1,48.825,141.2)"
           style="font-variant:normal;font-weight:normal;font-size:8.27499962px;font-family:Calibri;-inkscape-font-specification:Calibri;writing-mode:lr-tb;fill:#feffff;fill-opacity:1;fill-rule:nonzero;stroke:none"
           id="text60"><tspan
             x="0 4.5181499 8.2915497 11.3202 13.562725 17.336124 21.854275 25.627674 27.12545"
             y="0"
             sodipodi:role="line"
             id="tspan58">Residuals</tspan></text>
</g></g><path
       d="m 42.52,96.036 h 42.519 c 7.828,0 14.174,6.344 14.174,14.174 0,7.83 -6.346,14.17 -14.174,14.17 H 42.52 c -7.828,0 -14.174,-6.34 -14.174,-14.17 0,-7.83 6.346,-14.174 14.174,-14.174 z"
       style="fill:#538135;fill-opacity:1;fill-rule:evenodd;stroke:none"
       id="path62"
       inkscape:connector-curvature="0" /><path
       d="m 42.52,96.036 h 42.519 c 7.828,0 14.174,6.344 14.174,14.174 0,7.83 -6.346,14.17 -14.174,14.17 H 42.52 c -7.828,0 -14.174,-6.34 -14.174,-14.17 0,-7.83 6.346,-14.174 14.174,-14.174 z"
       style="fill:none;stroke:#c8c8c8;stroke-width:0.25;stroke-linecap:square;stroke-linejoin:miter;stroke-miterlimit:10;stroke-dasharray:none;stroke-opacity:1"
       id="path64"
       inkscape:connector-curvature="0" /><g
       id="g66"><g
         id="g68"
         clip-path="url(#clipPath72)"><text
           transform="matrix(1,0,0,-1,49.95,107.43)"
           style="font-variant:normal;font-weight:normal;font-size:8.27499962px;font-family:Calibri;-inkscape-font-specification:Calibri;writing-mode:lr-tb;fill:#feffff;fill-opacity:1;fill-rule:nonzero;stroke:none"
           id="text76"><tspan
             x="0 3.748575 7.4971499 11.245725 14.241275 17.989849 20.985399 25.50355"
             y="0"
             sodipodi:role="line"
             id="tspan74">Features</tspan></text>
</g></g><path
       d="M 29.096,76.548 64.53,90.721 99.963,76.548 64.53,62.375 Z"
       style="fill:#3d64ac;fill-opacity:1;fill-rule:evenodd;stroke:none"
       id="path78"
       inkscape:connector-curvature="0" /><path
       d="M 29.096,76.548 64.53,90.721 99.963,76.548 64.53,62.375 Z"
       style="fill:none;stroke:#31528f;stroke-width:0.75;stroke-linecap:square;stroke-linejoin:miter;stroke-miterlimit:10;stroke-dasharray:none;stroke-opacity:1"
       id="path80"
       inkscape:connector-curvature="0" /><g
       id="g82"><g
         id="g84"
         clip-path="url(#clipPath88)"><text
           transform="matrix(1,0,0,-1,39.525,73.65)"
           style="font-variant:normal;font-weight:normal;font-size:8.27499962px;font-family:Calibri;-inkscape-font-specification:Calibri;writing-mode:lr-tb;fill:#feffff;fill-opacity:1;fill-rule:nonzero;stroke:none"
           id="text92"><tspan
             x="0 3.7734001 6.7937751 10.567175 15.085325 18.113976 20.389601 24.907749 27.183374 33.97715 37.750549 40.770924 42.293526 46.811676"
             y="0"
             sodipodi:role="line"
             id="tspan90">Transformation</tspan></text>
</g></g><path
       d="m 43.27,28.713 h 42.519 c 7.828,0 14.174,6.346 14.174,14.174 0,7.827 -6.346,14.173 -14.174,14.173 H 43.27 c -7.828,0 -14.174,-6.346 -14.174,-14.173 0,-7.828 6.346,-14.174 14.174,-14.174 z"
       style="fill:#3d64ac;fill-opacity:1;fill-rule:evenodd;stroke:none"
       id="path94"
       inkscape:connector-curvature="0" /><path
       d="m 43.27,28.713 h 42.519 c 7.828,0 14.174,6.346 14.174,14.174 0,7.827 -6.346,14.173 -14.174,14.173 H 43.27 c -7.828,0 -14.174,-6.346 -14.174,-14.173 0,-7.828 6.346,-14.174 14.174,-14.174 z"
       style="fill:none;stroke:#31528f;stroke-width:0.75;stroke-linecap:square;stroke-linejoin:miter;stroke-miterlimit:10;stroke-dasharray:none;stroke-opacity:1"
       id="path96"
       inkscape:connector-curvature="0" /><g
       id="g98"><g
         id="g100"
         clip-path="url(#clipPath104)"><text
           transform="matrix(1,0,0,-1,38.35,39.875)"
           style="font-variant:normal;font-weight:normal;font-size:8.27499962px;font-family:Calibri;-inkscape-font-specification:Calibri;writing-mode:lr-tb;fill:#feffff;fill-opacity:1;fill-rule:nonzero;stroke:none"
           id="text108"><tspan
             x="0 3.7734001 8.2915497 14.340575 18.858725 22.632126 25.6525 29.4259 32.446274 36.211399 37.734001 43.021725 46.795124 49.070751"
             y="0"
             sodipodi:role="line"
             id="tspan106">Temporary Data</tspan></text>
</g></g></g></svg>