<?xml version="1.0" encoding="UTF-8" standalone="no"?>
<!-- Created with Inkscape (http://www.inkscape.org/) -->

<svg
   xmlns:dc="http://purl.org/dc/elements/1.1/"
   xmlns:cc="http://creativecommons.org/ns#"
   xmlns:rdf="http://www.w3.org/1999/02/22-rdf-syntax-ns#"
   xmlns:svg="http://www.w3.org/2000/svg"
   xmlns="http://www.w3.org/2000/svg"
   xmlns:sodipodi="http://sodipodi.sourceforge.net/DTD/sodipodi-0.dtd"
   xmlns:inkscape="http://www.inkscape.org/namespaces/inkscape"
   version="1.1"
   id="svg10"
   xml:space="preserve"
   width="323.20227"
   height="473.10266"
   viewBox="0 0 323.20227 473.10266"
   sodipodi:docname="Residual_Calculation_2.svg"
   inkscape:version="0.92.4 (5da689c313, 2019-01-14)"><metadata
     id="metadata16"><rdf:RDF><cc:Work
         rdf:about=""><dc:format>image/svg+xml</dc:format><dc:type
           rdf:resource="http://purl.org/dc/dcmitype/StillImage" /><dc:title></dc:title></cc:Work></rdf:RDF></metadata><defs
     id="defs14"><clipPath
       clipPathUnits="userSpaceOnUse"
       id="clipPath26"><path
         d="M 0,6.1035e-5 H 298.5 V 412.50006 H 0 Z"
         id="path24"
         inkscape:connector-curvature="0"
         style="clip-rule:evenodd" /></clipPath><clipPath
       clipPathUnits="userSpaceOnUse"
       id="clipPath40"><path
         d="M 4.448e-6,0 H 298.5 V 412.5 H 4.448e-6 Z"
         id="path38"
         inkscape:connector-curvature="0"
         style="clip-rule:evenodd" /></clipPath><clipPath
       clipPathUnits="userSpaceOnUse"
       id="clipPath52"><path
         d="M 4.448e-6,0 H 298.5 V 412.5 H 4.448e-6 Z"
         id="path50"
         inkscape:connector-curvature="0"
         style="clip-rule:evenodd" /></clipPath><clipPath
       clipPathUnits="userSpaceOnUse"
       id="clipPath68"><path
         d="M 4.448e-6,0 H 298.5 V 412.5 H 4.448e-6 Z"
         id="path66"
         inkscape:connector-curvature="0"
         style="clip-rule:evenodd" /></clipPath><clipPath
       clipPathUnits="userSpaceOnUse"
       id="clipPath80"><path
         d="M 4.448e-6,0 H 298.5 V 412.5 H 4.448e-6 Z"
         id="path78"
         inkscape:connector-curvature="0"
         style="clip-rule:evenodd" /></clipPath><clipPath
       clipPathUnits="userSpaceOnUse"
       id="clipPath92"><path
         d="M 4.448e-6,0 H 298.5 V 412.5 H 4.448e-6 Z"
         id="path90"
         inkscape:connector-curvature="0"
         style="clip-rule:evenodd" /></clipPath><clipPath
       clipPathUnits="userSpaceOnUse"
       id="clipPath104"><path
         d="M 4.448e-6,0 H 298.5 V 412.5 H 4.448e-6 Z"
         id="path102"
         inkscape:connector-curvature="0"
         style="clip-rule:evenodd" /></clipPath><clipPath
       clipPathUnits="userSpaceOnUse"
       id="clipPath116"><path
         d="M 4.448e-6,0 H 298.5 V 412.5 H 4.448e-6 Z"
         id="path114"
         inkscape:connector-curvature="0"
         style="clip-rule:evenodd" /></clipPath><clipPath
       clipPathUnits="userSpaceOnUse"
       id="clipPath132"><path
         d="M 4.448e-6,0 H 298.5 V 412.5 H 4.448e-6 Z"
         id="path130"
         inkscape:connector-curvature="0"
         style="clip-rule:evenodd" /></clipPath><clipPath
       clipPathUnits="userSpaceOnUse"
       id="clipPath148"><path
         d="M 4.448e-6,0 H 298.5 V 412.5 H 4.448e-6 Z"
         id="path146"
         inkscape:connector-curvature="0"
         style="clip-rule:evenodd" /></clipPath><clipPath
       clipPathUnits="userSpaceOnUse"
       id="clipPath160"><path
         d="M 4.448e-6,0 H 298.5 V 412.5 H 4.448e-6 Z"
         id="path158"
         inkscape:connector-curvature="0"
         style="clip-rule:evenodd" /></clipPath><clipPath
       clipPathUnits="userSpaceOnUse"
       id="clipPath176"><path
         d="M 4.448e-6,0 H 298.5 V 412.5 H 4.448e-6 Z"
         id="path174"
         inkscape:connector-curvature="0"
         style="clip-rule:evenodd" /></clipPath><clipPath
       clipPathUnits="userSpaceOnUse"
       id="clipPath192"><path
         d="M 4.448e-6,0 H 298.5 V 412.5 H 4.448e-6 Z"
         id="path190"
         inkscape:connector-curvature="0"
         style="clip-rule:evenodd" /></clipPath><clipPath
       clipPathUnits="userSpaceOnUse"
       id="clipPath204"><path
         d="M 4.448e-6,0 H 298.5 V 412.5 H 4.448e-6 Z"
         id="path202"
         inkscape:connector-curvature="0"
         style="clip-rule:evenodd" /></clipPath><clipPath
       clipPathUnits="userSpaceOnUse"
       id="clipPath216"><path
         d="M 4.448e-6,0 H 298.5 V 412.5 H 4.448e-6 Z"
         id="path214"
         inkscape:connector-curvature="0"
         style="clip-rule:evenodd" /></clipPath><clipPath
       clipPathUnits="userSpaceOnUse"
       id="clipPath228"><path
         d="M 4.448e-6,0 H 298.5 V 412.5 H 4.448e-6 Z"
         id="path226"
         inkscape:connector-curvature="0"
         style="clip-rule:evenodd" /></clipPath><clipPath
       clipPathUnits="userSpaceOnUse"
       id="clipPath256"><path
         d="M 4.448e-6,0 H 298.5 V 412.5 H 4.448e-6 Z"
         id="path254"
         inkscape:connector-curvature="0"
         style="clip-rule:evenodd" /></clipPath><clipPath
       clipPathUnits="userSpaceOnUse"
       id="clipPath272"><path
         d="M 4.448e-6,0 H 298.5 V 412.5 H 4.448e-6 Z"
         id="path270"
         inkscape:connector-curvature="0"
         style="clip-rule:evenodd" /></clipPath><clipPath
       clipPathUnits="userSpaceOnUse"
       id="clipPath284"><path
         d="M 4.448e-6,0 H 298.5 V 412.5 H 4.448e-6 Z"
         id="path282"
         inkscape:connector-curvature="0"
         style="clip-rule:evenodd" /></clipPath><clipPath
       clipPathUnits="userSpaceOnUse"
       id="clipPath296"><path
         d="M 4.448e-6,0 H 298.5 V 412.5 H 4.448e-6 Z"
         id="path294"
         inkscape:connector-curvature="0"
         style="clip-rule:evenodd" /></clipPath><clipPath
       clipPathUnits="userSpaceOnUse"
       id="clipPath312"><path
         d="M 4.448e-6,0 H 298.5 V 412.5 H 4.448e-6 Z"
         id="path310"
         inkscape:connector-curvature="0"
         style="clip-rule:evenodd" /></clipPath><clipPath
       clipPathUnits="userSpaceOnUse"
       id="clipPath324"><path
         d="M 4.448e-6,0 H 298.5 V 412.5 H 4.448e-6 Z"
         id="path322"
         inkscape:connector-curvature="0"
         style="clip-rule:evenodd" /></clipPath><clipPath
       clipPathUnits="userSpaceOnUse"
       id="clipPath340"><path
         d="M 4.448e-6,0 H 298.5 V 412.5 H 4.448e-6 Z"
         id="path338"
         inkscape:connector-curvature="0"
         style="clip-rule:evenodd" /></clipPath><clipPath
       clipPathUnits="userSpaceOnUse"
       id="clipPath352"><path
         d="M 4.448e-6,0 H 298.5 V 412.5 H 4.448e-6 Z"
         id="path350"
         inkscape:connector-curvature="0"
         style="clip-rule:evenodd" /></clipPath><clipPath
       clipPathUnits="userSpaceOnUse"
       id="clipPath368"><path
         d="M 4.448e-6,0 H 298.5 V 412.5 H 4.448e-6 Z"
         id="path366"
         inkscape:connector-curvature="0"
         style="clip-rule:evenodd" /></clipPath><clipPath
       clipPathUnits="userSpaceOnUse"
       id="clipPath380"><path
         d="M 4.448e-6,0 H 298.5 V 412.5 H 4.448e-6 Z"
         id="path378"
         inkscape:connector-curvature="0"
         style="clip-rule:evenodd" /></clipPath><clipPath
       clipPathUnits="userSpaceOnUse"
       id="clipPath392"><path
         d="M 4.448e-6,0 H 298.5 V 412.5 H 4.448e-6 Z"
         id="path390"
         inkscape:connector-curvature="0"
         style="clip-rule:evenodd" /></clipPath><clipPath
       clipPathUnits="userSpaceOnUse"
       id="clipPath404"><path
         d="M 4.448e-6,0 H 298.5 V 412.5 H 4.448e-6 Z"
         id="path402"
         inkscape:connector-curvature="0"
         style="clip-rule:evenodd" /></clipPath><clipPath
       clipPathUnits="userSpaceOnUse"
       id="clipPath416"><path
         d="M 4.448e-6,0 H 298.5 V 412.5 H 4.448e-6 Z"
         id="path414"
         inkscape:connector-curvature="0"
         style="clip-rule:evenodd" /></clipPath><linearGradient
       x1="123.43"
       y1="142.92"
       x2="158.28"
       y2="82.563004"
       gradientUnits="userSpaceOnUse"
       spreadMethod="pad"
       id="linearGradient458"><stop
         style="stop-opacity:1;stop-color:#feffff"
         offset="0"
         id="stop444" /><stop
         style="stop-opacity:1;stop-color:#feffff"
         offset="0.22941"
         id="stop446" /><stop
         style="stop-opacity:1;stop-color:#f4f5fa"
         offset="0.38039"
         id="stop448" /><stop
         style="stop-opacity:1;stop-color:#e9ebf5"
         offset="0.5"
         id="stop450" /><stop
         style="stop-opacity:1;stop-color:#f4f5fa"
         offset="0.61961"
         id="stop452" /><stop
         style="stop-opacity:1;stop-color:#feffff"
         offset="0.77059"
         id="stop454" /><stop
         style="stop-opacity:1;stop-color:#feffff"
         offset="1"
         id="stop456" /></linearGradient><clipPath
       clipPathUnits="userSpaceOnUse"
       id="clipPath470"><path
         d="M 4.448e-6,0 H 298.5 V 412.5 H 4.448e-6 Z"
         id="path468"
         inkscape:connector-curvature="0"
         style="clip-rule:evenodd" /></clipPath></defs><sodipodi:namedview
     pagecolor="#ffffff"
     bordercolor="#666666"
     borderopacity="1"
     objecttolerance="10"
     gridtolerance="10"
     guidetolerance="10"
     inkscape:pageopacity="0"
     inkscape:pageshadow="2"
     inkscape:window-width="1920"
     inkscape:window-height="1017"
     id="namedview12"
     showgrid="false"
     inkscape:zoom="1.5418182"
     inkscape:cx="161.17717"
     inkscape:cy="236.736"
     inkscape:window-x="1912"
     inkscape:window-y="-8"
     inkscape:window-maximized="1"
     inkscape:current-layer="g18" /><g
     id="g18"
     inkscape:groupmode="layer"
     inkscape:label="Residual_Calculation"
     transform="matrix(1.3333333,0,0,-1.3333333,-37.822827,511.36665)"><path
       d="m 43.27,355.06 h 42.519 c 7.828,0 14.174,6.34 14.174,14.17 0,7.83 -6.346,14.17 -14.174,14.17 H 43.27 c -7.828,0 -14.174,-6.34 -14.174,-14.17 0,-7.83 6.346,-14.17 14.174,-14.17 z"
       style="fill:#538135;fill-opacity:1;fill-rule:evenodd;stroke:none"
       id="path30"
       inkscape:connector-curvature="0" /><path
       d="m 43.27,355.06 h 42.519 c 7.828,0 14.174,6.34 14.174,14.17 0,7.83 -6.346,14.17 -14.174,14.17 H 43.27 c -7.828,0 -14.174,-6.34 -14.174,-14.17 0,-7.83 6.346,-14.17 14.174,-14.17 z"
       style="fill:none;stroke:#c8c8c8;stroke-width:0.25;stroke-linecap:square;stroke-linejoin:miter;stroke-miterlimit:10;stroke-dasharray:none;stroke-opacity:1"
       id="path32"
       inkscape:connector-curvature="0" /><g
       id="g34"><g
         id="g36"
         clip-path="url(#clipPath40)"><text
           transform="matrix(1,0,0,-1,49.15,371.55)"
           style="font-variant:normal;font-weight:normal;font-size:8.25px;font-family:Calibri;-inkscape-font-specification:Calibri;writing-mode:lr-tb;fill:#feffff;fill-opacity:1;fill-rule:nonzero;stroke:none"
           id="text44"><tspan
             x="0 3.7785001 9.0419998 10.56825 15.081 19.59375 21.120001 25.63275 27.90975"
             y="0"
             sodipodi:role="line"
             id="tspan42">3D Points</tspan></text>
</g></g><g
       id="g46"><g
         id="g48"
         clip-path="url(#clipPath52)"><text
           transform="matrix(1,0,0,-1,34.5,361.92)"
           style="font-variant:normal;font-weight:normal;font-size:8.25px;font-family:Calibri;-inkscape-font-specification:Calibri;writing-mode:lr-tb;fill:#feffff;fill-opacity:1;fill-rule:nonzero;stroke:none"
           id="text56"><tspan
             x="0 2.25225 4.4962502 8.25 11.9955 15.74925 17.25075 19.494749 22.497749 26.98575 31.473749 33.726002 38.214001 39.7155 44.203499 47.957249 50.952 54.70575 57.708752"
             y="0"
             sodipodi:role="line"
             id="tspan54">(local coordinates)</tspan></text>
</g></g><path
       d="m 114.14,280.08 h 70.866 V 322.6 H 114.14 Z"
       style="fill:#c55a11;fill-opacity:1;fill-rule:evenodd;stroke:none"
       id="path58"
       inkscape:connector-curvature="0" /><path
       d="m 114.14,280.08 h 70.866 V 322.6 H 114.14 Z"
       style="fill:none;stroke:#833c0b;stroke-width:0.25;stroke-linecap:square;stroke-linejoin:miter;stroke-miterlimit:10;stroke-dasharray:none;stroke-opacity:1"
       id="path60"
       inkscape:connector-curvature="0" /><g
       id="g62"><g
         id="g64"
         clip-path="url(#clipPath68)"><text
           transform="matrix(1,0,0,-1,127.15,308.42)"
           style="font-variant:normal;font-weight:normal;font-size:8.27499962px;font-family:Calibri;-inkscape-font-specification:Calibri;writing-mode:lr-tb;fill:#feffff;fill-opacity:1;fill-rule:nonzero;stroke:none"
           id="text72"><tspan
             x="0 4.4933252 8.2419004 12.735225 15.73905 19.504175 23.2362 26.23175 30.725075 34.473652 38.222225 41.217773 45.711102"
             y="0"
             sodipodi:role="line"
             id="tspan70">Checkerboard </tspan></text>
</g></g><g
       id="g74"><g
         id="g76"
         clip-path="url(#clipPath80)"><text
           transform="matrix(1,0,0,-1,134.7,298.8)"
           style="font-variant:normal;font-weight:normal;font-size:8.27499962px;font-family:Calibri;-inkscape-font-specification:Calibri;writing-mode:lr-tb;fill:#feffff;fill-opacity:1;fill-rule:nonzero;stroke:none"
           id="text84"><tspan
             x="0 3.748575 7.4888749 9.7396746 12.735225 14.97775 18.726324 21.73015 23.972675 26.9765 30.716801"
             y="0"
             sodipodi:role="line"
             id="tspan82">extrinsics </tspan></text>
</g></g><g
       id="g86"><g
         id="g88"
         clip-path="url(#clipPath92)"><text
           transform="matrix(1,0,0,-1,129.15,289.08)"
           style="font-variant:normal;font-weight:normal;font-size:8.27499962px;font-family:'Courier New';-inkscape-font-specification:CourierNewPSMT;writing-mode:lr-tb;fill:#feffff;fill-opacity:1;fill-rule:nonzero;stroke:none"
           id="text96"><tspan
             x="0 4.5015998 9.7396746 14.241275"
             y="0"
             sodipodi:role="line"
             id="tspan94">rvec</tspan></text>
</g></g><g
       id="g98"><g
         id="g100"
         clip-path="url(#clipPath104)"><text
           transform="matrix(1,0,0,-1,148.4,289.08)"
           style="font-variant:normal;font-weight:normal;font-size:8.27499962px;font-family:Calibri;-inkscape-font-specification:Calibri;writing-mode:lr-tb;fill:#feffff;fill-opacity:1;fill-rule:nonzero;stroke:none"
           id="text108"><tspan
             x="0"
             y="0"
             id="tspan106">/</tspan></text>
</g></g><g
       id="g110"><g
         id="g112"
         clip-path="url(#clipPath116)"><text
           transform="matrix(1,0,0,-1,151.5,289.08)"
           style="font-variant:normal;font-weight:normal;font-size:8.27499962px;font-family:'Courier New';-inkscape-font-specification:CourierNewPSMT;writing-mode:lr-tb;fill:#feffff;fill-opacity:1;fill-rule:nonzero;stroke:none"
           id="text120"><tspan
             x="0 4.5015998 9.7396746 14.241275"
             y="0"
             sodipodi:role="line"
             id="tspan118">tvec</tspan></text>
</g></g><path
       d="M 29.096,301.34 64.53,322.6 99.963,301.34 64.53,280.08 Z"
       style="fill:#3d64ac;fill-opacity:1;fill-rule:evenodd;stroke:none"
       id="path122"
       inkscape:connector-curvature="0" /><path
       d="M 29.096,301.34 64.53,322.6 99.963,301.34 64.53,280.08 Z"
       style="fill:none;stroke:#31528f;stroke-width:0.75;stroke-linecap:square;stroke-linejoin:miter;stroke-miterlimit:10;stroke-dasharray:none;stroke-opacity:1"
       id="path124"
       inkscape:connector-curvature="0" /><g
       id="g126"><g
         id="g128"
         clip-path="url(#clipPath132)"><text
           transform="matrix(1,0,0,-1,39.4,298.73)"
           style="font-variant:normal;font-weight:normal;font-size:8.27499962px;font-family:Calibri;-inkscape-font-specification:Calibri;writing-mode:lr-tb;fill:#feffff;fill-opacity:1;fill-rule:nonzero;stroke:none"
           id="text136"><tspan
             x="0 3.748575 6.7441249 10.4927 14.986025 17.989849 20.24065 24.733974 26.984776 33.753723 37.5023 40.497849 41.995625 46.488949"
             y="0"
             sodipodi:role="line"
             id="tspan134">Transformation</tspan></text>
</g></g><path
       d="m 43.27,219.27 h 42.519 c 7.828,0 14.174,6.34 14.174,14.17 0,7.83 -6.346,14.17 -14.174,14.17 H 43.27 c -7.828,0 -14.174,-6.34 -14.174,-14.17 0,-7.83 6.346,-14.17 14.174,-14.17 z"
       style="fill:#3d64ac;fill-opacity:1;fill-rule:evenodd;stroke:none"
       id="path138"
       inkscape:connector-curvature="0" /><path
       d="m 43.27,219.27 h 42.519 c 7.828,0 14.174,6.34 14.174,14.17 0,7.83 -6.346,14.17 -14.174,14.17 H 43.27 c -7.828,0 -14.174,-6.34 -14.174,-14.17 0,-7.83 6.346,-14.17 14.174,-14.17 z"
       style="fill:none;stroke:#31528f;stroke-width:0.75;stroke-linecap:square;stroke-linejoin:miter;stroke-miterlimit:10;stroke-dasharray:none;stroke-opacity:1"
       id="path140"
       inkscape:connector-curvature="0" /><g
       id="g142"><g
         id="g144"
         clip-path="url(#clipPath148)"><text
           transform="matrix(1,0,0,-1,49.15,235.52)"
           style="font-variant:normal;font-weight:normal;font-size:8.27499962px;font-family:Calibri;-inkscape-font-specification:Calibri;writing-mode:lr-tb;fill:#feffff;fill-opacity:1;fill-rule:nonzero;stroke:none"
           id="text152"><tspan
             x="0 3.7734001 9.0362997 10.5589 15.07705 19.5952 21.1178 25.63595 27.911575"
             y="0"
             sodipodi:role="line"
             id="tspan150">3D Points</tspan></text>
</g></g><g
       id="g154"><g
         id="g156"
         clip-path="url(#clipPath160)"><text
           transform="matrix(1,0,0,-1,32.2,225.9)"
           style="font-variant:normal;font-weight:normal;font-size:8.27499962px;font-family:Calibri;-inkscape-font-specification:Calibri;writing-mode:lr-tb;fill:#feffff;fill-opacity:1;fill-rule:nonzero;stroke:none"
           id="text164"><tspan
             x="0 2.2507999 5.9993749 8.2419004 11.990475 16.483801 20.232374 21.73015 23.972675 26.9765 31.469826 35.96315 38.213951 42.707275 44.205051 48.698376 52.446949 55.442501 59.191074 62.194901"
             y="0"
             sodipodi:role="line"
             id="tspan162">(global coordinates)</tspan></text>
</g></g><path
       d="M 29.096,165.55 64.53,186.81 99.963,165.55 64.53,144.29 Z"
       style="fill:#3d64ac;fill-opacity:1;fill-rule:evenodd;stroke:none"
       id="path166"
       inkscape:connector-curvature="0" /><path
       d="M 29.096,165.55 64.53,186.81 99.963,165.55 64.53,144.29 Z"
       style="fill:none;stroke:#31528f;stroke-width:0.75;stroke-linecap:square;stroke-linejoin:miter;stroke-miterlimit:10;stroke-dasharray:none;stroke-opacity:1"
       id="path168"
       inkscape:connector-curvature="0" /><g
       id="g170"><g
         id="g172"
         clip-path="url(#clipPath176)"><text
           transform="matrix(1,0,0,-1,41.625,162.68)"
           style="font-variant:normal;font-weight:normal;font-size:8.25px;font-family:Calibri;-inkscape-font-specification:Calibri;writing-mode:lr-tb;fill:#feffff;fill-opacity:1;fill-rule:nonzero;stroke:none"
           id="text180"><tspan
             x="0 5.27175 9.7845001 12.0615 18.8265 22.605 24.13125 26.4 29.42775 33.206249 36.22575 37.751999 42.264751"
             y="0"
             sodipodi:role="line"
             id="tspan178">Normalization</tspan></text>
</g></g><path
       d="m 46.813,74.976 h 35.433 c 9.785,0 17.717,10.153 17.717,22.677 0,12.527 -7.932,22.677 -17.717,22.677 H 46.813 c -9.785,0 -17.717,-10.15 -17.717,-22.677 0,-12.524 7.932,-22.677 17.717,-22.677 z"
       style="fill:#3d64ac;fill-opacity:1;fill-rule:evenodd;stroke:none"
       id="path182"
       inkscape:connector-curvature="0" /><path
       d="m 46.813,74.976 h 35.433 c 9.785,0 17.717,10.153 17.717,22.677 0,12.527 -7.932,22.677 -17.717,22.677 H 46.813 c -9.785,0 -17.717,-10.15 -17.717,-22.677 0,-12.524 7.932,-22.677 17.717,-22.677 z"
       style="fill:none;stroke:#31528f;stroke-width:0.75;stroke-linecap:square;stroke-linejoin:miter;stroke-miterlimit:10;stroke-dasharray:none;stroke-opacity:1"
       id="path184"
       inkscape:connector-curvature="0" /><g
       id="g186"><g
         id="g188"
         clip-path="url(#clipPath192)"><text
           transform="matrix(1,0,0,-1,35.325,109.17)"
           style="font-variant:normal;font-weight:normal;font-size:8.27499962px;font-family:Calibri;-inkscape-font-specification:Calibri;writing-mode:lr-tb;fill:#feffff;fill-opacity:1;fill-rule:nonzero;stroke:none"
           id="text196"><tspan
             x="0 4.4933252 8.2501755 11.99875 15.002575 16.500351 19.495899 21.7467 26.240025 32.264225 34.506748 37.510574 41.259151 48.028099 51.776676 54.772224 58.520802"
             y="0"
             sodipodi:role="line"
             id="tspan194">Rays from camera </tspan></text>
</g></g><g
       id="g198"><g
         id="g200"
         clip-path="url(#clipPath204)"><text
           transform="matrix(1,0,0,-1,54.15,99.55)"
           style="font-variant:normal;font-weight:normal;font-size:8.27499962px;font-family:Calibri;-inkscape-font-specification:Calibri;writing-mode:lr-tb;fill:#feffff;fill-opacity:1;fill-rule:nonzero;stroke:none"
           id="text208"><tspan
             x="0 3.765125 7.5385251 11.311925 14.3323 18.1057"
             y="0"
             sodipodi:role="line"
             id="tspan206">center</tspan></text>
</g></g><g
       id="g210"><g
         id="g212"
         clip-path="url(#clipPath216)"><text
           transform="matrix(1,0,0,-1,33.4,89.925)"
           style="font-variant:normal;font-weight:normal;font-size:8.25px;font-family:'Courier New';-inkscape-font-specification:CourierNewPSMT;writing-mode:lr-tb;fill:#feffff;fill-opacity:1;fill-rule:nonzero;stroke:none"
           id="text220"><tspan
             x="0 4.5209999 9.7845001 14.3055 19.569 24.09 28.611 33.8745 38.3955 43.659 48.18 52.701 57.9645"
             y="0"
             sodipodi:role="line"
             id="tspan218">forward_proje</tspan></text>
</g></g><g
       id="g222"><g
         id="g224"
         clip-path="url(#clipPath228)"><text
           transform="matrix(1,0,0,-1,43.025,80.2)"
           style="font-variant:normal;font-weight:normal;font-size:8.25px;font-family:'Courier New';-inkscape-font-specification:CourierNewPSMT;writing-mode:lr-tb;fill:#feffff;fill-opacity:1;fill-rule:nonzero;stroke:none"
           id="text232"><tspan
             x="0 4.5209999 9.7845001 14.3055 19.569 24.09 28.611 33.8745 38.3955"
             y="0"
             sodipodi:role="line"
             id="tspan230">cted_rays</tspan></text>
</g></g><path
       d="m 64.53,355.06 v -26.3"
       style="fill:none;stroke:#4672c4;stroke-width:1;stroke-linecap:round;stroke-linejoin:round;stroke-miterlimit:10;stroke-dasharray:none;stroke-opacity:1"
       id="path234"
       inkscape:connector-curvature="0" /><path
       d="m 68.05,329.64 -3.52,-7.04 -3.52,7.04 z"
       style="fill:#4672c4;fill-opacity:1;fill-rule:evenodd;stroke:none"
       id="path236"
       inkscape:connector-curvature="0" /><path
       d="M 64.53,280.08 V 253.77"
       style="fill:none;stroke:#4672c4;stroke-width:1;stroke-linecap:round;stroke-linejoin:round;stroke-miterlimit:10;stroke-dasharray:none;stroke-opacity:1"
       id="path238"
       inkscape:connector-curvature="0" /><path
       d="m 68.05,254.65 -3.52,-7.04 -3.52,7.04 z"
       style="fill:#4672c4;fill-opacity:1;fill-rule:evenodd;stroke:none"
       id="path240"
       inkscape:connector-curvature="0" /><path
       d="m 64.53,219.27 v -26.3"
       style="fill:none;stroke:#4672c4;stroke-width:1;stroke-linecap:round;stroke-linejoin:round;stroke-miterlimit:10;stroke-dasharray:none;stroke-opacity:1"
       id="path242"
       inkscape:connector-curvature="0" /><path
       d="m 68.05,193.85 -3.52,-7.04 -3.52,7.04 z"
       style="fill:#4672c4;fill-opacity:1;fill-rule:evenodd;stroke:none"
       id="path244"
       inkscape:connector-curvature="0" /><path
       d="m 128.31,29.073 h 42.52 c 7.83,0 14.17,6.345 14.17,14.173 0,7.828 -6.34,14.173 -14.17,14.173 h -42.52 c -7.83,0 -14.17,-6.345 -14.17,-14.173 0,-7.828 6.34,-14.173 14.17,-14.173 z"
       style="fill:#c55a11;fill-opacity:1;fill-rule:evenodd;stroke:none"
       id="path246"
       inkscape:connector-curvature="0" /><path
       d="m 128.31,29.073 h 42.52 c 7.83,0 14.17,6.345 14.17,14.173 0,7.828 -6.34,14.173 -14.17,14.173 h -42.52 c -7.83,0 -14.17,-6.345 -14.17,-14.173 0,-7.828 6.34,-14.173 14.17,-14.173 z"
       style="fill:none;stroke:#833c0b;stroke-width:0.75;stroke-linecap:square;stroke-linejoin:miter;stroke-miterlimit:2;stroke-dasharray:none;stroke-opacity:1"
       id="path248"
       inkscape:connector-curvature="0" /><g
       id="g250"><g
         id="g252"
         clip-path="url(#clipPath256)"><text
           transform="matrix(1,0,0,-1,130.83,40.15)"
           style="font-variant:normal;font-weight:normal;font-size:8.25px;font-family:Calibri;-inkscape-font-specification:Calibri;writing-mode:lr-tb;fill:#feffff;fill-opacity:1;fill-rule:nonzero;stroke:none"
           id="text260"><tspan
             x="0 3.7537501 8.9925003 10.494 14.97375 18.743999 22.4895 23.990999 28.479 32.23275 35.9865"
             y="0"
             sodipodi:role="line"
             id="tspan258">3D Residual</tspan></text>
</g></g><path
       d="m 216.18,80.645 h 36.85 c 9.4,0 17.01,7.615 17.01,17.008 0,9.397 -7.61,17.007 -17.01,17.007 h -36.85 c -9.39,0 -17,-7.61 -17,-17.007 0,-9.393 7.61,-17.008 17,-17.008 z"
       style="fill:#3d64ac;fill-opacity:1;fill-rule:evenodd;stroke:none"
       id="path262"
       inkscape:connector-curvature="0" /><path
       d="m 216.18,80.645 h 36.85 c 9.4,0 17.01,7.615 17.01,17.008 0,9.397 -7.61,17.007 -17.01,17.007 h -36.85 c -9.39,0 -17,-7.61 -17,-17.007 0,-9.393 7.61,-17.008 17,-17.008 z"
       style="fill:none;stroke:#31528f;stroke-width:0.75;stroke-linecap:square;stroke-linejoin:miter;stroke-miterlimit:2;stroke-dasharray:none;stroke-opacity:1"
       id="path264"
       inkscape:connector-curvature="0" /><g
       id="g266"><g
         id="g268"
         clip-path="url(#clipPath272)"><text
           transform="matrix(1,0,0,-1,218.85,104.35)"
           style="font-variant:normal;font-weight:normal;font-size:8.25px;font-family:Calibri;-inkscape-font-specification:Calibri;writing-mode:lr-tb;fill:#feffff;fill-opacity:1;fill-rule:nonzero;stroke:none"
           id="text276"><tspan
             x="0 4.5127501 8.2912502 12.0615 15.08925 16.615499 19.635 21.912001 26.424749 32.44725"
             y="0"
             sodipodi:role="line"
             id="tspan274">Rays from </tspan></text>
</g></g><g
       id="g278"><g
         id="g280"
         clip-path="url(#clipPath284)"><text
           transform="matrix(1,0,0,-1,212.8,94.75)"
           style="font-variant:normal;font-weight:normal;font-size:8.27499962px;font-family:Calibri;-inkscape-font-specification:Calibri;writing-mode:lr-tb;fill:#feffff;fill-opacity:1;fill-rule:nonzero;stroke:none"
           id="text288"><tspan
             x="0 4.5181499 8.2667246 12.784875 15.035675 18.031225 21.7798 23.277575 30.791275 34.539848 39.057999 42.806576"
             y="0"
             sodipodi:role="line"
             id="tspan286">CentralModel</tspan></text>
</g></g><g
       id="g290"><g
         id="g292"
         clip-path="url(#clipPath296)"><text
           transform="matrix(1,0,0,-1,211.13,85.025)"
           style="font-variant:normal;font-weight:normal;font-size:8.27499962px;font-family:'Courier New';-inkscape-font-specification:CourierNewPSMT;writing-mode:lr-tb;fill:#feffff;fill-opacity:1;fill-rule:nonzero;stroke:none"
           id="text300"><tspan
             x="0 4.5264249 9.7893248 14.31575 19.57865 24.105076 28.6315 33.894402 38.420826 43.683723"
             y="0"
             sodipodi:role="line"
             id="tspan298">model_rays</tspan></text>
</g></g><path
       d="m 213.35,219.27 h 42.52 c 7.83,0 14.17,6.34 14.17,14.17 0,7.83 -6.34,14.17 -14.17,14.17 h -42.52 c -7.83,0 -14.17,-6.34 -14.17,-14.17 0,-7.83 6.34,-14.17 14.17,-14.17 z"
       style="fill:#538135;fill-opacity:1;fill-rule:evenodd;stroke:none"
       id="path302"
       inkscape:connector-curvature="0" /><path
       d="m 213.35,219.27 h 42.52 c 7.83,0 14.17,6.34 14.17,14.17 0,7.83 -6.34,14.17 -14.17,14.17 h -42.52 c -7.83,0 -14.17,-6.34 -14.17,-14.17 0,-7.83 6.34,-14.17 14.17,-14.17 z"
       style="fill:none;stroke:#c8c8c8;stroke-width:0.25;stroke-linecap:square;stroke-linejoin:miter;stroke-miterlimit:2;stroke-dasharray:none;stroke-opacity:1"
       id="path304"
       inkscape:connector-curvature="0" /><g
       id="g306"><g
         id="g308"
         clip-path="url(#clipPath312)"><text
           transform="matrix(1,0,0,-1,207.15,235.52)"
           style="font-variant:normal;font-weight:normal;font-size:8.27499962px;font-family:Calibri;-inkscape-font-specification:Calibri;writing-mode:lr-tb;fill:#feffff;fill-opacity:1;fill-rule:nonzero;stroke:none"
           id="text316"><tspan
             x="0 3.748575 8.9866505 10.484425 14.97775 19.471075 20.968849 25.462175 27.712975 30.716801 32.959324 34.4571 38.950424 40.4482 44.941525 46.439301 50.1796 53.928177 56.1707"
             y="0"
             sodipodi:role="line"
             id="tspan314">2D Points in pixel </tspan></text>
</g></g><g
       id="g318"><g
         id="g320"
         clip-path="url(#clipPath324)"><text
           transform="matrix(1,0,0,-1,215.9,225.9)"
           style="font-variant:normal;font-weight:normal;font-size:8.27499962px;font-family:Calibri;-inkscape-font-specification:Calibri;writing-mode:lr-tb;fill:#feffff;fill-opacity:1;fill-rule:nonzero;stroke:none"
           id="text328"><tspan
             x="0 3.765125 7.5385251 12.056675 14.307475 18.825624 21.06815 24.841551 28.61495 31.635324 35.408726"
             y="0"
             sodipodi:role="line"
             id="tspan326">coordinates</tspan></text>
</g></g><path
       d="m 199.18,165.55 35.43,21.26 35.43,-21.26 -35.43,-21.26 z"
       style="fill:#3d64ac;fill-opacity:1;fill-rule:evenodd;stroke:none"
       id="path330"
       inkscape:connector-curvature="0" /><path
       d="m 199.18,165.55 35.43,21.26 35.43,-21.26 -35.43,-21.26 z"
       style="fill:none;stroke:#31528f;stroke-width:0.75;stroke-linecap:square;stroke-linejoin:miter;stroke-miterlimit:2;stroke-dasharray:none;stroke-opacity:1"
       id="path332"
       inkscape:connector-curvature="0" /><g
       id="g334"><g
         id="g336"
         clip-path="url(#clipPath340)"><text
           transform="matrix(1,0,0,-1,219.28,167.5)"
           style="font-variant:normal;font-weight:normal;font-size:8.27499962px;font-family:Calibri;-inkscape-font-specification:Calibri;writing-mode:lr-tb;fill:#feffff;fill-opacity:1;fill-rule:nonzero;stroke:none"
           id="text344"><tspan
             x="0 4.5015998 8.2749996 11.278825 15.04395 21.043325 24.791901 27.787451 31.536024"
             y="0"
             sodipodi:role="line"
             id="tspan342">Backward </tspan></text>
</g></g><g
       id="g346"><g
         id="g348"
         clip-path="url(#clipPath352)"><text
           transform="matrix(1,0,0,-1,218.42,157.88)"
           style="font-variant:normal;font-weight:normal;font-size:8.25px;font-family:Calibri;-inkscape-font-specification:Calibri;writing-mode:lr-tb;fill:#feffff;fill-opacity:1;fill-rule:nonzero;stroke:none"
           id="text356"><tspan
             x="0 4.5127501 6.7897501 11.3025 13.57125 17.349751 20.377501 23.396999 24.92325 29.436001"
             y="0"
             sodipodi:role="line"
             id="tspan354">projection</tspan></text>
</g></g><path
       d="m 114.14,144.29 h 70.866 v 42.52 H 114.14 Z"
       style="fill:#c55a11;fill-opacity:1;fill-rule:evenodd;stroke:none"
       id="path358"
       inkscape:connector-curvature="0" /><path
       d="m 114.14,144.29 h 70.866 v 42.52 H 114.14 Z"
       style="fill:none;stroke:#833c0b;stroke-width:0.25;stroke-linecap:square;stroke-linejoin:miter;stroke-miterlimit:2;stroke-dasharray:none;stroke-opacity:1"
       id="path360"
       inkscape:connector-curvature="0" /><g
       id="g362"><g
         id="g364"
         clip-path="url(#clipPath368)"><text
           transform="matrix(1,0,0,-1,124.05,172.3)"
           style="font-variant:normal;font-weight:normal;font-size:8.25px;font-family:Calibri;-inkscape-font-specification:Calibri;writing-mode:lr-tb;fill:#feffff;fill-opacity:1;fill-rule:nonzero;stroke:none"
           id="text372"><tspan
             x="0"
             y="0"
             id="tspan370">B</tspan></text>
</g></g><g
       id="g374"><g
         id="g376"
         clip-path="url(#clipPath380)"><text
           transform="matrix(1,0,0,-1,128.4,172.3)"
           style="font-variant:normal;font-weight:normal;font-size:8.25px;font-family:Calibri;-inkscape-font-specification:Calibri;writing-mode:lr-tb;fill:#feffff;fill-opacity:1;fill-rule:nonzero;stroke:none"
           id="text384"><tspan
             x="0"
             y="0"
             id="tspan382">-</tspan></text>
</g></g><g
       id="g386"><g
         id="g388"
         clip-path="url(#clipPath392)"><text
           transform="matrix(1,0,0,-1,130.85,172.3)"
           style="font-variant:normal;font-weight:normal;font-size:8.25px;font-family:Calibri;-inkscape-font-specification:Calibri;writing-mode:lr-tb;fill:#feffff;fill-opacity:1;fill-rule:nonzero;stroke:none"
           id="text396"><tspan
             x="0 3.7867501 8.2912502 9.7927504 11.29425 15.807 19.585501 21.85425 24.882 29.394751 33.173248 36.192749 39.21225 42.990749 45.259499"
             y="0"
             sodipodi:role="line"
             id="tspan394">Spline control </tspan></text>
</g></g><g
       id="g398"><g
         id="g400"
         clip-path="url(#clipPath404)"><text
           transform="matrix(1,0,0,-1,139.77,162.68)"
           style="font-variant:normal;font-weight:normal;font-size:8.25px;font-family:Calibri;-inkscape-font-specification:Calibri;writing-mode:lr-tb;fill:#feffff;fill-opacity:1;fill-rule:nonzero;stroke:none"
           id="text408"><tspan
             x="0 4.5127501 8.2912502 10.53525 14.31375 17.33325"
             y="0"
             sodipodi:role="line"
             id="tspan406">points</tspan></text>
</g></g><g
       id="g410"><g
         id="g412"
         clip-path="url(#clipPath416)"><text
           transform="matrix(1,0,0,-1,123.47,153.07)"
           style="font-variant:normal;font-weight:normal;font-size:8.27499962px;font-family:'Courier New';-inkscape-font-specification:CourierNewPSMT;writing-mode:lr-tb;fill:#feffff;fill-opacity:1;fill-rule:nonzero;stroke:none"
           id="text420"><tspan
             x="0 4.5015998 9.7396746 14.241275 19.479349 23.980949 28.48255 33.720627 38.222225 43.4603 47.961899"
             y="0"
             sodipodi:role="line"
             id="tspan418">spline_grid</tspan></text>
</g></g><path
       d="m 234.61,219.27 v -26.3"
       style="fill:none;stroke:#4672c4;stroke-width:1;stroke-linecap:round;stroke-linejoin:round;stroke-miterlimit:2;stroke-dasharray:none;stroke-opacity:1"
       id="path422"
       inkscape:connector-curvature="0" /><path
       d="m 238.13,193.85 -3.52,-7.04 -3.52,7.04 z"
       style="fill:#4672c4;fill-opacity:1;fill-rule:evenodd;stroke:none"
       id="path424"
       inkscape:connector-curvature="0" /><path
       d="M 234.61,144.29 V 120.82"
       style="fill:none;stroke:#4672c4;stroke-width:1;stroke-linecap:round;stroke-linejoin:round;stroke-miterlimit:2;stroke-dasharray:none;stroke-opacity:1"
       id="path426"
       inkscape:connector-curvature="0" /><path
       d="m 238.13,121.7 -3.52,-7.04 -3.52,7.04 z"
       style="fill:#4672c4;fill-opacity:1;fill-rule:evenodd;stroke:none"
       id="path428"
       inkscape:connector-curvature="0" /><path
       d="m 64.53,144.29 v -17.8"
       style="fill:none;stroke:#4672c4;stroke-width:1;stroke-linecap:round;stroke-linejoin:round;stroke-miterlimit:2;stroke-dasharray:none;stroke-opacity:1"
       id="path430"
       inkscape:connector-curvature="0" /><path
       d="m 68.05,127.37 -3.52,-7.04 -3.52,7.04 z"
       style="fill:#4672c4;fill-opacity:1;fill-rule:evenodd;stroke:none"
       id="path432"
       inkscape:connector-curvature="0" /><path
       d="m 185,165.55 h 8.02"
       style="fill:none;stroke:#4672c4;stroke-width:1;stroke-linecap:round;stroke-linejoin:round;stroke-miterlimit:2;stroke-dasharray:none;stroke-opacity:1"
       id="path434"
       inkscape:connector-curvature="0" /><path
       d="m 192.14,169.07 7.04,-3.52 -7.04,-3.52 z"
       style="fill:#4672c4;fill-opacity:1;fill-rule:evenodd;stroke:none"
       id="path436"
       inkscape:connector-curvature="0" /><path
       d="m 114.14,301.34 h -8.02"
       style="fill:none;stroke:#4672c4;stroke-width:1;stroke-linecap:round;stroke-linejoin:round;stroke-miterlimit:2;stroke-dasharray:none;stroke-opacity:1"
       id="path438"
       inkscape:connector-curvature="0" /><path
       d="m 107,297.82 -7.037,3.52 7.037,3.52 z"
       style="fill:#4672c4;fill-opacity:1;fill-rule:evenodd;stroke:none"
       id="path440"
       inkscape:connector-curvature="0" /><g
       id="g442"><path
         d="m 136.81,97.653 c 0,7.047 5.71,12.757 12.76,12.757 7.04,0 12.75,-5.71 12.75,-12.757 0,-7.045 -5.71,-12.756 -12.75,-12.756 -7.05,0 -12.76,5.711 -12.76,12.756 z"
         style="fill:url(#linearGradient458);fill-opacity:1;fill-rule:evenodd;stroke:none"
         id="path460"
         inkscape:connector-curvature="0" /></g><path
       d="m 136.81,97.653 c 0,7.047 5.71,12.757 12.76,12.757 7.04,0 12.75,-5.71 12.75,-12.757 0,-7.045 -5.71,-12.756 -12.75,-12.756 -7.05,0 -12.76,5.711 -12.76,12.756 z"
       style="fill:none;stroke:#3d64ac;stroke-width:0.75;stroke-linecap:square;stroke-linejoin:miter;stroke-miterlimit:2;stroke-dasharray:none;stroke-opacity:1"
       id="path462"
       inkscape:connector-curvature="0" /><g
       id="g464"><g
         id="g466"
         clip-path="url(#clipPath470)"><text
           transform="matrix(1,0,0,-1,147.8,92.875)"
           style="font-variant:normal;font-weight:normal;font-size:14.30000019px;font-family:Calibri;-inkscape-font-specification:Calibri;writing-mode:lr-tb;fill:#3d64ac;fill-opacity:1;fill-rule:nonzero;stroke:none"
           id="text474"><tspan
             x="0"
             y="0"
             id="tspan472">-</tspan></text>
</g></g><path
       d="M 99.963,97.653 H 130.65"
       style="fill:none;stroke:#4672c4;stroke-width:1;stroke-linecap:round;stroke-linejoin:round;stroke-miterlimit:2;stroke-dasharray:none;stroke-opacity:1"
       id="path476"
       inkscape:connector-curvature="0" /><path
       d="m 129.77,101.17 7.04,-3.517 -7.04,-3.52 z"
       style="fill:#4672c4;fill-opacity:1;fill-rule:evenodd;stroke:none"
       id="path478"
       inkscape:connector-curvature="0" /><path
       d="m 199.18,97.653 h -30.7"
       style="fill:none;stroke:#4672c4;stroke-width:1;stroke-linecap:round;stroke-linejoin:round;stroke-miterlimit:2;stroke-dasharray:none;stroke-opacity:1"
       id="path480"
       inkscape:connector-curvature="0" /><path
       d="m 169.36,94.133 -7.04,3.52 7.04,3.517 z"
       style="fill:#4672c4;fill-opacity:1;fill-rule:evenodd;stroke:none"
       id="path482"
       inkscape:connector-curvature="0" /><path
       d="M 149.57,84.897 V 63.579"
       style="fill:none;stroke:#4672c4;stroke-width:1;stroke-linecap:round;stroke-linejoin:round;stroke-miterlimit:2;stroke-dasharray:none;stroke-opacity:1"
       id="path484"
       inkscape:connector-curvature="0" /><path
       d="m 153.09,64.459 -3.52,-7.04 -3.52,7.04 z"
       style="fill:#4672c4;fill-opacity:1;fill-rule:evenodd;stroke:none"
       id="path486"
       inkscape:connector-curvature="0" /></g></svg>