<?xml version="1.0" encoding="UTF-8" standalone="no"?>
<!-- Created with Inkscape (http://www.inkscape.org/) -->

<svg
   xmlns:dc="http://purl.org/dc/elements/1.1/"
   xmlns:cc="http://creativecommons.org/ns#"
   xmlns:rdf="http://www.w3.org/1999/02/22-rdf-syntax-ns#"
   xmlns:svg="http://www.w3.org/2000/svg"
   xmlns="http://www.w3.org/2000/svg"
   xmlns:sodipodi="http://sodipodi.sourceforge.net/DTD/sodipodi-0.dtd"
   xmlns:inkscape="http://www.inkscape.org/namespaces/inkscape"
   version="1.1"
   id="svg386"
   xml:space="preserve"
   width="284.59714"
   height="569.51996"
   viewBox="0 0 284.59714 569.51996"
   sodipodi:docname="Residual_Calculation_3.svg"
   inkscape:version="0.92.4 (5da689c313, 2019-01-14)"><metadata
     id="metadata392"><rdf:RDF><cc:Work
         rdf:about=""><dc:format>image/svg+xml</dc:format><dc:type
           rdf:resource="http://purl.org/dc/dcmitype/StillImage" /><dc:title></dc:title></cc:Work></rdf:RDF></metadata><defs
     id="defs390"><clipPath
       clipPathUnits="userSpaceOnUse"
       id="clipPath402"><path
         d="M 0,6.1035e-5 H 270 V 483.75006 H 0 Z"
         id="path400"
         inkscape:connector-curvature="0"
         style="clip-rule:evenodd" /></clipPath><clipPath
       clipPathUnits="userSpaceOnUse"
       id="clipPath416"><path
         d="M 4.023e-6,0 H 270 V 483.75 H 4.023e-6 Z"
         id="path414"
         inkscape:connector-curvature="0"
         style="clip-rule:evenodd" /></clipPath><clipPath
       clipPathUnits="userSpaceOnUse"
       id="clipPath428"><path
         d="M 4.023e-6,0 H 270 V 483.75 H 4.023e-6 Z"
         id="path426"
         inkscape:connector-curvature="0"
         style="clip-rule:evenodd" /></clipPath><clipPath
       clipPathUnits="userSpaceOnUse"
       id="clipPath444"><path
         d="M 4.023e-6,0 H 270 V 483.75 H 4.023e-6 Z"
         id="path442"
         inkscape:connector-curvature="0"
         style="clip-rule:evenodd" /></clipPath><clipPath
       clipPathUnits="userSpaceOnUse"
       id="clipPath456"><path
         d="M 4.023e-6,0 H 270 V 483.75 H 4.023e-6 Z"
         id="path454"
         inkscape:connector-curvature="0"
         style="clip-rule:evenodd" /></clipPath><clipPath
       clipPathUnits="userSpaceOnUse"
       id="clipPath472"><path
         d="M 4.023e-6,0 H 270 V 483.75 H 4.023e-6 Z"
         id="path470"
         inkscape:connector-curvature="0"
         style="clip-rule:evenodd" /></clipPath><clipPath
       clipPathUnits="userSpaceOnUse"
       id="clipPath488"><path
         d="M 4.023e-6,0 H 270 V 483.75 H 4.023e-6 Z"
         id="path486"
         inkscape:connector-curvature="0"
         style="clip-rule:evenodd" /></clipPath><clipPath
       clipPathUnits="userSpaceOnUse"
       id="clipPath500"><path
         d="M 4.023e-6,0 H 270 V 483.75 H 4.023e-6 Z"
         id="path498"
         inkscape:connector-curvature="0"
         style="clip-rule:evenodd" /></clipPath><clipPath
       clipPathUnits="userSpaceOnUse"
       id="clipPath516"><path
         d="M 4.023e-6,0 H 270 V 483.75 H 4.023e-6 Z"
         id="path514"
         inkscape:connector-curvature="0"
         style="clip-rule:evenodd" /></clipPath><clipPath
       clipPathUnits="userSpaceOnUse"
       id="clipPath532"><path
         d="M 4.023e-6,0 H 270 V 483.75 H 4.023e-6 Z"
         id="path530"
         inkscape:connector-curvature="0"
         style="clip-rule:evenodd" /></clipPath><clipPath
       clipPathUnits="userSpaceOnUse"
       id="clipPath544"><path
         d="M 4.023e-6,0 H 270 V 483.75 H 4.023e-6 Z"
         id="path542"
         inkscape:connector-curvature="0"
         style="clip-rule:evenodd" /></clipPath><clipPath
       clipPathUnits="userSpaceOnUse"
       id="clipPath572"><path
         d="M 4.023e-6,0 H 270 V 483.75 H 4.023e-6 Z"
         id="path570"
         inkscape:connector-curvature="0"
         style="clip-rule:evenodd" /></clipPath><clipPath
       clipPathUnits="userSpaceOnUse"
       id="clipPath588"><path
         d="M 4.023e-6,0 H 270 V 483.75 H 4.023e-6 Z"
         id="path586"
         inkscape:connector-curvature="0"
         style="clip-rule:evenodd" /></clipPath><clipPath
       clipPathUnits="userSpaceOnUse"
       id="clipPath600"><path
         d="M 4.023e-6,0 H 270 V 483.75 H 4.023e-6 Z"
         id="path598"
         inkscape:connector-curvature="0"
         style="clip-rule:evenodd" /></clipPath><clipPath
       clipPathUnits="userSpaceOnUse"
       id="clipPath616"><path
         d="M 4.023e-6,0 H 270 V 483.75 H 4.023e-6 Z"
         id="path614"
         inkscape:connector-curvature="0"
         style="clip-rule:evenodd" /></clipPath><clipPath
       clipPathUnits="userSpaceOnUse"
       id="clipPath628"><path
         d="M 4.023e-6,0 H 270 V 483.75 H 4.023e-6 Z"
         id="path626"
         inkscape:connector-curvature="0"
         style="clip-rule:evenodd" /></clipPath><clipPath
       clipPathUnits="userSpaceOnUse"
       id="clipPath644"><path
         d="M 4.023e-6,0 H 270 V 483.75 H 4.023e-6 Z"
         id="path642"
         inkscape:connector-curvature="0"
         style="clip-rule:evenodd" /></clipPath><clipPath
       clipPathUnits="userSpaceOnUse"
       id="clipPath656"><path
         d="M 4.023e-6,0 H 270 V 483.75 H 4.023e-6 Z"
         id="path654"
         inkscape:connector-curvature="0"
         style="clip-rule:evenodd" /></clipPath><clipPath
       clipPathUnits="userSpaceOnUse"
       id="clipPath668"><path
         d="M 4.023e-6,0 H 270 V 483.75 H 4.023e-6 Z"
         id="path666"
         inkscape:connector-curvature="0"
         style="clip-rule:evenodd" /></clipPath><clipPath
       clipPathUnits="userSpaceOnUse"
       id="clipPath680"><path
         d="M 4.023e-6,0 H 270 V 483.75 H 4.023e-6 Z"
         id="path678"
         inkscape:connector-curvature="0"
         style="clip-rule:evenodd" /></clipPath><clipPath
       clipPathUnits="userSpaceOnUse"
       id="clipPath708"><path
         d="M 4.023e-6,0 H 270 V 483.75 H 4.023e-6 Z"
         id="path706"
         inkscape:connector-curvature="0"
         style="clip-rule:evenodd" /></clipPath><clipPath
       clipPathUnits="userSpaceOnUse"
       id="clipPath732"><path
         d="M 4.023e-6,0 H 270 V 483.75 H 4.023e-6 Z"
         id="path730"
         inkscape:connector-curvature="0"
         style="clip-rule:evenodd" /></clipPath><clipPath
       clipPathUnits="userSpaceOnUse"
       id="clipPath744"><path
         d="M 4.023e-6,0 H 270 V 483.75 H 4.023e-6 Z"
         id="path742"
         inkscape:connector-curvature="0"
         style="clip-rule:evenodd" /></clipPath></defs><sodipodi:namedview
     pagecolor="#ffffff"
     bordercolor="#666666"
     borderopacity="1"
     objecttolerance="10"
     gridtolerance="10"
     guidetolerance="10"
     inkscape:pageopacity="0"
     inkscape:pageshadow="2"
     inkscape:window-width="1920"
     inkscape:window-height="1017"
     id="namedview388"
     showgrid="false"
     inkscape:zoom="0.73178295"
     inkscape:cx="390.65295"
     inkscape:cy="249.75136"
     inkscape:window-x="1912"
     inkscape:window-y="-8"
     inkscape:window-maximized="1"
     inkscape:current-layer="g394" /><g
     id="g394"
     inkscape:groupmode="layer"
     inkscape:label="Residual_Calculation"
     transform="matrix(1.3333333,0,0,-1.3333333,-38.809514,607.03332)"><path
       d="m 44.012,426.81 h 42.519 c 7.828,0 14.169,6.34 14.169,14.17 0,7.83 -6.341,14.17 -14.169,14.17 H 44.012 c -7.828,0 -14.174,-6.34 -14.174,-14.17 0,-7.83 6.346,-14.17 14.174,-14.17 z"
       style="fill:#538135;fill-opacity:1;fill-rule:evenodd;stroke:none"
       id="path406"
       inkscape:connector-curvature="0" /><path
       d="m 44.012,426.81 h 42.519 c 7.828,0 14.169,6.34 14.169,14.17 0,7.83 -6.341,14.17 -14.169,14.17 H 44.012 c -7.828,0 -14.174,-6.34 -14.174,-14.17 0,-7.83 6.346,-14.17 14.174,-14.17 z"
       style="fill:none;stroke:#c8c8c8;stroke-width:0.25;stroke-linecap:square;stroke-linejoin:miter;stroke-miterlimit:10;stroke-dasharray:none;stroke-opacity:1"
       id="path408"
       inkscape:connector-curvature="0" /><g
       id="g410"><g
         id="g412"
         clip-path="url(#clipPath416)"><text
           transform="matrix(1,0,0,-1,49.925,443.33)"
           style="font-variant:normal;font-weight:normal;font-size:8.27499962px;font-family:Calibri;-inkscape-font-specification:Calibri;writing-mode:lr-tb;fill:#feffff;fill-opacity:1;fill-rule:nonzero;stroke:none"
           id="text420"><tspan
             x="0 3.748575 8.9866505 10.484425 14.97775 19.471075 20.968849 25.462175 27.712975"
             y="0"
             sodipodi:role="line"
             id="tspan418">3D Points</tspan></text>
</g></g><g
       id="g422"><g
         id="g424"
         clip-path="url(#clipPath428)"><text
           transform="matrix(1,0,0,-1,35.25,433.7)"
           style="font-variant:normal;font-weight:normal;font-size:8.25px;font-family:Calibri;-inkscape-font-specification:Calibri;writing-mode:lr-tb;fill:#feffff;fill-opacity:1;fill-rule:nonzero;stroke:none"
           id="text432"><tspan
             x="0 2.25225 4.4962502 8.25 11.9955 15.74925 17.25075 19.494749 22.497749 26.98575 31.473749 33.726002 38.214001 39.7155 44.203499 47.957249 50.952 54.70575 57.708752"
             y="0"
             sodipodi:role="line"
             id="tspan430">(local coordinates)</tspan></text>
</g></g><path
       d="m 123.38,361.61 h 70.866 v 42.52 H 123.38 Z"
       style="fill:#c55a11;fill-opacity:1;fill-rule:evenodd;stroke:none"
       id="path434"
       inkscape:connector-curvature="0" /><path
       d="m 123.38,361.61 h 70.866 v 42.52 H 123.38 Z"
       style="fill:none;stroke:#833c0b;stroke-width:0.25;stroke-linecap:square;stroke-linejoin:miter;stroke-miterlimit:10;stroke-dasharray:none;stroke-opacity:1"
       id="path436"
       inkscape:connector-curvature="0" /><g
       id="g438"><g
         id="g440"
         clip-path="url(#clipPath444)"><text
           transform="matrix(1,0,0,-1,136.45,385.13)"
           style="font-variant:normal;font-weight:normal;font-size:8.27499962px;font-family:Calibri;-inkscape-font-specification:Calibri;writing-mode:lr-tb;fill:#feffff;fill-opacity:1;fill-rule:nonzero;stroke:none"
           id="text448"><tspan
             x="0 4.4933252 8.2419004 12.735225 15.73905 19.504175 23.2362 26.23175 30.725075 34.473652 38.222225 41.217773 45.711102"
             y="0"
             sodipodi:role="line"
             id="tspan446">Checkerboard </tspan></text>
</g></g><g
       id="g450"><g
         id="g452"
         clip-path="url(#clipPath456)"><text
           transform="matrix(1,0,0,-1,144,375.5)"
           style="font-variant:normal;font-weight:normal;font-size:8.25px;font-family:Calibri;-inkscape-font-specification:Calibri;writing-mode:lr-tb;fill:#feffff;fill-opacity:1;fill-rule:nonzero;stroke:none"
           id="text460"><tspan
             x="0 3.7537501 7.4992499 9.7515001 12.74625 14.99025 18.743999 21.747 23.990999 26.993999 30.7395"
             y="0"
             sodipodi:role="line"
             id="tspan458">extrinsics </tspan></text>
</g></g><path
       d="M 29.838,382.87 65.271,404.13 100.7,382.87 65.271,361.61 Z"
       style="fill:#3d64ac;fill-opacity:1;fill-rule:evenodd;stroke:none"
       id="path462"
       inkscape:connector-curvature="0" /><path
       d="M 29.838,382.87 65.271,404.13 100.7,382.87 65.271,361.61 Z"
       style="fill:none;stroke:#31528f;stroke-width:0.75;stroke-linecap:square;stroke-linejoin:miter;stroke-miterlimit:10;stroke-dasharray:none;stroke-opacity:1"
       id="path464"
       inkscape:connector-curvature="0" /><g
       id="g466"><g
         id="g468"
         clip-path="url(#clipPath472)"><text
           transform="matrix(1,0,0,-1,40.15,380.3)"
           style="font-variant:normal;font-weight:normal;font-size:8.25px;font-family:Calibri;-inkscape-font-specification:Calibri;writing-mode:lr-tb;fill:#feffff;fill-opacity:1;fill-rule:nonzero;stroke:none"
           id="text476"><tspan
             x="0 3.7785001 6.7732501 10.55175 15.0645 18.067499 20.31975 24.8325 27.084749 33.849751 37.62825 40.623001 42.1245 46.637249"
             y="0"
             sodipodi:role="line"
             id="tspan474">Transformation</tspan></text>
</g></g><path
       d="m 44.012,310.59 h 42.519 c 7.828,0 14.169,6.34 14.169,14.17 0,7.83 -6.341,14.17 -14.169,14.17 H 44.012 c -7.828,0 -14.174,-6.34 -14.174,-14.17 0,-7.83 6.346,-14.17 14.174,-14.17 z"
       style="fill:#3d64ac;fill-opacity:1;fill-rule:evenodd;stroke:none"
       id="path478"
       inkscape:connector-curvature="0" /><path
       d="m 44.012,310.59 h 42.519 c 7.828,0 14.169,6.34 14.169,14.17 0,7.83 -6.341,14.17 -14.169,14.17 H 44.012 c -7.828,0 -14.174,-6.34 -14.174,-14.17 0,-7.83 6.346,-14.17 14.174,-14.17 z"
       style="fill:none;stroke:#31528f;stroke-width:0.75;stroke-linecap:square;stroke-linejoin:miter;stroke-miterlimit:10;stroke-dasharray:none;stroke-opacity:1"
       id="path480"
       inkscape:connector-curvature="0" /><g
       id="g482"><g
         id="g484"
         clip-path="url(#clipPath488)"><text
           transform="matrix(1,0,0,-1,49.925,326.92)"
           style="font-variant:normal;font-weight:normal;font-size:8.27499962px;font-family:Calibri;-inkscape-font-specification:Calibri;writing-mode:lr-tb;fill:#feffff;fill-opacity:1;fill-rule:nonzero;stroke:none"
           id="text492"><tspan
             x="0 3.748575 8.9866505 10.484425 14.97775 19.471075 20.968849 25.462175 27.712975"
             y="0"
             sodipodi:role="line"
             id="tspan490">3D Points</tspan></text>
</g></g><g
       id="g494"><g
         id="g496"
         clip-path="url(#clipPath500)"><text
           transform="matrix(1,0,0,-1,32.95,317.3)"
           style="font-variant:normal;font-weight:normal;font-size:8.25px;font-family:Calibri;-inkscape-font-specification:Calibri;writing-mode:lr-tb;fill:#feffff;fill-opacity:1;fill-rule:nonzero;stroke:none"
           id="text504"><tspan
             x="0 2.25225 6.006 8.25 12.00375 16.5165 20.27025 21.771749 24.015751 27.018749 31.5315 36.04425 38.296501 42.80925 44.310749 48.823502 52.577251 55.571999 59.325748 62.328751"
             y="0"
             sodipodi:role="line"
             id="tspan502">(global coordinates)</tspan></text>
</g></g><path
       d="M 29.836,266.65 65.269,287.91 100.7,266.65 65.269,245.39 Z"
       style="fill:#3d64ac;fill-opacity:1;fill-rule:evenodd;stroke:none"
       id="path506"
       inkscape:connector-curvature="0" /><path
       d="M 29.836,266.65 65.269,287.91 100.7,266.65 65.269,245.39 Z"
       style="fill:none;stroke:#31528f;stroke-width:0.75;stroke-linecap:square;stroke-linejoin:miter;stroke-miterlimit:10;stroke-dasharray:none;stroke-opacity:1"
       id="path508"
       inkscape:connector-curvature="0" /><g
       id="g510"><g
         id="g512"
         clip-path="url(#clipPath516)"><text
           transform="matrix(1,0,0,-1,42.4,263.9)"
           style="font-variant:normal;font-weight:normal;font-size:8.25px;font-family:Calibri;-inkscape-font-specification:Calibri;writing-mode:lr-tb;fill:#feffff;fill-opacity:1;fill-rule:nonzero;stroke:none"
           id="text520"><tspan
             x="0 5.2470002 9.7349997 11.98725 18.727501 22.481251 23.98275 26.226749 29.22975 32.983501 35.978249 37.479752 41.967751"
             y="0"
             sodipodi:role="line"
             id="tspan518">Normalization</tspan></text>
</g></g><path
       d="m 44.009,194.37 h 42.52 c 7.828,0 14.171,6.34 14.171,14.17 0,7.83 -6.343,14.17 -14.171,14.17 h -42.52 c -7.828,0 -14.173,-6.34 -14.173,-14.17 0,-7.83 6.345,-14.17 14.173,-14.17 z"
       style="fill:#3d64ac;fill-opacity:1;fill-rule:evenodd;stroke:none"
       id="path522"
       inkscape:connector-curvature="0" /><path
       d="m 44.009,194.37 h 42.52 c 7.828,0 14.171,6.34 14.171,14.17 0,7.83 -6.343,14.17 -14.171,14.17 h -42.52 c -7.828,0 -14.173,-6.34 -14.173,-14.17 0,-7.83 6.345,-14.17 14.173,-14.17 z"
       style="fill:none;stroke:#31528f;stroke-width:0.75;stroke-linecap:square;stroke-linejoin:miter;stroke-miterlimit:10;stroke-dasharray:none;stroke-opacity:1"
       id="path524"
       inkscape:connector-curvature="0" /><g
       id="g526"><g
         id="g528"
         clip-path="url(#clipPath532)"><text
           transform="matrix(1,0,0,-1,36.075,210.52)"
           style="font-variant:normal;font-weight:normal;font-size:8.27499962px;font-family:Calibri;-inkscape-font-specification:Calibri;writing-mode:lr-tb;fill:#feffff;fill-opacity:1;fill-rule:nonzero;stroke:none"
           id="text536"><tspan
             x="0 4.4933252 8.2501755 11.99875 15.002575 16.500351 19.495899 21.7467 26.240025 32.264225 34.506748 37.510574 41.259151 48.028099 51.776676 54.772224 58.520802"
             y="0"
             sodipodi:role="line"
             id="tspan534">Rays from camera </tspan></text>
</g></g><g
       id="g538"><g
         id="g540"
         clip-path="url(#clipPath544)"><text
           transform="matrix(1,0,0,-1,54.925,200.9)"
           style="font-variant:normal;font-weight:normal;font-size:8.25px;font-family:Calibri;-inkscape-font-specification:Calibri;writing-mode:lr-tb;fill:#feffff;fill-opacity:1;fill-rule:nonzero;stroke:none"
           id="text548"><tspan
             x="0 3.7455001 7.4992499 11.253 14.24775 18.001499"
             y="0"
             sodipodi:role="line"
             id="tspan546">center</tspan></text>
</g></g><path
       d="M 65.271,426.81 V 410.29"
       style="fill:none;stroke:#4672c4;stroke-width:1;stroke-linecap:round;stroke-linejoin:round;stroke-miterlimit:10;stroke-dasharray:none;stroke-opacity:1"
       id="path550"
       inkscape:connector-curvature="0" /><path
       d="m 68.791,411.17 -3.52,-7.04 -3.52,7.04 z"
       style="fill:#4672c4;fill-opacity:1;fill-rule:evenodd;stroke:none"
       id="path552"
       inkscape:connector-curvature="0" /><path
       d="M 65.271,361.61 V 345.09"
       style="fill:none;stroke:#4672c4;stroke-width:1;stroke-linecap:round;stroke-linejoin:round;stroke-miterlimit:10;stroke-dasharray:none;stroke-opacity:1"
       id="path554"
       inkscape:connector-curvature="0" /><path
       d="m 68.791,345.97 -3.52,-7.04 -3.52,7.04 z"
       style="fill:#4672c4;fill-opacity:1;fill-rule:evenodd;stroke:none"
       id="path556"
       inkscape:connector-curvature="0" /><path
       d="m 65.271,310.59 v -10.63 h -0.002 v -5.89"
       style="fill:none;stroke:#4672c4;stroke-width:1;stroke-linecap:round;stroke-linejoin:round;stroke-miterlimit:10;stroke-dasharray:none;stroke-opacity:1"
       id="path558"
       inkscape:connector-curvature="0" /><path
       d="m 68.789,294.95 -3.52,-7.04 -3.52,7.04 z"
       style="fill:#4672c4;fill-opacity:1;fill-rule:evenodd;stroke:none"
       id="path560"
       inkscape:connector-curvature="0" /><path
       d="m 114.88,28.51 h 42.51 c 7.83,0 14.18,6.345 14.18,14.173 0,7.828 -6.35,14.173 -14.18,14.173 h -42.51 c -7.83,0 -14.18,-6.345 -14.18,-14.173 0,-7.828 6.35,-14.173 14.18,-14.173 z"
       style="fill:#c55a11;fill-opacity:1;fill-rule:evenodd;stroke:none"
       id="path562"
       inkscape:connector-curvature="0" /><path
       d="m 114.88,28.51 h 42.51 c 7.83,0 14.18,6.345 14.18,14.173 0,7.828 -6.35,14.173 -14.18,14.173 h -42.51 c -7.83,0 -14.18,-6.345 -14.18,-14.173 0,-7.828 6.35,-14.173 14.18,-14.173 z"
       style="fill:none;stroke:#833c0b;stroke-width:0.75;stroke-linecap:square;stroke-linejoin:miter;stroke-miterlimit:2;stroke-dasharray:none;stroke-opacity:1"
       id="path564"
       inkscape:connector-curvature="0" /><g
       id="g566"><g
         id="g568"
         clip-path="url(#clipPath572)"><text
           transform="matrix(1,0,0,-1,117.37,39.6)"
           style="font-variant:normal;font-weight:normal;font-size:8.25px;font-family:Calibri;-inkscape-font-specification:Calibri;writing-mode:lr-tb;fill:#feffff;fill-opacity:1;fill-rule:nonzero;stroke:none"
           id="text576"><tspan
             x="0 3.7785001 9.0419998 10.56825 15.081 18.859501 22.629749 24.156 28.668751 32.44725 36.22575"
             y="0"
             sodipodi:role="line"
             id="tspan574">2D Residual</tspan></text>
</g></g><path
       d="m 185.74,78.116 h 42.52 c 7.83,0 14.17,6.346 14.17,14.173 0,7.831 -6.34,14.171 -14.17,14.171 h -42.52 c -7.83,0 -14.17,-6.34 -14.17,-14.171 0,-7.827 6.34,-14.173 14.17,-14.173 z"
       style="fill:#538135;fill-opacity:1;fill-rule:evenodd;stroke:none"
       id="path578"
       inkscape:connector-curvature="0" /><path
       d="m 185.74,78.116 h 42.52 c 7.83,0 14.17,6.346 14.17,14.173 0,7.831 -6.34,14.171 -14.17,14.171 h -42.52 c -7.83,0 -14.17,-6.34 -14.17,-14.171 0,-7.827 6.34,-14.173 14.17,-14.173 z"
       style="fill:none;stroke:#c8c8c8;stroke-width:0.25;stroke-linecap:square;stroke-linejoin:miter;stroke-miterlimit:2;stroke-dasharray:none;stroke-opacity:1"
       id="path580"
       inkscape:connector-curvature="0" /><g
       id="g582"><g
         id="g584"
         clip-path="url(#clipPath588)"><text
           transform="matrix(1,0,0,-1,192.02,94.1)"
           style="font-variant:normal;font-weight:normal;font-size:8.27499962px;font-family:Calibri;-inkscape-font-specification:Calibri;writing-mode:lr-tb;fill:#feffff;fill-opacity:1;fill-rule:nonzero;stroke:none"
           id="text592"><tspan
             x="0 3.7734001 9.0362997 10.5589 15.07705 19.5952 21.1178 25.63595 27.911575 30.940226"
             y="0"
             sodipodi:role="line"
             id="tspan590">2D Points </tspan></text>
</g></g><g
       id="g594"><g
         id="g596"
         clip-path="url(#clipPath600)"><text
           transform="matrix(1,0,0,-1,177.25,84.475)"
           style="font-variant:normal;font-weight:normal;font-size:8.25px;font-family:Calibri;-inkscape-font-specification:Calibri;writing-mode:lr-tb;fill:#feffff;fill-opacity:1;fill-rule:nonzero;stroke:none"
           id="text604"><tspan
             x="0 2.277 6.7897501 8.316 12.08625 15.86475 18.133499 19.65975 23.43 27.2085 31.721251 34.740749 38.519249 40.787998 44.566502 48.345001 51.364498 55.143002 58.17075"
             y="0"
             sodipodi:role="line"
             id="tspan602">(pixel coordinates)</tspan></text>
</g></g><path
       d="M 29.836,150.43 65.269,171.69 100.7,150.43 65.269,129.17 Z"
       style="fill:#3d64ac;fill-opacity:1;fill-rule:evenodd;stroke:none"
       id="path606"
       inkscape:connector-curvature="0" /><path
       d="M 29.836,150.43 65.269,171.69 100.7,150.43 65.269,129.17 Z"
       style="fill:none;stroke:#31528f;stroke-width:0.75;stroke-linecap:square;stroke-linejoin:miter;stroke-miterlimit:2;stroke-dasharray:none;stroke-opacity:1"
       id="path608"
       inkscape:connector-curvature="0" /><g
       id="g610"><g
         id="g612"
         clip-path="url(#clipPath616)"><text
           transform="matrix(1,0,0,-1,51.8,152.32)"
           style="font-variant:normal;font-weight:normal;font-size:8.27499962px;font-family:Calibri;-inkscape-font-specification:Calibri;writing-mode:lr-tb;fill:#feffff;fill-opacity:1;fill-rule:nonzero;stroke:none"
           id="text620"><tspan
             x="0 3.748575 8.2419004 10.4927 16.508625 20.2572 23.25275"
             y="0"
             sodipodi:role="line"
             id="tspan618">Forward</tspan></text>
</g></g><g
       id="g622"><g
         id="g624"
         clip-path="url(#clipPath628)"><text
           transform="matrix(1,0,0,-1,48.725,142.7)"
           style="font-variant:normal;font-weight:normal;font-size:8.25px;font-family:Calibri;-inkscape-font-specification:Calibri;writing-mode:lr-tb;fill:#feffff;fill-opacity:1;fill-rule:nonzero;stroke:none"
           id="text632"><tspan
             x="0 4.5127501 6.7649999 11.27775 12.77925 17.292 20.295 23.289749 24.79125 29.304001"
             y="0"
             sodipodi:role="line"
             id="tspan630">Projection</tspan></text>
</g></g><path
       d="m 123.38,129.17 h 70.866 v 42.52 H 123.38 Z"
       style="fill:#c55a11;fill-opacity:1;fill-rule:evenodd;stroke:none"
       id="path634"
       inkscape:connector-curvature="0" /><path
       d="m 123.38,129.17 h 70.866 v 42.52 H 123.38 Z"
       style="fill:none;stroke:#833c0b;stroke-width:0.25;stroke-linecap:square;stroke-linejoin:miter;stroke-miterlimit:2;stroke-dasharray:none;stroke-opacity:1"
       id="path636"
       inkscape:connector-curvature="0" /><g
       id="g638"><g
         id="g640"
         clip-path="url(#clipPath644)"><text
           transform="matrix(1,0,0,-1,133.35,152.4)"
           style="font-variant:normal;font-weight:normal;font-size:8.27499962px;font-family:Calibri;-inkscape-font-specification:Calibri;writing-mode:lr-tb;fill:#feffff;fill-opacity:1;fill-rule:nonzero;stroke:none"
           id="text648"><tspan
             x="0"
             y="0"
             id="tspan646">B</tspan></text>
</g></g><g
       id="g650"><g
         id="g652"
         clip-path="url(#clipPath656)"><text
           transform="matrix(1,0,0,-1,137.7,152.4)"
           style="font-variant:normal;font-weight:normal;font-size:8.27499962px;font-family:Calibri;-inkscape-font-specification:Calibri;writing-mode:lr-tb;fill:#feffff;fill-opacity:1;fill-rule:nonzero;stroke:none"
           id="text660"><tspan
             x="0"
             y="0"
             id="tspan658">-</tspan></text>
</g></g><g
       id="g662"><g
         id="g664"
         clip-path="url(#clipPath668)"><text
           transform="matrix(1,0,0,-1,140.15,152.4)"
           style="font-variant:normal;font-weight:normal;font-size:8.27499962px;font-family:Calibri;-inkscape-font-specification:Calibri;writing-mode:lr-tb;fill:#feffff;fill-opacity:1;fill-rule:nonzero;stroke:none"
           id="text672"><tspan
             x="0 3.7982249 8.2915497 9.8141499 11.33675 15.8549 19.6283 21.895651 24.924299 29.44245 33.215851 36.236225 39.256599 43.029999 45.297352"
             y="0"
             sodipodi:role="line"
             id="tspan670">Spline control </tspan></text>
</g></g><g
       id="g674"><g
         id="g676"
         clip-path="url(#clipPath680)"><text
           transform="matrix(1,0,0,-1,149.08,142.68)"
           style="font-variant:normal;font-weight:normal;font-size:8.27499962px;font-family:Calibri;-inkscape-font-specification:Calibri;writing-mode:lr-tb;fill:#feffff;fill-opacity:1;fill-rule:nonzero;stroke:none"
           id="text684"><tspan
             x="0 4.5181499 8.2915497 10.5589 14.3323 17.352674"
             y="0"
             sodipodi:role="line"
             id="tspan682">points</tspan></text>
</g></g><path
       d="M 65.269,245.39 V 228.87"
       style="fill:none;stroke:#4672c4;stroke-width:1;stroke-linecap:round;stroke-linejoin:round;stroke-miterlimit:2;stroke-dasharray:none;stroke-opacity:1"
       id="path686"
       inkscape:connector-curvature="0" /><path
       d="m 68.789,229.75 -3.52,-7.04 -3.52,7.04 z"
       style="fill:#4672c4;fill-opacity:1;fill-rule:evenodd;stroke:none"
       id="path688"
       inkscape:connector-curvature="0" /><path
       d="M 123.38,382.87 H 106.86"
       style="fill:none;stroke:#4672c4;stroke-width:1;stroke-linecap:round;stroke-linejoin:round;stroke-miterlimit:2;stroke-dasharray:none;stroke-opacity:1"
       id="path690"
       inkscape:connector-curvature="0" /><path
       d="m 107.74,379.35 -7.04,3.52 7.04,3.52 z"
       style="fill:#4672c4;fill-opacity:1;fill-rule:evenodd;stroke:none"
       id="path692"
       inkscape:connector-curvature="0" /><path
       d="M 65.269,194.37 V 177.85"
       style="fill:none;stroke:#4672c4;stroke-width:1;stroke-linecap:round;stroke-linejoin:round;stroke-miterlimit:2;stroke-dasharray:none;stroke-opacity:1"
       id="path694"
       inkscape:connector-curvature="0" /><path
       d="m 68.789,178.73 -3.52,-7.04 -3.52,7.04 z"
       style="fill:#4672c4;fill-opacity:1;fill-rule:evenodd;stroke:none"
       id="path696"
       inkscape:connector-curvature="0" /><path
       d="m 123.38,92.289 c 0,7.045 5.71,12.761 12.76,12.761 7.04,0 12.75,-5.716 12.75,-12.761 0,-7.045 -5.71,-12.756 -12.75,-12.756 -7.05,0 -12.76,5.711 -12.76,12.756 z"
       style="fill:#4672c4;fill-opacity:1;fill-rule:evenodd;stroke:none"
       id="path698"
       inkscape:connector-curvature="0" /><path
       d="m 123.38,92.289 c 0,7.045 5.71,12.761 12.76,12.761 7.04,0 12.75,-5.716 12.75,-12.761 0,-7.045 -5.71,-12.756 -12.75,-12.756 -7.05,0 -12.76,5.711 -12.76,12.756 z"
       style="fill:none;stroke:#c8c8c8;stroke-width:0.25;stroke-linecap:square;stroke-linejoin:miter;stroke-miterlimit:2;stroke-dasharray:none;stroke-opacity:1"
       id="path700"
       inkscape:connector-curvature="0" /><g
       id="g702"><g
         id="g704"
         clip-path="url(#clipPath708)"><text
           transform="matrix(1,0,0,-1,130.98,80.875)"
           style="font-variant:normal;font-weight:normal;font-size:36.04999924px;font-family:Calibri;-inkscape-font-specification:Calibri;writing-mode:lr-tb;fill:#feffff;fill-opacity:1;fill-rule:nonzero;stroke:none"
           id="text712"><tspan
             x="0"
             y="0"
             id="tspan710">-</tspan></text>
</g></g><path
       d="M 171.57,92.289 H 155.05"
       style="fill:none;stroke:#4672c4;stroke-width:1;stroke-linecap:round;stroke-linejoin:round;stroke-miterlimit:2;stroke-dasharray:none;stroke-opacity:1"
       id="path714"
       inkscape:connector-curvature="0" /><path
       d="m 155.93,88.769 -7.04,3.52 7.04,3.52 z"
       style="fill:#4672c4;fill-opacity:1;fill-rule:evenodd;stroke:none"
       id="path716"
       inkscape:connector-curvature="0" /><path
       d="M 136.14,79.533 V 63.016"
       style="fill:none;stroke:#4672c4;stroke-width:1;stroke-linecap:round;stroke-linejoin:round;stroke-miterlimit:2;stroke-dasharray:none;stroke-opacity:1"
       id="path718"
       inkscape:connector-curvature="0" /><path
       d="m 139.66,63.896 -3.52,-7.04 -3.52,7.04 z"
       style="fill:#4672c4;fill-opacity:1;fill-rule:evenodd;stroke:none"
       id="path720"
       inkscape:connector-curvature="0" /><path
       d="m 44.009,78.146 h 42.52 c 7.828,0 14.171,6.345 14.171,14.173 0,7.831 -6.343,14.171 -14.171,14.171 h -42.52 c -7.828,0 -14.173,-6.34 -14.173,-14.171 0,-7.828 6.345,-14.173 14.173,-14.173 z"
       style="fill:#3d64ac;fill-opacity:1;fill-rule:evenodd;stroke:none"
       id="path722"
       inkscape:connector-curvature="0" /><path
       d="m 44.009,78.146 h 42.52 c 7.828,0 14.171,6.345 14.171,14.173 0,7.831 -6.343,14.171 -14.171,14.171 h -42.52 c -7.828,0 -14.173,-6.34 -14.173,-14.171 0,-7.828 6.345,-14.173 14.173,-14.173 z"
       style="fill:none;stroke:#31528f;stroke-width:0.75;stroke-linecap:square;stroke-linejoin:miter;stroke-miterlimit:2;stroke-dasharray:none;stroke-opacity:1"
       id="path724"
       inkscape:connector-curvature="0" /><g
       id="g726"><g
         id="g728"
         clip-path="url(#clipPath732)"><text
           transform="matrix(1,0,0,-1,37.6,94.125)"
           style="font-variant:normal;font-weight:normal;font-size:8.27499962px;font-family:Calibri;-inkscape-font-specification:Calibri;writing-mode:lr-tb;fill:#feffff;fill-opacity:1;fill-rule:nonzero;stroke:none"
           id="text736"><tspan
             x="0 4.5181499 6.0159249 9.7810497 13.55445 15.052225 17.319574 20.348225 24.866375 29.384525 31.660151 36.178299 37.676075 42.194225 45.967625 48.987999 52.761398 55.790051"
             y="0"
             sodipodi:role="line"
             id="tspan734">Pixel coordinates </tspan></text>
</g></g><g
       id="g738"><g
         id="g740"
         clip-path="url(#clipPath744)"><text
           transform="matrix(1,0,0,-1,34.125,84.5)"
           style="font-variant:normal;font-weight:normal;font-size:8.25px;font-family:Calibri;-inkscape-font-specification:Calibri;writing-mode:lr-tb;fill:#feffff;fill-opacity:1;fill-rule:nonzero;stroke:none"
           id="text748"><tspan
             x="0 2.25225 5.2470002 9.7349997 15.7575 18.001499 21.004499 24.758249 31.523251 35.277 38.271751 42.025501 48.048 52.535999 57.023998 60.777748"
             y="0"
             sodipodi:role="line"
             id="tspan746">from cameramodel</tspan></text>
</g></g><path
       d="m 100.7,92.319 h 10.63 v -0.03 h 5.89"
       style="fill:none;stroke:#4672c4;stroke-width:1;stroke-linecap:round;stroke-linejoin:round;stroke-miterlimit:2;stroke-dasharray:none;stroke-opacity:1"
       id="path750"
       inkscape:connector-curvature="0" /><path
       d="m 116.34,95.809 7.04,-3.52 -7.04,-3.52 z"
       style="fill:#4672c4;fill-opacity:1;fill-rule:evenodd;stroke:none"
       id="path752"
       inkscape:connector-curvature="0" /><path
       d="M 65.269,129.17 V 112.65"
       style="fill:none;stroke:#4672c4;stroke-width:1;stroke-linecap:round;stroke-linejoin:round;stroke-miterlimit:2;stroke-dasharray:none;stroke-opacity:1"
       id="path754"
       inkscape:connector-curvature="0" /><path
       d="m 68.789,113.53 -3.52,-7.04 -3.52,7.04 z"
       style="fill:#4672c4;fill-opacity:1;fill-rule:evenodd;stroke:none"
       id="path756"
       inkscape:connector-curvature="0" /><path
       d="M 123.38,150.43 H 106.86"
       style="fill:none;stroke:#4672c4;stroke-width:1;stroke-linecap:round;stroke-linejoin:round;stroke-miterlimit:2;stroke-dasharray:none;stroke-opacity:1"
       id="path758"
       inkscape:connector-curvature="0" /><path
       d="m 107.74,146.91 -7.04,3.52 7.04,3.52 z"
       style="fill:#4672c4;fill-opacity:1;fill-rule:evenodd;stroke:none"
       id="path760"
       inkscape:connector-curvature="0" /></g></svg>